<?xml version="1.0" encoding="utf-8"?>
<!-- Generator: Adobe Illustrator 27.5.0, SVG Export Plug-In . SVG Version: 6.00 Build 0)  -->
<svg version="1.1" xmlns="http://www.w3.org/2000/svg" xmlns:xlink="http://www.w3.org/1999/xlink" x="0px" y="0px"
	 viewBox="0 0 500 500" style="enable-background:new 0 0 500 500;" xml:space="preserve">
<g id="BACKGROUND">
	<rect style="fill:#FFFCF9;" width="500" height="500"/>
</g>
<g id="OBJECTS">
	<g>
		<path style="fill:#FBEDDC;" d="M387.996,396.95c21.221-6.652,43.512-16.356,58.114-33.845
			c15.113-18.1,19.001-44.909,18.419-67.905c-1.104-43.558-17.111-130.171-47.421-163.779
			c-40.436-44.836-113.553,24.991-138.42,12.122c-16.835-8.712,17.466-37.982-12.053-69.536
			c-28.762-30.743-71.789-21.936-108.087-5.703C121.66,84.8,90.127,116.523,81.092,155.908c-7.063,30.79-0.223,63.482-7.232,94.285
			c-5.469,24.033-19.025,45.411-26.887,68.771c-7.863,23.36-8.825,51.931,8.081,69.866c11.387,12.081,28.88,16.847,45.475,16.363
			c16.595-0.484,32.661-5.6,48.472-10.663C220.858,371.516,312.487,420.619,387.996,396.95z"/>
		<g>
			<g>
				<g>
					<path style="fill:#8E99A1;" d="M234.846,327.735c0,0,12.441,61.018,6.881,83.817c0,0-112.451,18.551-132.47,10.488
						c0,0,3.893-85.637,14.736-102.041L234.846,327.735z"/>
					<path style="fill:#7A8389;" d="M234.846,327.735l-110.853-7.736c-3.04,4.6-5.534,14.643-7.549,26.714
						c1.297,9.661,10.479,14.991,18.904,17.941c10.152,3.555,20.857,5.029,31.428,6.75c5.6,0.912,11.415,1.686,16.228,4.952
						c5.328,3.615,10.263,6.144,10.96,12.412c0.973,8.749,1.332,20.702,0.711,29.607c25.728-3.306,47.052-6.823,47.052-6.823
						C247.288,388.753,234.846,327.735,234.846,327.735z"/>
					<path style="fill:#6A7277;" d="M199.942,417.688c0.112-8.183,4.184-14.387,7.792-21.604c1.385-2.77,2.107-4.719,0.547-7.432
						c-1.321-2.298-3.462-4.128-5.671-5.54c-3.33-2.128-9.237-4.724-12.879-1.981c2.241,1.963,3.857,4.254,4.233,7.637
						c0.972,8.749,1.331,20.702,0.711,29.607C196.455,418.147,198.21,417.918,199.942,417.688z"/>
					<path style="fill:none;stroke:#5A6266;stroke-miterlimit:10;" d="M111.909,381.915c2.491,5.093,9.418,6.496,14.849,4.869
						c8.011-2.399,12.692-6.845,15.426-14.749c1.218-3.522,3.315-13.443,3.58-17.579"/>
					<path style="fill:none;stroke:#5A6266;stroke-miterlimit:10;" d="M119.954,387.427c-1.153,9.557-3.51,28.983-3.51,36.143"/>
					<path style="fill:none;stroke:#5A6266;stroke-miterlimit:10;" d="M193.964,388.134c1.332,13.721,1.002,20.499,0.711,30.242"/>
				</g>
				<g>
					<g>
						<g>
							<path style="fill:#2C71B5;" d="M267.132,223.432c0,0-26.564-29.995-34.757-38.365c-12.734-13.01-39.373,7.014-22.602,39.369
								c4.63,8.932,35.913,55.1,58.328,51.567c22.415-3.533,46.32-41.047,55.055-47.381c5.459-3.958,7.689-8.472,3.731-9.985
								c-6.854-2.619-4.159-25.576,8.095-33.953C307.982,186.027,267.132,223.432,267.132,223.432z"/>
							<path style="fill:#3C7CC5;" d="M231.08,184.089c-4.414-5.797-26.208-8.738-33.49-8.493
								c-14.135,0.476-32.691,4.984-46.468,10.252c-11.426,4.369-20.241,13.716-23.819,25.414
								c-10.406,34.022-13.525,81.434-13.977,116.952c-0.088,6.952,3.243,23.916,38.073,24.048
								c18.534,0.07,73.887-12.867,83.447-24.527C240.706,315.548,224.917,240.628,231.08,184.089z"/>
							<g>
								<path style="fill:none;stroke:#0C598E;stroke-miterlimit:10;" d="M134.19,212.762c2.587,45.418-0.661,91.164-9.638,135.761"
									/>
							</g>
						</g>
						<g>
							<path style="fill:#E09E99;" d="M234.547,144.999c-5.282,14.428-13.278,17.293-23.796,18.205
								c-3.438,0.298-17.596-0.702-17.596-0.702c-32.57-2.407-35.106-9.282-39.275-21.289c-3.387-10.614-9.642-28.597-11.818-37.995
								c-0.556-2.401-0.927-4.536-1.028-6.25c-0.654-11.109,2.293-22.828,9.973-30.88c6.621-6.942,16.114-10.549,25.609-11.915
								c14.48-2.083,34.575,1.221,47.174,8.655c11.31,6.674,19.62,19.678,18.615,33.284
								C242.063,100.741,237.21,137.724,234.547,144.999z"/>
							<path style="fill:#F2BDB6;" d="M234.806,72.532c-0.685,0.172-1.373,0.325-2.063,0.451c-8.379,1.533-15.604-0.963-19.974-6.29
								c-0.776,0.371-1.579,0.704-2.426,0.974c-5.636,1.796-10.996,0.198-14.453-3.349c-1.426,1.257-2.943,2.389-4.533,3.338
								c-3.341,1.993-7.483,3.052-11.264,2.137c-1.529,4.496-4.193,8.654-8.265,10.532c-1.321,0.609-2.559,0.923-3.728,1.014
								c-0.056,3.561-0.494,7.072-1.278,10.361c-2.568,10.76-11.721,22.444-21.741,22.339c2.783,9.082,6.47,19.872,8.8,27.174
								c4.169,12.007,6.705,18.882,39.275,21.289c0,0,14.158,1,17.596,0.702c10.517-0.913,18.513-3.78,23.796-18.205
								c3.094-8.45,7.34-41.862,7.859-48.886C243.022,87.77,240.38,79.409,234.806,72.532z"/>
							<path style="fill:#F2BDB6;" d="M204.94,163.166c-5.266-0.203-11.785-0.663-11.785-0.663
								c-10.256-0.758-17.53-1.96-22.819-3.625c2.996,8.738-2.095,26.499,1.679,30.217c3.844,3.787,20.667,6.308,25.248,0.47
								C201.843,183.728,203.158,169.081,204.94,163.166C204.94,163.166,204.94,163.166,204.94,163.166z"/>
							<path style="fill:#E09E99;" d="M192.777,171.058c3.637-0.195,7.199-0.864,10.757-1.579c0.483-2.504,0.928-4.727,1.406-6.313
								c0,0,0,0,0,0c-5.266-0.203-11.785-0.663-11.785-0.663c-10.256-0.758-17.53-1.96-22.819-3.625
								c1.071,3.124,1.107,7.401,0.885,11.778C178.397,170.835,185.603,171.443,192.777,171.058z"/>
							<path style="fill:#F2BDB6;" d="M147.973,102.041c-3.025-2.933-8.144-2.964-11.697-0.698
								c-3.553,2.266-5.627,6.377-6.254,10.544c-0.593,3.94,0.002,8.092,1.925,11.582c1.923,3.489,5.212,6.259,9.057,7.302
								c3.159,0.857,6.516,0.551,9.738-0.028c3.3-0.593,6.802-1.625,8.833-4.293L147.973,102.041z"/>
							<path style="fill:#B57A3C;" d="M224.354,43.527c3.829-2.347,9.141-1.495,12.474,1.515c3.333,3.01,6.204,9.116,2.776,17.024
								c-1.835,4.232-7.168,5.918-11.779,6.013c-5.598,0.115-11.473-2.615-14.463-7.349c-5.577,2.861-12.901,1.129-17.058-3.563
								c-3.633,5.632-12.307,9.477-18.376,6.632c-0.432,2.27-0.959,4.553-2.021,6.607c-1.061,2.053-2.716,3.879-4.865,4.73
								c-2.266,0.898-4.884,1.668-7.297,1.32c2.846,11.239-11.352,31.505-11.352,31.505c-3.521-4.34-8.737-6.016-14.096-7.6
								c-0.132-7.975,0.719-17.711,3.278-25.265c-3.585-0.449-6.307-4.298-6.627-7.897c-0.32-3.599,1.194-7.127,3.159-10.159
								c2.186-3.373,5.266-6.525,9.224-7.221c-3.433-3.917-2.867-10.881,0.844-14.536c3.711-3.655,10.105-4.025,14.355-1.013
								c1.579-4.792,5.949-9.114,10.851-10.306c4.903-1.192,10.202-0.119,14.581,2.387c3.638,2.083,6.955,5.769,6.491,9.935
								c-0.257-1.188,1.046-1.91,1.972-2.698c3.504-2.979,9.363-2.593,12.446,0.82c2.205-3.634,8.601-5.19,12.412-3.308
								C225.095,32.982,225.9,39.568,224.354,43.527z"/>
							<path style="fill:#CC8A4E;" d="M236.828,45.042c-3.333-3.01-8.645-3.862-12.474-1.515c1.546-3.959,0.74-10.546-3.07-12.428
								c-3.811-1.882-10.207-0.326-12.412,3.308c-3.083-3.413-8.942-3.799-12.446-0.82c-0.732,0.622-1.687,1.207-1.934,2.01
								c0.052-3.882-3.094-7.28-6.53-9.247c-4.379-2.507-9.678-3.579-14.581-2.387c-4.903,1.191-9.272,5.514-10.851,10.306
								c-4.249-3.012-10.644-2.643-14.355,1.013c-3.711,3.655-4.277,10.619-0.844,14.536c-3.959,0.696-7.039,3.848-9.224,7.221
								c-1.014,1.566-1.902,3.264-2.486,5.036c3.835-4.743,9.892-7.133,16.22-8.283c-0.927-1.482-1.619-3.079-1.937-4.73
								c-1.111-5.76,3.118-11.176,8.93-11.542c2.277-0.143,4.382,0.417,6.33,1.407c4.403-7.801,13.559-12.704,22.029-6.405
								c3.323,2.471,5.594,5.926,7.116,9.779c2.584-3.255,6.437-5.237,11.379-4.521c0.63,0.091,1.237,0.221,1.826,0.378
								c1.042-1.192,2.302-2.213,3.724-3.115c2.794-1.774,6.262-0.199,8.379,1.717c2.79,2.525,3.109,6.455,2.414,9.924
								c2.063-0.536,4.26-0.541,6.435,0.167c5.19,1.688,7.939,7.491,5.947,12.609c-1.825,4.688-6.495,6.443-11.186,6.392
								c-1.257-0.014-2.5-0.205-3.732-0.439c-0.637-0.121-1.271-0.263-1.905-0.4c2.978,2.033,6.657,3.139,10.236,3.065
								c4.611-0.095,9.945-1.781,11.779-6.013C243.032,54.159,240.162,48.052,236.828,45.042z"/>
							<path style="fill:#B57A3C;" d="M154.737,74.779c-4.801-1.42-8.855-0.002-13.349,0.937c-2.404,7.464-3.22,16.881-3.091,24.645
								c5.359,1.583,10.575,3.26,14.096,7.599c0,0,14.096-20.126,11.376-31.387C160.832,76.4,157.877,75.708,154.737,74.779z"/>
							<path style="fill:#CC8A4E;" d="M154.572,88.284c1.193,1.183,2.077,2.629,2.743,4.167c0.433,0.999,0.628,3.142,1.329,3.943
								c0.097,0.111,0.22,0.21,0.353,0.304c3.226-6.478,6.148-14.433,4.773-20.125c-2.938-0.173-5.893-0.865-9.032-1.794
								c-4.801-1.42-8.855-0.002-13.349,0.937c-1.341,4.164-2.173,8.934-2.638,13.688C143.921,86.273,149.204,82.962,154.572,88.284
								z"/>
							<path style="fill:#9B5F29;" d="M155.63,85.325c2.141,1.372,4.362,2.623,6.579,3.876c1.57-4.484,2.434-9.013,1.561-12.628
								c-2.938-0.173-5.893-0.865-9.032-1.794c-4.801-1.42-8.668-0.623-13.162,0.316c-0.901,2.799-1.766,6.493-2.255,9.651
								C144.519,82.359,150.277,81.896,155.63,85.325z"/>
							<g>
								<path style="fill:#E09E99;" d="M153.153,129.221c0.07,0.161-0.774,0.731-2.454,1.489c-0.439,0.171-0.916,0.358-1.432,0.56
									c-0.528,0.198-1.128,0.336-1.764,0.52c-1.282,0.33-2.797,0.567-4.506,0.577c-1.706,0.024-3.62-0.293-5.535-1.064
									c-1.922-0.761-3.768-2.095-5.297-3.84c-0.753-0.893-1.435-1.829-2.01-2.99c-0.527-1.133-0.886-2.322-1.156-3.534
									c-0.498-2.427-0.617-4.949-0.45-7.507c0.179-2.558,0.61-5.036,1.46-7.397c0.438-1.173,1-2.314,1.773-3.34
									c0.759-1.026,1.798-1.916,2.932-2.469c2.302-1.099,4.648-1.071,6.648-0.747c2.154,0.393,3.827,1.386,5.189,2.388
									c2.72,2.046,4.33,4.24,5.313,5.798c0.965,1.585,1.239,2.593,1.083,2.671c-0.181,0.096-0.765-0.715-1.943-2.033
									c-1.187-1.293-2.963-3.187-5.551-4.83c-1.282-0.81-2.803-1.537-4.415-1.736c-1.717-0.199-3.626-0.074-5.172,0.746
									c-1.531,0.786-2.62,2.457-3.326,4.475c-0.693,2.017-1.088,4.313-1.248,6.656c-0.155,2.348-0.056,4.661,0.346,6.787
									c0.217,1.054,0.505,2.06,0.896,2.963c0.394,0.853,0.973,1.716,1.57,2.468c1.232,1.497,2.702,2.665,4.275,3.383
									c1.566,0.725,3.179,1.115,4.693,1.208c1.512,0.107,2.914,0.026,4.139-0.145c0.61-0.105,1.19-0.16,1.713-0.275
									c0.518-0.112,0.998-0.216,1.439-0.311C152.088,129.269,153.074,129.034,153.153,129.221z"/>
							</g>
							<path style="fill:#CC8A4E;" d="M175.977,55.165c0.965,3.717,0.23,7.876-2.096,10.932c-2.326,3.055-6.233,4.886-10.058,4.545
								c-3.825-0.342-7.408-2.921-8.789-6.503c-1.138,3.035,0.476,7.825,3.453,10.107c2.977,2.281,5.821,3.583,12.168,1.026
								c3.627-1.462,6.395-4.791,7.188-8.62C178.636,62.822,178.071,58.467,175.977,55.165z"/>
							<path style="fill:#EFA3A3;" d="M174.744,128.758c6.2,2.602,12.777,1.016,14.69-3.543c1.913-4.559-1.562-10.364-7.762-12.966
								c-6.2-2.602-12.777-1.016-14.69,3.543C165.069,120.351,168.544,126.156,174.744,128.758z"/>
							<path style="fill:#EFA3A3;" d="M227.206,132.635c-6.515,1.662-12.787-0.874-14.01-5.664
								c-1.222-4.79,3.068-10.021,9.583-11.684c6.515-1.662,12.787,0.874,14.01,5.664
								C238.012,125.742,233.721,130.973,227.206,132.635z"/>
							<path style="fill:#4C3C2A;" d="M187.126,97.305c-4.742,0.589-4.344,14.699,1.202,13.118
								C193.874,108.843,192.605,96.624,187.126,97.305z"/>
							<path style="fill:#4C3C2A;" d="M218.327,96.099c-4.742,0.589-4.344,14.699,1.202,13.118
								C225.075,107.637,223.806,95.418,218.327,96.099z"/>
							<g>
								<path style="fill:#4C3C2A;" d="M178.854,98.478c-0.375,0.015-0.758-0.246-1.071-0.797c-0.312-0.548-0.545-1.389-0.551-2.468
									c0.003-1.072,0.245-2.394,0.947-3.747c0.696-1.361,1.895-2.694,3.482-3.595c1.591-0.902,3.434-1.271,5.091-1.037
									c1.646,0.225,2.943,0.957,3.8,1.769c0.86,0.825,1.284,1.715,1.376,2.383c0.096,0.674-0.107,1.111-0.432,1.286
									c-0.69,0.347-1.7-0.181-2.972-0.35c-0.635-0.096-1.348-0.132-2.024-0.026c-0.659,0.101-1.39,0.349-2.128,0.761
									c-0.74,0.427-1.389,0.953-1.93,1.55c-0.553,0.601-1.018,1.275-1.425,1.903C180.21,97.368,179.628,98.443,178.854,98.478z"/>
							</g>
							<g>
								<path style="fill:#4C3C2A;" d="M227.064,95.944c-0.179-0.064-0.334-0.198-0.472-0.372c-0.147-0.176-0.238-0.382-0.381-0.62
									c-0.133-0.236-0.254-0.489-0.42-0.755c-0.063-0.131-0.162-0.268-0.251-0.405c-0.078-0.137-0.179-0.277-0.289-0.42
									c-0.195-0.284-0.447-0.578-0.723-0.877c-0.27-0.302-0.603-0.6-0.948-0.907c-0.374-0.291-0.755-0.6-1.202-0.873
									c-0.426-0.294-0.917-0.54-1.415-0.793c-0.257-0.115-0.512-0.228-0.763-0.34c-0.251-0.093-0.498-0.184-0.742-0.274
									c-0.359-0.136-0.803-0.23-1.257-0.282c-0.91-0.113-1.854-0.09-2.624-0.028c-0.398,0.023-0.738,0.069-1.06,0.098
									c-0.292,0.029-0.572,0.057-0.843,0.085c-0.483,0.033-0.904,0.095-1.262-0.06c-0.335-0.138-0.541-0.658-0.283-1.423
									c0.128-0.363,0.357-0.772,0.685-1.163c0.327-0.384,0.747-0.783,1.251-1.121c1.01-0.696,2.342-1.261,3.997-1.455
									c0.825-0.095,1.739-0.091,2.731,0.127c0.476,0.101,0.851,0.228,1.289,0.357c0.415,0.159,0.84,0.317,1.253,0.516
									c0.823,0.409,1.6,0.872,2.273,1.442c0.687,0.544,1.268,1.185,1.768,1.83c0.481,0.672,0.878,1.357,1.145,2.062
									c0.271,0.699,0.44,1.392,0.479,2.048c0.031,0.323,0.034,0.632-0.001,0.931c-0.024,0.295-0.056,0.565-0.135,0.821
									c-0.119,0.506-0.331,0.911-0.542,1.212c-0.202,0.302-0.467,0.489-0.671,0.592C227.438,95.998,227.242,96.008,227.064,95.944
									z"/>
							</g>
							<path style="fill:#E09E99;" d="M202.784,103.099c0.427,1.912,0.932,3.841,1.942,5.521c1.01,1.679,2.601,3.1,4.522,3.487
								c0.993,0.2,2.286,0.31,2.563,1.284c0.111,0.39,0,0.806-0.126,1.192c-1.216,3.727-3.949,6.935-7.436,8.728
								c-0.48,0.247-1.011,0.473-1.542,0.38c-1.026-0.179-1.476-1.374-1.723-2.385c-1.234-5.049-2.166-10.215-2.04-15.411
								c0.1-4.089,0.791-8.575,2.773-12.202C202.825,95.989,202.175,100.375,202.784,103.099z"/>
							<g>
								<path style="fill:#BF706D;" d="M201.807,93.648c1.035,1.402,1.278,3.186,1.577,4.784c0.249,1.623,0.412,3.227,0.841,4.54
									c0.902,3.022,2.062,5.745,4.194,6.918c0.249,0.148,0.505,0.27,0.765,0.363c0.13,0.048,0.261,0.083,0.393,0.117l0.562,0.117
									c0.428,0.092,0.928,0.186,1.546,0.458c0.309,0.142,0.665,0.345,1,0.674c0.331,0.326,0.619,0.798,0.74,1.26
									c0.267,1.029-0.034,1.753-0.177,2.183c-0.172,0.457-0.368,0.884-0.577,1.291c-0.416,0.813-0.926,1.535-1.461,2.219
									c-1.059,1.376-2.302,2.566-3.686,3.583c-0.707,0.488-1.439,0.953-2.251,1.282c-0.791,0.33-1.715,0.572-2.573,0.353
									l0.015-0.199c0.778,0.033,1.537-0.319,2.21-0.73c0.68-0.418,1.307-0.926,1.894-1.473c1.173-1.097,2.209-2.343,3.097-3.681
									c0.444-0.669,0.844-1.366,1.182-2.09c0.165-0.363,0.314-0.733,0.436-1.109c0.12-0.374,0.21-0.758,0.104-1.087
									c-0.214-0.696-1.099-0.888-1.857-1.025c-0.794-0.112-1.635-0.357-2.352-0.774c-1.447-0.843-2.539-2.18-3.258-3.651
									c-0.73-1.476-1.141-3.069-1.49-4.649c-0.36-1.61-0.313-3.248-0.361-4.86c-0.057-1.6-0.058-3.262-0.691-4.727L201.807,93.648
									z"/>
							</g>
							<g>
								<path style="fill:#4C3C2A;" d="M221.982,126.759c0.129,0.12-0.135,0.71-0.855,1.587c-0.719,0.872-1.886,2.055-3.577,3.209
									c-1.679,1.163-3.886,2.296-6.52,3.044c-2.629,0.752-5.698,1.056-8.843,0.68c-3.149-0.363-6.05-1.365-8.446-2.683
									c-2.399-1.305-4.323-2.957-5.621-4.591c-1.31-1.638-1.97-3.253-2.21-4.387c-0.241-1.143-0.135-1.794,0.037-1.823
									c0.2-0.038,0.454,0.53,0.966,1.449c0.513,0.917,1.331,2.179,2.654,3.462c1.321,1.282,3.114,2.579,5.335,3.638
									c2.206,1.062,4.805,1.881,7.607,2.204c2.802,0.332,5.507,0.14,7.896-0.405c2.393-0.543,4.473-1.387,6.143-2.254
									c1.681-0.856,2.953-1.737,3.857-2.333C221.309,126.958,221.834,126.62,221.982,126.759z"/>
							</g>
						</g>
						<path style="fill:#0C598E;" d="M175.817,185.514c3.368,2.475,7.6,3.557,11.775,3.746c2.814,0.128,5.836-0.2,8.02-1.979
							c1.07-0.871,1.863-2.034,2.545-3.233c1.063-1.87,1.892-3.872,2.462-5.946c0.23-0.836,0.425-1.7,0.883-2.437
							c0.458-0.736,1.25-1.336,2.116-1.293c1.251,0.062,2.054,1.346,2.474,2.525c1.767,4.962,0.614,10.687-2.34,15.048
							c-0.954,1.409-2.097,2.708-3.484,3.693c-1.575,1.119-3.422,1.804-5.298,2.267c-2.458,0.606-4.991,0.85-7.517,1.019
							c-2.415,0.162-4.851,0.256-7.249-0.079c-4.907-0.686-9.531-3.234-12.733-7.017c-2.564-3.029-4.238-6.982-3.847-10.931
							c0.241-2.441,3.765-8.275,6.355-4.525c0.974,1.41,1.09,3.445,2.01,4.969C172.971,182.965,174.288,184.391,175.817,185.514z"/>
					</g>
					<path style="fill:#0C598E;" d="M235.396,324.27c3.157,0,4.158,3.675,4.512,6.642c1.202,10.09-2.064,14.241-7.168,16.793
						c-31.43,15.718-73.762,18.377-90.493,16.973c-9.821-0.824-20.722-2.402-28.647-8.262c-3.444-2.546-4.343-12.141,0.682-21.71
						c11.659,17.705,57.124,12.603,74.38,9.78C223.113,338.849,234.302,326.63,235.396,324.27z"/>
				</g>
			</g>
			<g>
				<g>
					<path style="fill:#7BBA81;" d="M56.479,447.268c7.374,7.422,53.744,12.269,61.213,13.351
						c7.468,1.082,13.374,2.319,17.899,0.757c3.087-1.066,16.613-14.879,19.821-20.363c6.194-6.085,16.236-15.703,16.741-16.103
						c7.963-6.313,11.477-7.523,16.21-15.876c-0.798-11.414-76.694-12.239-97.419-8.749c-3.637,0.612-9.827,6.203-12.451,8.744
						C72.234,415.093,49.104,439.846,56.479,447.268z"/>
					<path style="fill:#ED9935;" d="M111.107,398.68c-1.785,0.395-3.566,0.807-5.338,1.252c3.146,3.522,5.749,7.527,7.692,11.832
						c-5.866,1.283-11.585,3.231-17.014,5.796c3.114,4.337,6.072,8.785,8.867,13.335c-7.134,2.913-14.394,5.519-21.752,7.807
						c2.909,5.649,5.448,11.49,7.594,17.47l5.549,1.662c1.478,0.216,2.924,0.421,4.326,0.615c-2.086-5.712-4.52-11.296-7.304-16.702
						c7.358-2.288,14.618-4.894,21.752-7.807c-2.794-4.549-5.753-8.998-8.867-13.335c5.429-2.565,11.148-4.514,17.014-5.796
						c-1.942-4.304-4.546-8.309-7.692-11.832c7.485-1.881,15.085-3.298,22.741-4.277
						C129.117,398.383,119.485,398.398,111.107,398.68z"/>
					<path style="fill:#6DAD72;" d="M186.462,412.111c-2.951,4.299-8.939,8.542-14.309,12.799c-0.505,0.4-9.102,7.101-16.741,16.103
						c-3.208,5.483-16.734,19.297-19.821,20.363c-4.525,1.562-10.431,0.325-17.899-0.757c-6.618-0.959-43.775-4.875-57.285-10.917
						c-2.047,5.4-4.253,12.259,1.209,16.307c1.77,1.312,4.008,1.782,6.17,2.21c24.002,4.752,46.697,10.297,71.015,7.594
						c16.144-1.794,22.828-30.203,43.088-42.298C188.216,429.736,190.244,415.699,186.462,412.111z"/>
					<path style="fill:#59915C;" d="M95.721,465.384c12.945,3.773,27.249,6.658,40.6,3.277c6.229-1.577,12.548-4.47,16.517-9.714
						c4.059-5.362,6.085-12.055,9.134-17.985c3.474-6.757,8.626-11.436,14.952-15.526c4.27-2.76,7.882-5.658,11.293-8.887
						c-0.222-1.933-0.656-3.692-1.755-4.438c-2.951,4.299-8.653,8.931-14.309,12.799c-6.862,4.693-9.441,8.239-16.741,16.103
						c-3.208,5.483-16.734,19.297-19.821,20.363c-4.525,1.562-10.431,0.325-17.9-0.757c-6.618-0.959-43.774-4.874-57.285-10.917
						c-0.271,0.714-0.543,1.454-0.801,2.208C71.484,456.824,83.363,461.782,95.721,465.384z"/>
					<path style="fill:#FBEDDC;" d="M150.536,443.773c3.967-7.935,12.663-17.663,21.467-20c-2.621-1.858-9.846-6.358-18.243-7.641
						c-17.358-2.652-26.459,7.358-20.249,17.142C137.51,439.573,145.615,442.72,150.536,443.773z"/>
					<path style="fill:#EFDECB;" d="M144.784,421.982c3.667-2.503,8.078-4.056,12.721-5.052c-1.214-0.325-2.463-0.602-3.744-0.798
						c-17.358-2.652-26.459,7.358-20.249,17.142c1.497,2.358,3.57,4.275,5.835,5.805
						C136.712,433.338,138.105,426.542,144.784,421.982z"/>
					<path style="fill:#ED9935;" d="M155.784,424.925c-1.661,0-7.384,5.503-7.557,8.009c-0.002,0.024-0.008-0.644-0.008,0.071
						c0,0.714,5.802,2.617,7.588,2.65c0,0,5.643-5.614,7.111-7.042C162.313,428.192,157.445,424.925,155.784,424.925z"/>
					<path style="fill:none;stroke:#5F9964;stroke-miterlimit:10;" d="M56.479,447.268c7.374,7.422,53.744,12.269,61.213,13.351
						c7.468,1.082,13.374,2.319,17.899,0.757c3.087-1.066,14.662-12.076,17.87-17.559c-3.994-0.82-13.835-5.389-17.985-10.116
						c-11.566-13.173,2.832-22.782,16.987-18.987c13.657,3.662,19.184,10.597,19.689,10.197c7.963-6.313,11.477-7.523,16.21-15.876
						c-0.798-11.414-76.694-12.239-97.419-8.749c-3.637,0.612-9.827,6.203-12.451,8.744
						C72.234,415.093,49.104,439.846,56.479,447.268z"/>
					<path style="fill:#ED9935;" d="M176.918,421.284c-0.883-1.187-14.55-8.28-21.533-9.777c-6.095-1.307-13.054-0.937-18.85,1.359
						c-5.795,2.296-10.609,7.826-10.586,14.06c0.016,4.31,2.262,8.346,5.15,11.546c4.825,5.345,10.781,9.135,17.805,10.718
						c2.575,0.58,5.921-5.979,5.17-6.187c-14.649-4.057-20.746-12.078-20.974-16.396c-0.212-4.002,2.784-7.277,5.916-8.23
						c8.552-2.603,15.327-0.79,23.557,2.701c2.449,1.039,6.169,2.751,8.761,4.403C173.433,426.816,178.589,423.528,176.918,421.284z
						"/>
				</g>
				<g>
					<path style="fill:#B24679;" d="M440.26,339.334c-2.874,1.633-27.829-5.983-29.547-8.32c-1.718-2.338-0.004-10.818,0.871-11.14
						c0.525-0.193,12.896,3.601,26.969,7.697c4.197,1.222,5.185,0.022,5.131,2.287C443.642,331.617,441.915,338.393,440.26,339.334z
						"/>
					<polyline style="fill:#ED9935;" points="221.285,323.647 335.342,290.797 335.342,388.257 221.285,323.647 					"/>
					<g>
						<g>
							<path style="fill:#ED9935;" d="M310.5,347.306v116.742c0,0-49.928-17.707-93.387-27.191c0,0-2.07-67.677,4.171-113.211
								L310.5,347.306z"/>
							<path style="fill:#FEB24B;" d="M310.5,347.306c56.306-15.109,69.844-20.629,104.691-38.514
								c1.55,37.952,3.876,71.882,5.427,109.834L310.5,464.048V347.306z"/>
							<g>
								<g>
									<polygon style="fill:#FED395;" points="419.181,387.781 350.687,439.595 348.29,431.454 341.109,426.933 414.65,371.3 
										417.047,379.441 418.806,380.548 									"/>
								</g>
								<g>
									<g>
										<path style="fill:#976C5D;" d="M354.565,431.328c-0.04-0.001-0.074-0.02-0.104-0.059
											c-0.005-0.008-0.015-0.026-0.031-0.057l-2.973-6.338c-0.029-0.065-0.037-0.126-0.025-0.187
											c0.012-0.06,0.046-0.112,0.1-0.153l2.48-1.877c0.227-0.172,0.466-0.285,0.718-0.34c0.251-0.056,0.495-0.052,0.732,0.012
											c0.176,0.047,0.341,0.127,0.499,0.234c0.158,0.109,0.298,0.243,0.42,0.405c0.083,0.11,0.159,0.234,0.229,0.374
											c0.207,0.463,0.269,0.939,0.188,1.427c0.215,0.047,0.42,0.132,0.612,0.257c0.193,0.124,0.362,0.283,0.509,0.476
											c0.092,0.123,0.17,0.253,0.236,0.393c0.124,0.272,0.198,0.564,0.226,0.879c0.025,0.314,0.006,0.625-0.06,0.934
											c-0.069,0.31-0.182,0.598-0.34,0.863c-0.159,0.265-0.35,0.483-0.575,0.653l-2.711,2.051
											C354.648,431.312,354.604,431.329,354.565,431.328z M354.833,425.636c0.177-0.134,0.293-0.306,0.348-0.516
											c0.066-0.28,0.023-0.521-0.131-0.725c-0.083-0.11-0.185-0.181-0.307-0.211c-0.083-0.023-0.169-0.025-0.257-0.003
											c-0.089,0.021-0.175,0.066-0.262,0.131l-0.719,0.544l0.619,1.316L354.833,425.636z M356.323,428.217
											c0.083-0.063,0.152-0.143,0.209-0.241c0.055-0.096,0.092-0.204,0.111-0.32c0.02-0.115,0.025-0.227,0.012-0.338
											c-0.013-0.113-0.042-0.216-0.087-0.314c-0.026-0.05-0.054-0.097-0.087-0.139c-0.092-0.122-0.201-0.207-0.324-0.252
											c-0.092-0.028-0.184-0.037-0.279-0.026c-0.094,0.011-0.182,0.048-0.266,0.112l-0.916,0.693l0.711,1.517L356.323,428.217z"
											/>
										<path style="fill:#976C5D;" d="M361.986,425.54c-0.487,0.097-0.927,0.027-1.319-0.215
											c-0.247-0.148-0.475-0.358-0.679-0.629c-0.158-0.209-0.307-0.463-0.447-0.763l-1.796-3.828
											c-0.024-0.054-0.032-0.112-0.021-0.174c0.011-0.061,0.038-0.109,0.083-0.142l1.194-0.903
											c0.094-0.072,0.169-0.07,0.227,0.007c0.01,0.012,0.022,0.033,0.037,0.064l1.806,3.85c0.06,0.135,0.131,0.255,0.21,0.359
											c0.152,0.201,0.328,0.323,0.527,0.37c0.131,0.032,0.264,0.029,0.401-0.011c0.135-0.039,0.269-0.109,0.399-0.207
											c0.132-0.099,0.241-0.219,0.332-0.361c0.089-0.141,0.153-0.296,0.195-0.466c0.083-0.366,0.035-0.744-0.145-1.134
											l-1.805-3.851c-0.028-0.057-0.033-0.117-0.017-0.181c0.016-0.063,0.05-0.114,0.102-0.153l1.142-0.865
											c0.049-0.037,0.099-0.054,0.147-0.05c0.048,0.005,0.087,0.026,0.117,0.065c0.012,0.016,0.019,0.028,0.022,0.038
											l1.796,3.828c0.24,0.508,0.381,0.994,0.422,1.458c0.042,0.464-0.002,0.9-0.133,1.306c-0.12,0.378-0.304,0.729-0.552,1.051
											c-0.248,0.323-0.544,0.615-0.889,0.876C362.87,425.235,362.419,425.454,361.986,425.54z"/>
										<path style="fill:#976C5D;" d="M368.969,420.288c-0.006-0.008-0.017-0.026-0.03-0.057l-1.195-2.547l-3.624-2.4
											c-0.015-0.009-0.031-0.025-0.049-0.049c-0.028-0.036-0.035-0.076-0.024-0.117c0.012-0.042,0.041-0.081,0.092-0.118
											l1.338-1.013c0.054-0.04,0.107-0.06,0.156-0.056c0.05,0.004,0.109,0.029,0.173,0.078l1.984,1.581l-0.153-2.967
											c-0.005-0.094,0.003-0.17,0.025-0.228c0.023-0.057,0.06-0.107,0.115-0.148l1.357-1.027
											c0.037-0.028,0.07-0.044,0.101-0.046c0.031-0.002,0.055,0.008,0.073,0.031c0.018,0.023,0.027,0.067,0.031,0.13
											l-0.083,5.193l1.197,2.558c0.063,0.133,0.038,0.242-0.076,0.328l-1.171,0.885
											C369.109,420.373,369.03,420.369,368.969,420.288z"/>
										<path style="fill:#976C5D;" d="M378.658,412.879l-5.076-4.767c-0.026-0.023-0.04-0.036-0.046-0.045
											c-0.03-0.04-0.039-0.08-0.026-0.123c0.013-0.042,0.043-0.08,0.09-0.117l1.25-0.933c0.115-0.088,0.223-0.079,0.326,0.024
											l3.106,3.161l-0.716-4.97c-0.018-0.165,0.028-0.29,0.14-0.375l1.265-0.957c0.072-0.056,0.128-0.06,0.163-0.014
											c0.018,0.024,0.031,0.067,0.041,0.129l0.876,7.931c0.02,0.166-0.027,0.291-0.139,0.377l-0.919,0.695
											C378.879,412.981,378.768,412.976,378.658,412.879z"/>
										<path style="fill:#976C5D;" d="M383.695,409.154c-0.008-0.01-0.019-0.031-0.033-0.06l-2.973-6.345
											c-0.063-0.133-0.039-0.241,0.073-0.325l1.169-0.886c0.097-0.073,0.176-0.069,0.236,0.012
											c0.007,0.008,0.016,0.026,0.031,0.057l2.973,6.344c0.063,0.133,0.038,0.242-0.077,0.328l-1.171,0.885
											C383.831,409.236,383.755,409.233,383.695,409.154z"/>
										<path style="fill:#976C5D;" d="M387.247,406.467c-0.007-0.01-0.019-0.031-0.033-0.06l-2.972-6.346
											c-0.028-0.057-0.034-0.115-0.025-0.175c0.01-0.06,0.043-0.11,0.097-0.15l1.268-0.959c0.11-0.084,0.234-0.087,0.372-0.011
											l3.684,2.202l-1.724-3.686c-0.026-0.057-0.033-0.116-0.022-0.176c0.012-0.06,0.046-0.112,0.103-0.156l1.088-0.822
											c0.044-0.033,0.096-0.048,0.156-0.041c0.06,0.005,0.103,0.037,0.13,0.094l2.973,6.345
											c0.063,0.133,0.031,0.247-0.096,0.344l-1.147,0.867c-0.118,0.089-0.243,0.093-0.377,0.015l-3.898-2.372l1.841,3.929
											c0.063,0.132,0.031,0.246-0.097,0.344l-1.091,0.825C387.383,406.549,387.306,406.545,387.247,406.467z"/>
										<path style="fill:#976C5D;" d="M395.688,400.075c-0.006-0.007-0.017-0.026-0.03-0.056l-2.342-4.99l-1.38,1.045
											c-0.094,0.072-0.17,0.068-0.23-0.01c-0.008-0.011-0.02-0.031-0.034-0.061l-0.541-1.153
											c-0.064-0.131-0.038-0.242,0.077-0.328l4.245-3.212c0.097-0.073,0.176-0.069,0.237,0.012
											c0.007,0.008,0.016,0.026,0.03,0.056l0.541,1.154c0.057,0.136,0.031,0.247-0.081,0.332l-1.389,1.05l2.341,4.99
											c0.063,0.132,0.037,0.242-0.082,0.331l-1.126,0.853C395.827,400.161,395.748,400.157,395.688,400.075z"/>
										<path style="fill:#976C5D;" d="M399.255,397.464c-0.022-0.029-0.035-0.074-0.042-0.135l-0.852-7.949
											c-0.015-0.168,0.033-0.295,0.148-0.383l0.959-0.725c0.112-0.085,0.221-0.077,0.329,0.021l5.109,4.729
											c0.01,0.008,0.023,0.022,0.04,0.044c0.063,0.082,0.044,0.163-0.054,0.237l-1.166,0.883
											c-0.118,0.088-0.226,0.081-0.325-0.024l-0.69-0.684l-2.137,1.616l0.151,1.093c0.019,0.166-0.028,0.292-0.139,0.376
											l-1.166,0.882C399.344,397.501,399.288,397.509,399.255,397.464z M401.577,392.361l-1.602-1.587l0.353,2.532
											L401.577,392.361z"/>
										<path style="fill:#976C5D;" d="M408.191,390.77c-0.296,0.113-0.591,0.178-0.888,0.192
											c-0.294,0.018-0.583-0.01-0.866-0.084c-0.282-0.073-0.55-0.19-0.804-0.351c-0.323-0.206-0.602-0.463-0.835-0.771
											c-0.153-0.201-0.285-0.426-0.4-0.676c-0.151-0.313-0.26-0.644-0.328-0.994c-0.068-0.35-0.097-0.707-0.087-1.066
											c0.027-0.73,0.194-1.411,0.502-2.046c0.154-0.322,0.34-0.62,0.557-0.893c0.218-0.273,0.462-0.513,0.734-0.717
											c0.341-0.258,0.672-0.439,0.994-0.539c0.321-0.102,0.655-0.143,1.002-0.122c0.064,0.001,0.111,0.023,0.142,0.065
											c0.026,0.034,0.035,0.086,0.031,0.155l-0.143,1.567c-0.001,0.074-0.028,0.131-0.081,0.171
											c-0.033,0.025-0.078,0.037-0.133,0.034c-0.378-0.018-0.72,0.088-1.022,0.317c-0.221,0.168-0.404,0.365-0.546,0.595
											c-0.143,0.229-0.241,0.478-0.297,0.745c-0.055,0.263-0.067,0.53-0.035,0.801c0.033,0.271,0.108,0.532,0.225,0.784
											c0.064,0.14,0.143,0.271,0.236,0.393c0.221,0.293,0.484,0.485,0.788,0.579c0.205,0.066,0.419,0.078,0.639,0.036
											c0.22-0.042,0.434-0.14,0.641-0.297c0.092-0.07,0.191-0.156,0.294-0.254c0.103-0.098,0.188-0.194,0.257-0.286
											l-0.562-1.199c-0.063-0.133-0.037-0.243,0.077-0.33l1.051-0.795c0.048-0.037,0.09-0.054,0.127-0.054
											c0.037,0.001,0.071,0.022,0.103,0.064c0.007,0.01,0.02,0.031,0.034,0.061l1.026,2.194
											c0.024,0.048,0.037,0.094,0.041,0.139c0.003,0.045-0.009,0.094-0.034,0.146c-0.16,0.359-0.377,0.708-0.652,1.05
											c-0.274,0.341-0.587,0.643-0.937,0.908C408.771,390.498,408.487,390.657,408.191,390.77z"/>
										<path style="fill:#976C5D;" d="M412.759,387.162c-0.006-0.007-0.018-0.026-0.031-0.056l-2.973-6.345
											c-0.063-0.133-0.037-0.242,0.077-0.329l3.893-2.945c0.097-0.074,0.176-0.07,0.237,0.011
											c0.007,0.008,0.015,0.027,0.03,0.057l0.545,1.168c0.061,0.129,0.034,0.238-0.08,0.324l-2.551,1.93l0.527,1.122
											l1.938-1.466c0.052-0.04,0.099-0.06,0.142-0.059c0.044-0.001,0.081,0.02,0.113,0.063c0.008,0.011,0.019,0.031,0.034,0.061
											l0.437,0.936c0.063,0.133,0.031,0.247-0.096,0.344l-1.937,1.464l0.539,1.161l2.626-1.986
											c0.096-0.072,0.175-0.069,0.235,0.013c0.006,0.007,0.016,0.026,0.031,0.056l0.543,1.159
											c0.064,0.131,0.037,0.241-0.077,0.328l-3.968,3.001C412.899,387.247,412.82,387.243,412.759,387.162z"/>
									</g>
								</g>
							</g>
						</g>
						<polygon style="fill:#FCCE4C;" points="221.285,323.647 310.5,347.306 272.936,414.714 231.615,396.704 176.207,387.827 
													"/>
					</g>
					<path style="fill:#ED9935;" d="M415.192,308.792c0,0,14.883,32.736,29.765,43.47l-28.635,1.836L415.192,308.792z"/>
					<path style="fill:#97325D;" d="M431.93,282.469c-1.016-32.861-6.994-78.027-22.324-89.95
						c-7.747-6.026-30.897-12.932-40.71-13.113c0.587-6.252,2.963-15.578,2.108-21.799c-0.157-1.14-0.355-2.321-1.012-3.265
						c-1.182-1.697-3.467-2.151-5.527-2.336c-12.437-1.118-54.468,14.677-58.228,16.823c-1.31,0.748-2.642,1.702-3.125,3.131
						c-0.394,1.164-0.153,2.436,0.108,3.637c1.139,5.23,4.735,9.624,6.517,14.671c-14.731,6.475-40.09,24.032-45.449,32.887
						c-6.983,11.537-10.555,26.96-7.495,50.927c3.331,26.097,0.751,48.421-0.255,51.759c-1.27,4.211-1.024,4.904-4.133,8.015
						c-6.342,6.344-12.39,14.061-12.565,23.03c8.915,5.511,19.65,10.707,29.988,12.434c3.47-3.365,8.283-8.15,11.753-11.516
						c4.305-4.175,8.737-8.538,10.878-14.14c4.872-12.745-3.537-26.556-3.93-40.195c-0.513-17.77,12.321-34.303,11.108-51.285
						c3.009,18.011-0.748,36.175-2.931,54.305c-1.061,8.81-0.426,28.457,0.535,37.301l13.26,3.517
						c19.336-4.736,50.828-14.651,63.934-19.372c8.467-3.13,17.736-7.704,26.007-11.725c-0.179-4.97-0.314-9.976-0.646-14.86
						c-1.417-20.91-5.395-36.317-2.535-50.861c0.709,10.542,4.941,33.83,5.87,43.276c0.865,8.791,1.939,14.919,3.717,19.272
						c2.634-1.324,5.393-2.73,8.343-4.245c0,0,3.069,6.743,7.805,15.107c13.951,2.347,21.96,11.116,21.96,0.34
						C444.957,316.209,432.898,313.802,431.93,282.469z"/>
					<path style="fill:#872B57;" d="M280.392,234.976c5.454,0.905,11.302,2.088,16.844,1.284c2.005-0.291,4.073-0.924,5.771-2.046
						c1.463-0.966,2.626-2.37,2.817-2.868c0.493-1.285,0.378-1.716-0.137-3.395c-0.523-1.707-1.322-3.11-2.339-4.735
						c-2.685-4.29-6.285-7.986-9.869-11.527c-2.53-2.5-5.278-4.864-8.023-7.244c-9.659,6.705-18.293,13.96-21.169,18.711
						c-1.945,3.214-3.613,6.744-4.959,10.661C266.095,232.543,273.545,233.839,280.392,234.976z"/>
					<path style="fill:#872B57;" d="M399.796,301.349c-1.237-18.258-4.425-32.319-3.311-45.274c-0.206,0.462-0.429,0.931-0.682,1.41
						c-2.124,4.037-2.208,8.205-2.386,12.704c-0.341,8.593-2.132,17.032-5.421,24.987c-2.837,6.864-6.529,12.628-13.065,16.431
						c-7.017,4.082-15.413,5.73-23.189,6.836c-3.999,0.569-8.014,0.993-12.036,1.372c-6.556,0.619-14.467,1.991-20.767-1.603
						c-10.546-6.017-8.241-19.335-6.574-29.322c1.595-9.556,2.63-18.759,1.342-27.714c-1.026-7.136-7.608-12.002-14.762-11.108
						l-0.109,0.014c0.112,0.675,0.213,1.348,0.301,2.02c-0.009-0.159-0.008-0.318-0.02-0.478
						c3.009,18.011-0.231,36.734-2.414,54.864c-1.061,8.81-0.427,28.457,0.535,37.301l13.26,3.517
						c19.336-4.736,50.828-14.651,63.934-19.372c8.467-3.13,17.736-7.704,26.007-11.725
						C400.263,311.239,400.127,306.233,399.796,301.349z"/>
					<path style="fill:#872B57;" d="M352.795,205.292c6.978-0.877,12.043-7.034,12.302-8.563c0.259-1.53-16.166,2.215-15.92,0.965
						c1.319-6.714,17.908-12.743,21.541-18.185c-0.643-0.053-1.261-0.092-1.822-0.103c0.334-3.559,1.247-8.113,1.814-12.523
						c-0.765,0.87-1.543,1.728-2.335,2.573c-5.69,6.07-12.22,11.743-20.489,13.736c-14.107,3.399-31.558,0.225-44.549-7.122
						c1.225,4.942,4.554,9.169,6.306,13.965C321.075,203,332.653,207.824,352.795,205.292z"/>
					<path style="fill:#872B57;" d="M346.947,157.028c4.71-0.929,10.987-2.351,15.822-5.071c-6.511,0.099-18.221,3.237-29.332,6.803
						C338,158.471,342.537,157.897,346.947,157.028z"/>
					<path style="fill:#872B57;" d="M409.519,283.456c-0.703-13.678-1.696-27.216-2.731-40.87
						c-0.646-8.527-0.556-17.424,2.468-25.537c1.87-5.016,5.726-9.794,7.851-14.911c-2.206-4.131-4.696-7.437-7.503-9.62
						c-2.177-1.693-5.57-3.456-9.542-5.119c-0.582,8.606-5.269,17.918-8.034,25.188c-0.966,2.54-2.296,5.945-1.99,7.917
						c0.535,3.445,2.506,6.78,3.899,9.922c2.574,5.8,4.668,11.762,3.659,17.713c0.317,1.715,0.281,3.351-0.111,5.023
						c1.12,11.4,4.786,31.887,5.643,40.602c0.865,8.791,1.939,14.919,3.717,19.272c1.906-0.958,3.882-1.961,5.944-3.016
						C410.811,301.349,409.969,292.207,409.519,283.456z"/>
					<path style="fill:#ED9935;" d="M415.192,308.792l-15.17-4.317c0.202,4.402,0.331,8.438,0.42,11.734
						C405.381,313.794,410.3,311.314,415.192,308.792z"/>
					<g>
						<path style="fill:#F2BDB6;" d="M383.865,194.932c-1.217,4.824-1.97,10.597,1.474,14.188c2.592,2.702,6.909,3.167,10.456,1.967
							c3.547-1.2,6.449-3.783,8.994-6.53c3.237-3.494,6.186-7.652,6.51-12.404c0.238-3.5-0.992-6.958-2.71-10.017
							c-1.051-1.871-2.337-3.683-4.14-4.847c-2.307-1.489-5.189-1.752-7.934-1.683c-6.013,0.151-12.743,1.999-17.383,2.132
							c-4.132,0.118-4.366,1.245-4.108,2.324c4.789,0.781,9.177,1.997,12.909,3.071
							C387.187,186.757,384.721,191.537,383.865,194.932z"/>
						<g>
							<path style="fill:#F2BDB6;" d="M284.714,189.956c4.29,0.825,32.94,25.523,22.905,36.212
								c-10.035,10.689-30.541-6.763-34.249-6.763c-3.708,0-10.772,15.292-14.658,16.263c-3.885,0.971-10.866-25.425,4.187-37.205
								C267.262,195.191,279.042,188.865,284.714,189.956z"/>
							<path style="fill:#589BDD;" d="M195.738,240.102c0,0-29.746-28.391-43.27-42.175c-12.749-12.995-34.423,10.234-17.416,42.467
								c7.416,14.057,35.635,50.403,58.326,50.403s54.273-37.828,62.449-44.868c5.11-4.4,6.955-9.084,2.885-10.261
								c-7.048-2.038-3.591-30.279,7.922-39.649C239.839,199.609,195.738,240.102,195.738,240.102z"/>
						</g>
					</g>
					<path style="fill:#B24679;" d="M234.669,367.721c1.506,2.943,27.47,11.964,30.189,10.953c2.719-1.011,5.941-9.041,5.386-9.79
						c-0.333-0.45-12.34-1.416-26.203-9.937c-3.724-2.289-4.147-3.113-5.471-1.274C237.543,359.102,233.802,366.026,234.669,367.721
						z"/>
					<path style="fill:#B24679;" d="M307.471,185.322c16.189,1.09,42.816-18.534,54.126-19.907c3.665-0.445,7.01,1.667,9.121-1.361
						c1.691-2.426,2.311-8.386,2.052-11.332c-0.211-2.403-0.579-5.081-2.471-6.578c-1.793-1.417-4.332-1.266-6.594-0.936
						c-13.454,1.962-25.934,7.635-38.848,11.586c-6.384,1.954-13.134,2.438-19.46,4.358c-4.337,1.316-6.935,4.223-6.641,8.876
						C299.039,174.514,303.205,185.035,307.471,185.322z"/>
					<path style="fill:#872B57;" d="M363.571,151.095c1.02-0.526,2.22-1.491,1.789-2.555c-0.329-0.812-1.393-0.984-2.269-0.958
						c-3.914,0.117-7.608,1.714-11.24,3.177c-13.022,5.242-26.622,9.047-40.474,11.324c-2.737,0.45-8.843,3.437-4.295,6.187
						c3.227,1.952,9.746,0.276,13.187-0.293c9.812-1.624,19.182-5.219,28.176-9.374
						C353.555,156.242,358.569,153.676,363.571,151.095z"/>
					<path style="fill:none;stroke:#872B57;stroke-miterlimit:10;" d="M346.766,309.314c15.691-12.165,28.194-28.408,35.939-46.689"
						/>
					<path style="fill:none;stroke:#872B57;stroke-miterlimit:10;" d="M359.823,308.598c8.599-9.123,16.415-18.983,23.335-29.436"/>
				</g>
			</g>
		</g>
	</g>
</g>
</svg>
