<?xml version="1.0" encoding="utf-8"?>
<!-- Generator: Adobe Illustrator 27.5.0, SVG Export Plug-In . SVG Version: 6.00 Build 0)  -->
<svg version="1.1" xmlns="http://www.w3.org/2000/svg" xmlns:xlink="http://www.w3.org/1999/xlink" x="0px" y="0px"
	 viewBox="0 0 5000 6500" style="enable-background:new 0 0 5000 6500;" xml:space="preserve">
<g id="kvillustr_x5F_v_x5F_09092020_x5F_244">
	<g>
		<path style="fill:#985463;" d="M1124.067,2341.588c0,0,115.909,2575.507,148.719,2886.828
			c32.812,311.322,780.191,454.839,1354.445,455.452c846.087,0.902,1428.372-178.721,1480.259-438.155
			c51.888-259.435,69.184-3081.177,69.184-3081.177s121.07-516.315-700.473-516.315
			C2654.657,1648.221,1106.045,1947.363,1124.067,2341.588z"/>
		<path style="fill:#AD5F71;" d="M4068.236,5332.756c19.94-27.835,33.225-56.892,39.256-87.043
			c8.643-43.229,16.328-157.666,23.133-318.269l-98.982,98.98l-196.985-196.984l196.985-196.986l105.955,105.955
			c4.757-146.514,9.009-315.116,12.795-494.443l-118.749,118.748l-196.987-196.984l196.985-196.986l121.831,121.83
			c3.258-170.536,6.128-347.528,8.635-522.034l-130.466,130.465l-196.985-196.986l196.985-196.986l132.29,132.291
			c1.22-90.527,2.343-179.741,3.372-266.37l-0.791-0.791l0.809-0.811c1.123-94.605,2.135-186.065,3.039-272.777l-138.718,138.719
			l-196.985-196.986l196.987-196.987l139.89,139.888c0.966-97.955,1.786-188.03,2.467-267.268l-7.488-7.49l7.618-7.617
			c1.027-120.455,1.722-214.604,2.124-271.863l-144.613,144.61l-196.985-196.986l196.985-196.985l150.073,150.07
			c8.089-102.038-11.44-385.916-461.006-461.002l176.065,176.062l-196.989,196.986l-196.983-196.986l181.592-181.595
			c-61.613-8.322-130.7-12.927-208.197-12.927c-16.029,0-32.428,0.154-48.993,0.38l-59.271,59.271l-56.09-56.091
			c-80.335,3.294-165.293,8.874-253.199,16.542l174.417,174.42l-196.984,196.986l-196.987-196.986l169.901-169.901
			c-173.009,16.44-356.117,40.768-537.592,71.949l97.954,97.952l-196.987,196.986l-196.985-196.986l51.437-51.437
			c-123.5,25.859-243.52,54.818-356.229,86.488l-161.932,161.933l-83.915-83.911c-69.328,24.994-133.587,51.176-191.279,78.458
			l140.321,140.323l-196.984,196.986l-181.851-181.848c-47.698,48.62-73.286,99.382-70.885,151.853c0,0,0.781,17.36,2.224,49.226
			l115.64,115.639l-105.545,105.545c5.823,126.888,13.398,290.686,22.03,474.649l83.515,83.516l-76.002,76.003
			c8.093,171.099,16.853,354.115,25.807,537.513l50.195,50.194l-45.504,45.505c4.251,86.436,8.524,172.489,12.775,256.963
			l167.601-167.599l196.984,196.986l-196.984,196.984l-164.477-164.474c4.966,98.049,9.881,193.507,14.659,284.398l14.947,14.946
			l-13.451,13.448c4.804,90.835,9.461,176.775,13.887,255.855l134.436-134.434l196.984,196.986l-196.984,196.984l-126.828-126.828
			c9.336,158.729,17.263,276.176,22.811,328.82c4.534,43.024,22.773,82.827,52.259,119.507l51.758-51.76l196.984,196.987
			l-14.02,14.021c117.13,50.459,261.346,89.743,416.101,118.322l-132.34-132.342l196.984-196.987l196.989,196.987l-150.76,150.757
			c79.776,11.835,161.2,20.995,242.202,27.541l43.427-43.428l49.826,49.825c69.742,3.941,138.557,5.953,205.037,6.023
			c23.674,0.024,47.105-0.113,70.358-0.368l-190.35-190.35l196.985-196.984l196.983,196.984l-190.195,190.194
			c97.558-1.301,191.309-5.068,280.861-11.121l44.205-44.203l37.94,37.94c84.842-7.282,165.474-16.727,241.61-28.133
			l-144.681-144.676l196.988-196.987l196.984,196.987l-123.183,123.182c158.094-30.432,292.355-70.304,398.148-117.954l-5.225-5.228
			l196.987-196.987L4068.236,5332.756z M3896.774,4497.584l-196.989,196.986l-196.983-196.986l196.983-196.985L3896.774,4497.584z
			 M2507.238,3502.019l196.985-196.986l196.983,196.986l-196.983,196.986L2507.238,3502.019z M2569.354,3833.874l-196.987,196.987
			l-196.985-196.987l196.985-196.986L2569.354,3833.874z M3036.078,3636.888l196.984,196.986l-196.984,196.987l-196.987-196.987
			L3036.078,3636.888z M3170.95,3502.019l196.985-196.986l196.984,196.986l-196.984,196.986L3170.95,3502.019z M3170.947,2838.309
			l196.988-196.987l196.984,196.987l-196.984,196.986L3170.947,2838.309z M3233.062,3170.165l-196.984,196.985l-196.987-196.986
			l196.987-196.985L3233.062,3170.165z M2704.223,3035.294l-196.985-196.985l196.985-196.987l196.983,196.987L2704.223,3035.294z
			 M2569.354,3170.164l-196.987,196.986l-196.985-196.985l196.985-196.986L2569.354,3170.164z M2040.51,3035.295l-196.984-196.986
			l196.984-196.987l196.989,196.987L2040.51,3035.295z M1905.642,3170.164l-196.983,196.986l-196.988-196.986l196.988-196.987
			L1905.642,3170.164z M2040.51,3305.033l196.989,196.986l-196.989,196.986l-196.984-196.986L2040.51,3305.033z M2237.499,4165.729
			l-196.989,196.985l-196.984-196.985l196.984-196.987L2237.499,4165.729z M2372.367,4300.599l196.987,196.985l-196.987,196.986
			l-196.985-196.986L2372.367,4300.599z M2507.238,4165.729l196.985-196.987l196.983,196.987l-196.983,196.985L2507.238,4165.729z
			 M3036.078,4300.599l196.984,196.985l-196.984,196.986l-196.987-196.986L3036.078,4300.599z M3170.947,4165.729l196.988-196.987
			l196.984,196.987l-196.984,196.985L3170.947,4165.729z M3896.774,3833.874l-196.989,196.986l-196.983-196.987l196.983-196.985
			L3896.774,3833.874z M3896.774,3170.164l-196.989,196.986l-196.983-196.986l196.983-196.985L3896.774,3170.164z
			 M3896.774,2506.453l-196.989,196.987l-196.983-196.987l196.983-196.986L3896.774,2506.453z M3367.934,1977.613l196.984,196.985
			l-196.984,196.986l-196.988-196.985L3367.934,1977.613z M3233.062,2506.453l-196.984,196.985l-196.987-196.985l196.987-196.986
			L3233.062,2506.453z M2704.223,1977.613l196.983,196.985l-196.983,196.986l-196.985-196.986L2704.223,1977.613z
			 M2569.354,2506.453l-196.987,196.985l-196.985-196.985l196.985-196.986L2569.354,2506.453z M2040.51,1977.613l196.989,196.986
			l-196.989,196.985l-196.984-196.986L2040.51,1977.613z M1708.659,2309.467l196.983,196.986l-196.983,196.987l-196.988-196.987
			L1708.659,2309.467z M1179.816,2838.309l196.987-196.987l196.984,196.987l-196.984,196.986L1179.816,2838.309z M1179.816,3502.019
			l196.987-196.986l196.984,196.986l-196.984,196.986L1179.816,3502.019z M1511.671,3833.874l196.988-196.986l196.983,196.986
			l-196.983,196.986L1511.671,3833.874z M1511.671,4497.584l196.988-196.985l196.983,196.985l-196.983,196.986L1511.671,4497.584z
			 M1708.659,5358.282l-196.988-196.988l196.988-196.985l196.983,196.985L1708.659,5358.282z M1843.527,4829.439l196.984-196.985
			l196.989,196.986l-196.989,196.984L1843.527,4829.439z M2372.367,5358.279l-196.985-196.985l196.985-196.985l196.987,196.985
			L2372.367,5358.279z M2507.238,4829.439l196.985-196.985l196.983,196.986l-196.983,196.984L2507.238,4829.439z M3036.078,5358.279
			l-196.987-196.985l196.987-196.985l196.984,196.985L3036.078,5358.279z M3170.947,4829.44l196.988-196.986l196.984,196.985
			l-196.984,196.985L3170.947,4829.44z M3699.786,5358.282l-196.983-196.988l196.983-196.985l196.989,196.985L3699.786,5358.282z"/>
		<path style="fill:#8F4B57;" d="M3949.646,2591.823c0,0-159.242,140.258-162.125,313.214
			c-2.882,172.955,200.3,1106.921,162.125,1233.755c-38.174,126.834,238.239,420.251-78.688,429.203
			c-316.928,8.954-332.003,0.075-576.363,0c-244.359-0.075-213.312,251.092-743.712,78.136
			c-530.4-172.957-514.319-599.582-735.673-588.051c-221.352,11.53-420.284,150.385-420.284,150.385l-69.929-969.045
			l432.911-719.405L3949.646,2591.823z"/>
		<path style="fill:#823F4E;" d="M3476.199,1648.221c-708.036,0-1955.991,222.203-2275.812,535.961
			c81.183,73.028,339.135,214.346,1091.905,149.485c996.539-85.865,1711.423-21.79,1884.38-169.131
			C4176.673,2164.536,4297.743,1648.221,3476.199,1648.221z"/>
		<path style="fill:#8F4B57;" d="M4174.088,2503.984c1.782-208.278,2.585-339.448,2.585-339.448s17.273-73.817-5.601-165.617
			c-10.619,0.06-21.213,0.113-32.328,0.317c-976.751,17.957-2443.995,36.064-2443.995,36.064l-227.728,616.067
			c57.655,80.713-19.419,519.781,227.728,351.758c247.147-168.022,1733.756-442.158,1917.586-431.55
			c183.832,10.609,290.367,47.168,425.972,0C4062.722,2563.084,4113.32,2538.46,4174.088,2503.984z"/>
		<path style="fill:#FA6F64;" d="M2877.245,1847.12c0,0,572.28-178.448,803.619-152.778
			c231.339,25.669,532.484,108.17,625.576,291.143c167.189,328.618-222.837,219.437-350.289,348.182
			c-127.45,128.745-479.953-58.95-479.953-58.95L2877.245,1847.12z"/>
		<path style="fill:#FA6F64;" d="M1357.483,1916.303c0,0-484.276,69.182-613.994,466.983
			c-129.718,397.798-112.422,639.938,0,735.064c112.421,95.126,294.025,195.213,294.025,195.213s-95.125,764.694,17.297,807.933
			s363.208,164.309,380.503,285.378c0,0,60.534-216.195,95.126-475.63c34.591-259.435,129.717-502.125,25.944-752.636
			c-103.775-250.51,441.038-968.278,441.038-1289.003L1357.483,1916.303z"/>
		<path style="fill:#EBAA9F;" d="M2723.839,4493.352c0,0,225.216,71.764,326.397,74.567
			c244.359,6.774,244.359-446.423,244.359-446.423l-466.981-121.07C2827.614,4000.427,2732.487,4372.283,2723.839,4493.352z"/>
		<path style="fill:#F9C4BA;" d="M3052.456,1518.504c0,0,423.744-100.892,553.461,553.461
			c62.423,314.89,164.309,2248.431,181.604,2317.613c0,0-302.674,122.448-622.643-38.227
			c-319.969-160.672-441.039,20.932-441.039,142c0,0-441.038-165.108-536.164-251.186c0,0-268.082-362.809-492.925-431.991
			c0,0,164.308-1202.047,172.956-1599.845c8.648-397.8-43.239-562.108-43.239-562.108L3052.456,1518.504z"/>
		<path style="fill:#EBAA9F;" d="M2870.852,1985.485c-43.238,0-198.899,1020.443-198.899,1020.443l-199.495,1385.971
			c129.455,55.797,251.382,101.453,251.382,101.453c0-8.902,0.739-18.15,2.078-27.547
			C2746.439,4193.322,2911.423,1985.485,2870.852,1985.485z"/>
		<path style="fill:#EBAA9F;" d="M2187.675,4242.166c0,0,69.182-1071.93,121.07-1374.602
			c51.886-302.674,69.183-691.826,86.478-466.983c17.296,224.844-103.774,1906.826-103.774,1906.826L2187.675,4242.166z"/>
		<path style="fill:#FFD0C7;" d="M2974.625,2435.173c0,0-172.956,1807.392-129.717,1772.801
			c43.238-34.591,25.943-192.813,129.717-182.884C3078.4,4035.019,3045.789,2228.246,2974.625,2435.173z"/>
		<path style="fill:#FFD0C7;" d="M1893.649,2582.185c0,0-86.477,961.203-77.83,1051.357c8.648,90.155,86.478,98.803,121.07,150.69
			C1971.478,3836.118,1960.405,2436.725,1893.649,2582.185z"/>
		<path style="fill:#8F4B57;" d="M2545.588,845.575c-135.175-109.855-399.156,110.029-414.165,291.219
			c-15.008,181.19,380.261,264.277,380.261,264.277l181.492,6.366C2693.177,1407.437,2823.786,1071.662,2545.588,845.575z
			 M2317.489,1131.781c-60.954-71.362-29.518-145.252,119.639-220.785c149.157-75.53,188.528,398.83,188.528,398.83
			S2378.445,1203.146,2317.489,1131.781z"/>
		<path style="fill:#D9584D;" d="M1037.514,3313.564c0,0-2.97-954.136,128.786-1169.535c0,0-312.728,668.982-283.691,1075.705
			C882.609,3219.734,995.903,3338.211,1037.514,3313.564z"/>
		<path style="fill:#F06459;" d="M1305.598,2832.972c0,0,285.377,380.504,207.547,553.46c-77.83,172.956-95.125,233.491-172.957,0
			C1262.359,3152.941,1231.299,2722.8,1305.598,2832.972z"/>
		<path style="fill:#985463;" d="M1316.563,2119.08c0,0-225.639,71.937-228.486-8.014c-2.848-79.952-71.301-407.648,322.157-523.644
			c393.46-115.998,1370.426-468.777,2673.107-226.41c171.94,31.991,155.417,256.393,161.634,325.836
			c6.218,69.443-1092.29,56.873-1744.114,137.849C1849.036,1905.672,1316.563,2119.08,1316.563,2119.08z"/>
		<path style="fill:#F06459;" d="M3873.999,2059.001c50.155,23.961-15.365,234.291,95.125,198.89
			c445.362-142.688-117.282-434.867-203.224-354.56C3742.765,1924.951,3797.495,2022.451,3873.999,2059.001z"/>
		<path style="fill:#8F4B57;" d="M1316.564,2119.078c0,0,532.474-213.407,1184.299-294.382
			c590.163-73.316,1546.456-69.948,1717.495-120.197c-11.519-4.436-23.292-8.688-35.411-12.683
			c-812.387-267.725-2480.483,139.329-2788.021,222.925c-302.425,82.205-82.041-281.049-70.248-295.512
			c-297.061,135.18-239.221,418.282-236.602,491.837C1090.922,2191.017,1316.564,2119.078,1316.564,2119.078z"/>
	</g>
</g>
<g>
</g>
</svg>
