<svg version="1.1" id="Capa_1" xmlns="http://www.w3.org/2000/svg" xmlns:xlink="http://www.w3.org/1999/xlink" x="0px" y="0px" viewBox="0 0 409.6 409.6" style="enable-background:new 0 0 409.6 409.6;" xml:space="preserve" width="300" height="300" xmlns:svgjs="http://svgjs.dev/svgjs"><g width="100%" height="100%" transform="matrix(1,0,0,1,0,0)"><g>
	<g>
		<path d="M326.733,255.831c-0.435,0.435-0.819,0.937-1.249,1.372L204.8,371.231L84.833,257.899c-0.671-0.671-1.234-1.398-1.9-2.099&#10;&#9;&#9;&#9;C32.701,271.365,0,296.202,0,324.265C0,371.4,91.699,409.6,204.8,409.6c113.137,0,204.8-38.2,204.8-85.335&#10;&#9;&#9;&#9;C409.6,296.202,376.934,271.365,326.733,255.831z" fill="#054d10" fill-opacity="1" data-original-color="#000000ff" stroke="none" stroke-opacity="1"/>
	</g>
</g><g>
	<g>
		<path d="M341.315,136.53C341.315,61.199,280.212,0,204.8,0C129.434,0.031,68.265,61.128,68.265,136.566&#10;&#9;&#9;&#9;c0,37.663,15.283,71.798,40.003,96.502l96.532,91.197l96.548-91.233c24.699-24.663,39.987-58.798,39.987-96.502H341.315z&#10;&#9;&#9;&#9; M204.8,204.8c-37.714,0-68.265-30.536-68.265-68.27c0-37.699,30.551-68.265,68.265-68.265c37.699,0,68.265,30.566,68.265,68.265&#10;&#9;&#9;&#9;C273.065,174.264,242.499,204.8,204.8,204.8z" fill="#054d10" fill-opacity="1" data-original-color="#000000ff" stroke="none" stroke-opacity="1"/>
	</g>
</g><g>
</g><g>
</g><g>
</g><g>
</g><g>
</g><g>
</g><g>
</g><g>
</g><g>
</g><g>
</g><g>
</g><g>
</g><g>
</g><g>
</g><g>
</g></g></svg>