<?xml version="1.0" encoding="utf-8"?>
<!-- Generator: Adobe Illustrator 27.5.0, SVG Export Plug-In . SVG Version: 6.00 Build 0)  -->
<svg version="1.1" xmlns="http://www.w3.org/2000/svg" xmlns:xlink="http://www.w3.org/1999/xlink" x="0px" y="0px"
	 viewBox="0 0 2200 2200" style="enable-background:new 0 0 2200 2200;" xml:space="preserve">
<g id="background">
	<rect y="0" style="fill:#FFFFFF;" width="2200" height="2200"/>
</g>
<g id="Objects">
	<g>
		<ellipse style="fill:#DDDDDD;" cx="1102.318" cy="1892.813" rx="126.309" ry="52.066"/>
		<g>
			<path style="fill:#C6C6C6;" d="M1186.158,965.347l-29.375,887.002c-1.039,31.353-27.308,55.935-58.661,54.896
				c-30.035-0.994-53.857-25.308-54.907-54.896l-29.375-887.002H1186.158z"/>
			<path style="fill:#ADADAD;" d="M1186.163,965.347l-6.679,201.714l-22.697,685.293c-1.048,31.351-27.311,55.932-58.662,54.894
				c-22.767-0.756-41.959-14.9-50.371-34.584c5.178,1.773,10.699,2.821,16.451,3.012c31.351,1.037,57.614-23.543,58.662-54.904
				l21.478-648.834c-14.638,1.451-29.437,2.176-44.336,2.176c-26.948,0-53.524-2.377-79.495-7.052l-6.679-201.714H1186.163z"/>
			<path style="fill:#E23D3D;" d="M1544.325,699.439c0,118.685-46.224,230.269-130.145,314.19
				c-83.921,83.921-195.505,130.129-314.174,130.129c-118.685,0-230.269-46.208-314.19-130.129
				c-83.921-83.921-130.144-195.505-130.144-314.19c0-118.685,46.224-230.253,130.144-314.174
				c83.921-83.921,195.505-130.145,314.19-130.145c118.669,0,230.253,46.224,314.174,130.145
				C1498.101,469.186,1544.325,580.754,1544.325,699.439z"/>
			<path style="fill:#BF3636;" d="M1544.328,699.44c0,118.683-46.23,230.264-130.148,314.192
				c-83.917,83.917-195.509,130.128-314.172,130.128c-118.683,0-230.274-46.21-314.192-130.128
				c-59.468-59.478-100.016-132.848-118.583-212.786c19.786,43.732,47.54,83.968,82.497,118.915
				c76.201,76.201,177.526,118.159,285.299,118.159c107.753,0,209.078-41.959,285.279-118.159
				c76.211-76.201,118.18-177.526,118.18-285.299s-41.969-209.078-118.18-285.279c-34.947-34.957-75.183-62.711-118.915-82.497
				c79.948,18.567,153.318,59.105,212.786,118.583C1498.098,469.186,1544.328,580.757,1544.328,699.44z"/>
			<path style="fill:#F46D5B;" d="M1105.781,326.671v60.518c0,10.594-8.315,19.274-18.894,19.839
				c-142.468,7.605-262.243,100.699-308.951,228.91c-5.415,14.864-20.764,23.643-36.296,20.637h0
				c-17.783-3.441-29.17-20.898-25.227-38.577c38.327-171.838,187.505-301.88,368.577-311.178
				C1096.31,306.238,1105.781,315.336,1105.781,326.671z"/>
			<path style="fill:#D8D6D6;" d="M1082.16,1805.362c-10.887,0-19.849-8.682-20.131-19.629l-6.695-259.762
				c-0.287-11.124,8.498-20.375,19.622-20.661c0.177-0.005,0.354-0.007,0.529-0.007c10.887,0,19.849,8.682,20.131,19.629
				l6.695,259.762c0.287,11.124-8.498,20.375-19.622,20.661C1082.512,1805.36,1082.335,1805.362,1082.16,1805.362z"/>
		</g>
	</g>
</g>
</svg>
