<?xml version="1.0" encoding="utf-8"?>
<!-- Generator: Adobe Illustrator 27.5.0, SVG Export Plug-In . SVG Version: 6.00 Build 0)  -->
<svg version="1.1" id="Layer_1" xmlns="http://www.w3.org/2000/svg" xmlns:xlink="http://www.w3.org/1999/xlink" x="0px" y="0px"
	 viewBox="0 0 5000 3000" style="enable-background:new 0 0 5000 3000;" xml:space="preserve">
<g>
	<g>
		<defs>
			<rect id="SVGID_1_" x="0.001" width="5000.001" height="3000"/>
		</defs>
		<clipPath id="SVGID_00000036939977232569775460000013639933020678675110_">
			<use xlink:href="#SVGID_1_"  style="overflow:visible;"/>
		</clipPath>
		
			<path style="clip-path:url(#SVGID_00000036939977232569775460000013639933020678675110_);fill-rule:evenodd;clip-rule:evenodd;fill:#EBF2FA;" d="
			M1526.385,2427.383c-726.665-173.353-540.884-905.337-132.508-1118.229c-57.297-441.077,246.342-772.331,691.618-504.165
			c127.562,54.205,232.548,56.522,323.186,6.463c598.407-429.761,1317.312-263.218,1186.108,368.435
			c-14.943,85.462-11.088,161.324,71.098,197.14c592.633,394.672,235.832,1050.356-452.445,1050.356H1526.385z"/>
		
			<path style="clip-path:url(#SVGID_00000036939977232569775460000013639933020678675110_);fill-rule:evenodd;clip-rule:evenodd;fill:#785473;" d="
			M1526.385,2427.383c-293.632-70.049-438.225-231.323-479.399-412.695h2888.111c-87.941,230.287-358.653,412.695-721.655,412.695
			H1526.385z"/>
		
			<path style="clip-path:url(#SVGID_00000036939977232569775460000013639933020678675110_);fill-rule:evenodd;clip-rule:evenodd;fill:#FF9E8A;" d="
			M1980.779,1865.54l19.334,148.602l-322.815-1.236c-325.964-0.002-437.02-641.398,84.406-697.762
			c168.774,32.434,180.57,183.803,60.679,259.149C1669.384,1620.378,1493.037,1813.886,1980.779,1865.54"/>
		
			<path style="clip-path:url(#SVGID_00000036939977232569775460000013639933020678675110_);fill-rule:evenodd;clip-rule:evenodd;fill:#00123B;" d="
			M1909.747,782.406c-105.53-2.659-192.674,95.829-191.789,191.792c0,105.919,85.871,191.789,191.789,191.789
			c105.924,0,191.792-85.871,191.792-191.789C2101.539,868.274,2015.276,785.065,1909.747,782.406"/>
		
			<path style="clip-path:url(#SVGID_00000036939977232569775460000013639933020678675110_);fill-rule:evenodd;clip-rule:evenodd;fill:#00123B;" d="
			M1742.355,715.93c-49.683,0-89.958,40.275-89.958,89.96c0,49.683,40.275,89.958,89.958,89.958c49.685,0,89.96-40.275,89.96-89.958
			C1832.315,756.205,1792.04,715.93,1742.355,715.93"/>
		
			<path style="clip-path:url(#SVGID_00000036939977232569775460000013639933020678675110_);fill-rule:evenodd;clip-rule:evenodd;fill:#FF9E8A;" d="
			M1850.138,1086.879v182.839l-170.319,391.536l488.324,54.708l-138.899-446.244v-115.586
			c76.998-48.906,101.038-139.58,67.173-224.026c-60.003-6.51-117.916-19.637-172.005-44.865
			c-8.402,45.42-34.356,76.569-74.273,96.369C1727.353,984.265,1748.251,1094.704,1850.138,1086.879"/>
		
			<polygon style="clip-path:url(#SVGID_00000036939977232569775460000013639933020678675110_);fill-rule:evenodd;clip-rule:evenodd;fill:#FF9E8A;" points="
			2254.64,1628.343 2443.224,1876.093 2594.59,1720.359 2254.64,1311.31 2024.053,1420.282 		"/>
		
			<path style="clip-path:url(#SVGID_00000036939977232569775460000013639933020678675110_);fill-rule:evenodd;clip-rule:evenodd;fill:#2140FF;" d="
			M2029.243,1231.628c73.317-15.714,248.1,22.988,248.1,137.88l45.771,613.611c0.73,19.445-5.668,32.086-34.035,32.366
			l-700.118-2.689c-20.998,0-36.253-12.711-32.692-29.677l45.77-613.611c0-114.893,174.782-153.595,248.1-137.88
			C1898.187,1585.004,1981.147,1633.211,2029.243,1231.628"/>
		
			<path style="clip-path:url(#SVGID_00000036939977232569775460000013639933020678675110_);fill-rule:evenodd;clip-rule:evenodd;fill:#FF7359;" d="
			M2029.243,1154.132c-50.002,9.794-97.131,1.18-140.304-32.892c30.493,51.066,81.529,68.124,140.304,72.372
			C2029.243,1180.453,2029.243,1167.293,2029.243,1154.132"/>
		
			<path style="clip-path:url(#SVGID_00000036939977232569775460000013639933020678675110_);fill-rule:evenodd;clip-rule:evenodd;fill:#FF9E8A;" d="
			M1919.685,1865.54l3.155,148.541l267.444,1.025c-1.072-1.819-2.218-5.688-3.454-7.595c6.13-14.272-1.616-31.449-21.143-51.093
			C2165.158,1870.782,2032.472,1874.921,1919.685,1865.54"/>
		
			<path style="clip-path:url(#SVGID_00000036939977232569775460000013639933020678675110_);fill-rule:evenodd;clip-rule:evenodd;fill:#FF9E8A;" d="
			M1922.84,2014.081l-306.842-1.178c-15.798-0.054-31.299-1.51-46.796-4.61c-9.757-5.149-15.22-14.286-12.935-25.173
			l-31.047-141.898l50.305-116.271c4.002,58.22,109.843,115.773,344.159,140.589l52.531,91.688L1922.84,2014.081z"/>
		<path style="clip-path:url(#SVGID_00000036939977232569775460000013639933020678675110_);fill:#591A38;" d="M2020.692,969.287
			c1.477,25.727-1.471,46.629,24.933,62.465l3.501,2.1l-3.452,2.185l-22.091,11.007l16.059-13.139
			C2014.432,1016.919,2022.151,994.79,2020.692,969.287"/>
		
			<path style="clip-path:url(#SVGID_00000036939977232569775460000013639933020678675110_);fill-rule:evenodd;clip-rule:evenodd;fill:#591A38;" d="
			M1916.937,963.509c12.563-25.226,45.384-47.227,77.752-3.414C1966.615,937.862,1940.809,940.21,1916.937,963.509"/>
		
			<path style="clip-path:url(#SVGID_00000036939977232569775460000013639933020678675110_);fill-rule:evenodd;clip-rule:evenodd;fill:#591A38;" d="
			M2123.728,963.509c-12.563-25.226-45.384-47.227-77.753-3.414C2074.049,937.862,2099.854,940.21,2123.728,963.509"/>
		
			<path style="clip-path:url(#SVGID_00000036939977232569775460000013639933020678675110_);fill-rule:evenodd;clip-rule:evenodd;fill:#591A38;" d="
			M1991.011,1008.708c-15.442-33.948-46.816-43.307-54.639,6.83C1948.813,977.562,1967.359,977.333,1991.011,1008.708"/>
		
			<path style="clip-path:url(#SVGID_00000036939977232569775460000013639933020678675110_);fill-rule:evenodd;clip-rule:evenodd;fill:#591A38;" d="
			M2049.653,1008.708c15.444-33.948,46.816-43.307,54.639,6.83C2091.851,977.562,2073.305,977.333,2049.653,1008.708"/>
		
			<path style="clip-path:url(#SVGID_00000036939977232569775460000013639933020678675110_);fill-rule:evenodd;clip-rule:evenodd;fill:#FFFFFF;" d="
			M1985.938,1056.185c3.831,16.331,19.836,33.563,44.58,12.604C2011.213,1077.832,1996.583,1072.945,1985.938,1056.185"/>
		
			<path style="clip-path:url(#SVGID_00000036939977232569775460000013639933020678675110_);fill-rule:evenodd;clip-rule:evenodd;fill:#FCC200;" d="
			M2926.854,1239.681c-24.487,11.033-45.17,27.763-61.64,50.814c-72.777,91.054-145.555,182.106-218.335,273.161l-212.573-4.037
			c119.788,495.72,211.453,454.267,465.422,234.841C2908.771,1609.534,2917.813,1424.607,2926.854,1239.681"/>
		
			<path style="clip-path:url(#SVGID_00000036939977232569775460000013639933020678675110_);fill-rule:evenodd;clip-rule:evenodd;fill:#FCC200;" d="
			M3056.731,1210.1l-92.204,17.037c-49.426,10.303-81.522,36.141-92.201,81.179l26.644,712.123h593.878L3451.509,1510
			c-14.152-232.605-47.675-292.133-152.229-288.863l-44.582,9.039l-197.951,119.242L3056.731,1210.1z"/>
		
			<polygon style="clip-path:url(#SVGID_00000036939977232569775460000013639933020678675110_);fill-rule:evenodd;clip-rule:evenodd;fill:#FCC200;" points="
			3034.586,1929.368 2996.074,1221.31 3056.731,1221.306 3056.744,1349.416 3254.697,1230.176 		"/>
		
			<polygon style="clip-path:url(#SVGID_00000036939977232569775460000013639933020678675110_);fill-rule:evenodd;clip-rule:evenodd;fill:#FCC200;" points="
			3056.746,1349.416 3056.733,1181.979 2999.069,1196.008 		"/>
		
			<path style="clip-path:url(#SVGID_00000036939977232569775460000013639933020678675110_);fill-rule:evenodd;clip-rule:evenodd;fill:#2B2B2B;" d="
			M3277.722,927.081c24.229-128.557-3.05-192.719-95.688-175.169c-46.577-61.076-165.417-146.725-256.939-37.443
			c-147.797,35.146-164.021,194.201-27.528,231.498c77.164,19.908,154.331,39.817,231.496,59.725
			C3178.616,979.488,3228.167,953.284,3277.722,927.081"/>
		
			<path style="clip-path:url(#SVGID_00000036939977232569775460000013639933020678675110_);fill-rule:evenodd;clip-rule:evenodd;fill:#FFB8B8;" d="
			M3034.462,1174.667c7.792,64.109,15.582,128.223,23.372,192.33c65.619-45.605,131.242-91.215,196.863-136.82
			c-7.863-64.744-15.727-129.486-23.591-194.228c126.819-45.418,38.133-191.244-52.437-78.683
			c-22.652-11.745-26.174-39.512-24.363-71.75c-83.059-59.636-271.747-133.529-259.737,35.077
			c5.978,50.594,11.954,101.188,17.932,151.782C2922.995,1134.17,2959.785,1171.82,3034.462,1174.667"/>
		
			<path style="clip-path:url(#SVGID_00000036939977232569775460000013639933020678675110_);fill-rule:evenodd;clip-rule:evenodd;fill:#FFA6A6;" d="
			M3034.462,1174.667c1.55,12.772,3.104,25.545,4.655,38.318c50.083-8.557,94.915-28.192,123.258-82.609
			C3122.653,1162.51,3079.063,1171.597,3034.462,1174.667"/>
		
			<polygon style="clip-path:url(#SVGID_00000036939977232569775460000013639933020678675110_);fill-rule:evenodd;clip-rule:evenodd;fill:#FFC2AB;" points="
			2603.032,1565.465 2580.139,1488.82 2493.399,1501.365 2497.202,1581.832 2473.219,1615.926 2552.865,1631.746 2616.692,1589.742 
					"/>
		
			<path style="clip-path:url(#SVGID_00000036939977232569775460000013639933020678675110_);fill-rule:evenodd;clip-rule:evenodd;fill:#FF4778;" d="
			M2739.739,2020.438l-11.914-302.641c-1.699-105.023-51.361-144.995-124.793-152.333c-9.884,33.425-107.224,52.241-105.831,16.367
			c-47.363,14.807-90.112,38.826-101.469,110.197c-13.094,109.471-26.188,218.938-39.28,328.409H2739.739z"/>
		
			<path style="clip-path:url(#SVGID_00000036939977232569775460000013639933020678675110_);fill-rule:evenodd;clip-rule:evenodd;fill:#001426;" d="
			M2742.547,1378.015c45.984-103.896-2.594-201.636-61.191-199.733c-128.093-79.867-325.76-32.746-311.243,137.612l239.231,159.699
			L2742.547,1378.015z"/>
		
			<path style="clip-path:url(#SVGID_00000036939977232569775460000013639933020678675110_);fill-rule:evenodd;clip-rule:evenodd;fill:#FFC2AB;" d="
			M2677.793,1468.097c142.939,1.992,75.179-167.261-9.818-59.464c-26.756,28.558-35.802,24.544-21.822-21.822
			c2.84-17.143,0.652-32.874-21.277-43.093c-74.19-31.098-56.734-140.204-142.383-153.843
			c-63.035,12.668-98.808,56.614-112.38,126.019C2300.811,1583.797,2552.865,1631.746,2677.793,1468.097"/>
		
			<path style="clip-path:url(#SVGID_00000036939977232569775460000013639933020678675110_);fill-rule:evenodd;clip-rule:evenodd;fill:#FCAB94;" d="
			M2595.076,1538.831c-32.494,16.994-66.746,24.876-98.792,23.575l0.917,19.426
			C2497.202,1581.832,2550.262,1582.424,2595.076,1538.831"/>
		
			<polygon style="clip-path:url(#SVGID_00000036939977232569775460000013639933020678675110_);fill-rule:evenodd;clip-rule:evenodd;fill:#FF4778;" points="
			2413.449,1784.306 2305.396,1926.258 2218.67,1837.028 2413.449,1602.659 2545.568,1665.096 		"/>
		
			<path style="clip-path:url(#SVGID_00000036939977232569775460000013639933020678675110_);fill-rule:evenodd;clip-rule:evenodd;fill:#78BDFF;" d="
			M2369.579,1698.944l-64.183,227.313c-39.831,76.646-157.3,31.6-114.611-67.238l135.813-200.188L2369.579,1698.944z"/>
		
			<path style="clip-path:url(#SVGID_00000036939977232569775460000013639933020678675110_);fill:none;stroke:#000000;stroke-width:0.5669;stroke-miterlimit:22.9256;" d="
			M2444.345,1573.867h-18.911c-6.724,0-12.226,5.501-12.226,12.225c0,6.725,5.501,12.226,12.226,12.226h18.911
			c6.724,0,12.225-5.501,12.225-12.226C2456.57,1579.368,2451.069,1573.867,2444.345,1573.867z"/>
		
			<path style="clip-path:url(#SVGID_00000036939977232569775460000013639933020678675110_);fill-rule:evenodd;clip-rule:evenodd;fill:#1F1A17;" d="
			M2358.23,1565.924c-15.779-7.541-46.968-23.883-51.786-39.256l3.286-5.21l12.354,7.747l-2.905,4.643
			c9.302,10.963,24.076,20.838,40.466,29.356c1.217-0.971,2.962-1.121,4.356-0.248c1.768,1.104,2.305,3.435,1.199,5.202
			c-1.105,1.768-3.435,2.305-5.203,1.198C2358.782,1568.598,2358.149,1567.259,2358.23,1565.924"/>
		
			<path style="clip-path:url(#SVGID_00000036939977232569775460000013639933020678675110_);fill-rule:evenodd;clip-rule:evenodd;fill:#544D4D;" d="
			M2446.099,1598.161l0.757,4.364l-4.848,2.179c-40.64-22.829-82.123-48.372-121.637-73.712
			c-8.638-6.297-15.421-12.751-13.566-19.937l62.86,33.583L2446.099,1598.161z"/>
		
			<polygon style="clip-path:url(#SVGID_00000036939977232569775460000013639933020678675110_);fill-rule:evenodd;clip-rule:evenodd;fill:#EDF0F2;" points="
			2369.98,1550.562 2364.058,1560.03 2374.33,1566.453 2380.25,1556.982 2377.646,1551.243 		"/>
		
			<polygon style="clip-path:url(#SVGID_00000036939977232569775460000013639933020678675110_);fill-rule:evenodd;clip-rule:evenodd;fill:#EDF0F2;" points="
			2410.994,1576.209 2407.439,1580.131 2405.633,1584.782 2413.158,1589.492 2418.521,1580.914 2416.682,1577.197 		"/>
		
			<path style="clip-path:url(#SVGID_00000036939977232569775460000013639933020678675110_);fill-rule:evenodd;clip-rule:evenodd;fill:#EDF0F2;" d="
			M2410.994,1576.209l-5.229,8.361c-0.382,0.61-1.192,0.796-1.8,0.415c-0.61-0.38-0.797-1.19-0.415-1.801l5.229-8.361l2.665-1.16
			L2410.994,1576.209z"/>
		
			<path style="clip-path:url(#SVGID_00000036939977232569775460000013639933020678675110_);fill-rule:evenodd;clip-rule:evenodd;fill:#787373;" d="
			M2451.462,1601.514l-0.378,4.059l-3.922,2.98c-2.621,1.913-4.039-0.429-5.153-3.849l4.091-6.543L2451.462,1601.514z"/>
		
			<polygon style="clip-path:url(#SVGID_00000036939977232569775460000013639933020678675110_);fill-rule:evenodd;clip-rule:evenodd;fill:#8C8C8A;" points="
			2447.161,1608.553 2471.327,1616.543 2471.569,1616.154 2472.753,1615.711 2472.497,1614.669 2467.368,1610.141 
			2451.462,1601.514 		"/>
		
			<path style="clip-path:url(#SVGID_00000036939977232569775460000013639933020678675110_);fill-rule:evenodd;clip-rule:evenodd;fill:#4F4747;" d="
			M2472.497,1614.669l2.106,0.693l1.383,1.487c-0.502,0.806-1.573,1.052-2.378,0.55l-2.026-1.266L2472.497,1614.669z"/>
		
			<path style="clip-path:url(#SVGID_00000036939977232569775460000013639933020678675110_);fill-rule:evenodd;clip-rule:evenodd;fill:#1F1A17;" d="
			M2446.099,1598.161l4.092-6.543c-38.316-26.544-79.441-52.659-119.523-77.094c-9.442-5.011-18.215-8.284-23.862-3.469
			L2446.099,1598.161z"/>
		
			<rect x="2372.491" y="1542.98" transform="matrix(0.5303 -0.8478 0.8478 0.5303 -196.3465 2743.6543)" style="clip-path:url(#SVGID_00000036939977232569775460000013639933020678675110_);fill-rule:evenodd;clip-rule:evenodd;fill:#ADB5BD;" width="11.17" height="12.114"/>
		
			<polygon style="clip-path:url(#SVGID_00000036939977232569775460000013639933020678675110_);fill-rule:evenodd;clip-rule:evenodd;fill:#ADB5BD;" points="
			2410.994,1576.209 2413.604,1570.774 2416.356,1567.631 2423.884,1572.341 2418.521,1580.914 		"/>
		
			<path style="clip-path:url(#SVGID_00000036939977232569775460000013639933020678675110_);fill-rule:evenodd;clip-rule:evenodd;fill:#524D4D;" d="
			M2451.462,1601.514l5.302-1.766l-0.856-5.182c0.572-3.194-2.154-3.445-5.717-2.948l-4.092,6.543L2451.462,1601.514z"/>
		
			<polygon style="clip-path:url(#SVGID_00000036939977232569775460000013639933020678675110_);fill-rule:evenodd;clip-rule:evenodd;fill:#6B6B69;" points="
			2455.907,1594.566 2473.668,1612.795 2472.497,1614.669 2451.462,1601.514 		"/>
		
			<path style="clip-path:url(#SVGID_00000036939977232569775460000013639933020678675110_);fill-rule:evenodd;clip-rule:evenodd;fill:#21171A;" d="
			M2472.497,1614.669l3.489,2.181c0.504-0.806,0.258-1.875-0.547-2.378l-2.024-1.268L2472.497,1614.669z"/>
		
			<path style="clip-path:url(#SVGID_00000036939977232569775460000013639933020678675110_);fill-rule:evenodd;clip-rule:evenodd;fill:#A8B3BA;" d="
			M2410.994,1576.209l5.231-8.362c0.38-0.61,0.193-1.42-0.417-1.803c-0.608-0.38-1.418-0.193-1.8,0.417l-5.229,8.362
			L2410.994,1576.209z"/>
		
			<path style="clip-path:url(#SVGID_00000036939977232569775460000013639933020678675110_);fill-rule:evenodd;clip-rule:evenodd;fill:#FFC2AB;" d="
			M2326.598,1658.832l28.27-54.822l9.55-40.879l51.955-28.846c3.591-1.963,7.396-2.144,9.552,0.191
			c6.622,7.959,13.245,15.918,19.867,23.877c1.687,4.421,1.753,8.124-1.146,10.507c-0.415,5.794-0.828,11.588-1.243,17.383
			c-0.271,2.398-1.036,3.906-2.578,4.012c1.113,4.742,2.228,9.487,3.343,14.229c-0.62,6.023-5.174,8.624-11.653,9.552
			c2.094,28.264,7.306,23.783-18.148,33.235c-11.643,32.121-7.169,27.615-34.383,48.139c-3.11,2.133-6.53,3.442-10.404,3.534
			L2326.598,1658.832z"/>
		<path style="clip-path:url(#SVGID_00000036939977232569775460000013639933020678675110_);fill:#ED7375;" d="M2401.7,1581.049
			c-0.619,0-1.123,0.504-1.123,1.125c0,0.62,0.504,1.125,1.123,1.125c2.659,0,5.464-0.037,7.906-0.067
			c13.295-0.171,14.64-0.188,30.709,8.021c0.549,0.28,1.225,0.063,1.507-0.488c0.281-0.55,0.062-1.225-0.488-1.506
			c-7.308-3.735-11.662-5.814-15.434-6.962c6.438-3.082,8.262-8.012,8.269-8.028c0.22-0.578-0.069-1.227-0.646-1.444
			c-0.575-0.222-1.225,0.067-1.446,0.645c-0.004,0.015-2.039,5.524-10.079,7.929c-3.328-0.521-6.87-0.476-12.418-0.404
			C2407.521,1581.019,2405.143,1581.049,2401.7,1581.049 M2420.403,1621.088c0.236-0.572-0.039-1.227-0.608-1.463
			c-0.572-0.234-1.227,0.041-1.463,0.61c-0.012,0.032-4.602,11.678-13.529-0.616c-0.362-0.499-1.066-0.61-1.566-0.248
			c-0.501,0.361-0.613,1.065-0.25,1.566c3.906,5.383,7.192,7.069,9.816,6.972c1.532,14.702,13.57,10.826,13.603,10.815
			c0.586-0.195,0.905-0.83,0.71-1.416c-0.193-0.584-0.828-0.903-1.414-0.71c-0.026,0.009-9.546,3.07-10.7-9.214
			C2418.548,1625.783,2420.395,1621.112,2420.403,1621.088z M2397.505,1597.138c-0.596-0.163-1.213,0.189-1.373,0.785
			c-0.163,0.597,0.187,1.213,0.785,1.375l32.473,8.883c0.598,0.161,1.212-0.188,1.375-0.785c0.163-0.596-0.189-1.213-0.785-1.373
			L2397.505,1597.138z M2419.848,1556.567l-6.433-0.017l4.596-5.3c0.069,1.175,0.287,2.232,0.645,3.177
			C2418.957,1555.221,2419.357,1555.935,2419.848,1556.567z M2396.876,1556.511c-0.616,0-1.119,0.502-1.119,1.121
			c0,0.616,0.503,1.118,1.119,1.118l14.053,0.035h0.073l25.34,0.061c1.358,0.186,2.39,0.766,3.18,1.555l0.055,0.049
			c0.808,0.832,1.386,1.904,1.809,3.025l2.212,5.786c0.22,0.578,0.869,0.869,1.448,0.649c0.578-0.223,0.871-0.871,0.649-1.449
			l-2.21-5.786c-0.521-1.371-1.249-2.708-2.301-3.788l-0.071-0.077c-1.127-1.127-2.602-1.947-4.553-2.195v0.002l-0.14-0.01
			l-13.292-0.03c-1.097-0.717-1.9-1.689-2.373-2.94c-0.539-1.412-0.673-3.204-0.368-5.403h-0.002
			c0.051-0.364-0.079-0.743-0.376-1.003c-0.468-0.403-1.176-0.353-1.579,0.115l-7.976,9.2L2396.876,1556.511z"/>
		<path style="clip-path:url(#SVGID_00000036939977232569775460000013639933020678675110_);fill:#591A38;" d="M2465.408,1353.28
			c-1.719,29.946,1.711,54.276-29.022,72.709l-4.075,2.446l4.018,2.543l25.714,12.812l-18.693-15.294
			C2472.696,1408.724,2463.712,1382.963,2465.408,1353.28"/>
		
			<path style="clip-path:url(#SVGID_00000036939977232569775460000013639933020678675110_);fill-rule:evenodd;clip-rule:evenodd;fill:#591A38;" d="
			M2586.183,1346.554c-14.626-29.364-52.828-54.973-90.507-3.976C2528.354,1316.699,2558.394,1319.432,2586.183,1346.554"/>
		
			<path style="clip-path:url(#SVGID_00000036939977232569775460000013639933020678675110_);fill-rule:evenodd;clip-rule:evenodd;fill:#591A38;" d="
			M2345.473,1346.554c14.624-29.364,52.826-54.973,90.507-3.976C2403.299,1316.699,2373.26,1319.432,2345.473,1346.554"/>
		
			<path style="clip-path:url(#SVGID_00000036939977232569775460000013639933020678675110_);fill-rule:evenodd;clip-rule:evenodd;fill:#591A38;" d="
			M2499.958,1399.164c17.975-39.517,54.495-50.407,63.598,7.953C2549.075,1362.909,2527.487,1362.646,2499.958,1399.164"/>
		
			<path style="clip-path:url(#SVGID_00000036939977232569775460000013639933020678675110_);fill-rule:evenodd;clip-rule:evenodd;fill:#591A38;" d="
			M2431.697,1399.164c-17.975-39.517-54.495-50.407-63.601,7.953C2382.578,1362.909,2404.166,1362.646,2431.697,1399.164"/>
		
			<path style="clip-path:url(#SVGID_00000036939977232569775460000013639933020678675110_);fill-rule:evenodd;clip-rule:evenodd;fill:#FFFFFF;" d="
			M2505.862,1454.429c-4.46,19.01-23.094,39.069-51.894,14.673C2476.439,1479.629,2493.471,1473.94,2505.862,1454.429"/>
		
			<path style="clip-path:url(#SVGID_00000036939977232569775460000013639933020678675110_);fill-rule:evenodd;clip-rule:evenodd;fill:#FFFFFF;" d="
			M2182.877,1659.133c86.238-66.04,202.85-53.76,304.272-80.642l-284.137,116.378L2182.877,1659.133z"/>
		
			<path style="clip-path:url(#SVGID_00000036939977232569775460000013639933020678675110_);fill-rule:evenodd;clip-rule:evenodd;fill:#FFFFFF;" d="
			M1949.808,1599.628c84.294,8.138,166.846,24.937,247.941,49.058l-37.102,67.766L1949.808,1599.628z"/>
		
			<polygon style="clip-path:url(#SVGID_00000036939977232569775460000013639933020678675110_);fill-rule:evenodd;clip-rule:evenodd;fill:#4D4F82;" points="
			2200.959,1661.916 2518.82,1569.261 2603.603,1961.005 2288.754,2027.439 		"/>
		
			<polygon style="clip-path:url(#SVGID_00000036939977232569775460000013639933020678675110_);fill-rule:evenodd;clip-rule:evenodd;fill:#4D4F82;" points="
			2256.357,2024.286 2077.55,1975.779 1935.294,1595.376 2172.608,1664.926 		"/>
		
			<path style="clip-path:url(#SVGID_00000036939977232569775460000013639933020678675110_);fill-rule:evenodd;clip-rule:evenodd;fill:#4F3638;" d="
			M2182.879,1659.133L2182.879,1659.133c-12.337,3.215-19.798,15.94-16.583,28.28l85.427,327.881
			c3.214,12.341,15.938,19.808,28.273,16.593c12.333-3.212,19.793-15.94,16.579-28.279l-85.425-327.881
			C2207.936,1663.387,2195.212,1655.921,2182.879,1659.133"/>
		
			<path style="clip-path:url(#SVGID_00000036939977232569775460000013639933020678675110_);fill-rule:evenodd;clip-rule:evenodd;fill:#FCC200;" d="
			M3036.228,1845.519l-20.923,160.823l349.365-1.341c327.407,0,323.094-719.507-91.35-755.144
			c-182.653,35.1-195.418,198.92-65.667,280.461C3373.233,1580.194,3564.084,1789.616,3036.228,1845.519"/>
		
			<path style="clip-path:url(#SVGID_00000036939977232569775460000013639933020678675110_);fill-rule:evenodd;clip-rule:evenodd;fill:#FFB8B8;" d="
			M3036.228,1845.519l-3.416,160.758l-289.435,1.109c1.157-1.97,2.398-6.157,3.735-8.222c-6.633-15.444,1.749-34.033,22.88-55.294
			C2770.568,1851.192,2914.166,1855.67,3036.228,1845.519"/>
		
			<path style="clip-path:url(#SVGID_00000036939977232569775460000013639933020678675110_);fill-rule:evenodd;clip-rule:evenodd;fill:#6E87D6;" d="
			M3032.812,2006.276l332.078-1.275c17.099-0.059,33.872-1.634,50.646-4.99c10.559-5.573,16.471-15.461,13.997-27.24l-20.84-279.403
			c-4.333,63.007-118.878,125.296-372.465,152.151l-3.416,152.667V2006.276z"/>
		<path style="clip-path:url(#SVGID_00000036939977232569775460000013639933020678675110_);fill:#591A38;" d="M2998.9,957.857
			c-1.719,29.948,1.711,54.276-29.021,72.711l-4.076,2.443l4.019,2.543l25.714,12.811l-18.692-15.293
			C3006.188,1013.302,2997.201,987.543,2998.9,957.857"/>
		
			<path style="clip-path:url(#SVGID_00000036939977232569775460000013639933020678675110_);fill-rule:evenodd;clip-rule:evenodd;fill:#591A38;" d="
			M3119.675,951.131c-14.626-29.364-52.828-54.972-90.507-3.975C3061.848,921.277,3091.886,924.009,3119.675,951.131"/>
		
			<path style="clip-path:url(#SVGID_00000036939977232569775460000013639933020678675110_);fill-rule:evenodd;clip-rule:evenodd;fill:#591A38;" d="
			M2878.965,951.131c14.623-29.364,52.825-54.972,90.507-3.975C2936.791,921.277,2906.752,924.009,2878.965,951.131"/>
		
			<path style="clip-path:url(#SVGID_00000036939977232569775460000013639933020678675110_);fill-rule:evenodd;clip-rule:evenodd;fill:#FFFFFF;" d="
			M3039.354,1059.007c-4.46,19.01-23.094,39.068-51.894,14.673C3009.932,1084.206,3026.963,1078.518,3039.354,1059.007"/>
		<path style="clip-path:url(#SVGID_00000036939977232569775460000013639933020678675110_);fill:#785473;" d="M2962.029,956.543
			c-8.449-8.449-20.121-13.674-33.016-13.674c-12.891,0-24.567,5.225-33.015,13.674c-8.447,8.447-13.672,20.119-13.672,33.014
			c0,12.893,5.225,24.566,13.672,33.014c8.447,8.447,20.124,13.674,33.015,13.674c12.895,0,24.566-5.227,33.016-13.674
			c8.447-8.447,13.672-20.121,13.672-33.014C2975.701,976.662,2970.477,964.99,2962.029,956.543 M3095.566,956.543
			c-8.449-8.449-20.121-13.674-33.015-13.674c-12.893,0-24.566,5.225-33.014,13.674c-8.447,8.447-13.676,20.119-13.676,33.014
			c0,12.893,5.229,24.566,13.676,33.014c8.447,8.447,20.121,13.674,33.014,13.674c12.894,0,24.565-5.227,33.015-13.674
			c8.447-8.447,13.674-20.121,13.674-33.014C3109.24,976.662,3104.014,964.99,3095.566,956.543z M3062.552,938.257
			c14.165,0,26.988,5.744,36.273,15.027c9.283,9.284,15.026,22.109,15.026,36.273c0,14.162-5.743,26.99-15.026,36.273
			c-9.285,9.284-22.108,15.027-36.273,15.027c-14.164,0-26.989-5.743-36.272-15.027c-8.777-8.777-14.389-20.719-14.975-33.968
			h-31.042c-0.586,13.248-6.199,25.191-14.974,33.968c-9.286,9.284-22.111,15.027-36.275,15.027c-14.16,0-26.99-5.743-36.273-15.027
			c-9.281-9.283-15.025-22.111-15.025-36.273c0-14.165,5.744-26.99,15.025-36.273c9.283-9.283,22.113-15.027,36.273-15.027
			c14.164,0,26.989,5.744,36.275,15.027c8.774,8.777,14.388,20.719,14.974,33.966h31.042c0.586-13.247,6.197-25.19,14.975-33.966
			C3035.563,944,3048.388,938.257,3062.552,938.257z"/>
		
			<path style="clip-path:url(#SVGID_00000036939977232569775460000013639933020678675110_);fill-rule:evenodd;clip-rule:evenodd;fill:#001426;" d="
			M3063.787,972.496c4.797,0,8.688,8.669,8.688,19.367c0,10.697-3.891,19.368-8.688,19.368s-8.686-8.671-8.686-19.368
			C3055.102,981.165,3058.99,972.496,3063.787,972.496"/>
		
			<path style="clip-path:url(#SVGID_00000036939977232569775460000013639933020678675110_);fill-rule:evenodd;clip-rule:evenodd;fill:#001426;" d="
			M2937.605,972.496c4.797,0,8.685,8.669,8.685,19.367c0,10.697-3.888,19.368-8.685,19.368c-4.798,0-8.686-8.671-8.686-19.368
			C2928.92,981.165,2932.808,972.496,2937.605,972.496"/>
		
			<path style="clip-path:url(#SVGID_00000036939977232569775460000013639933020678675110_);fill-rule:evenodd;clip-rule:evenodd;fill:#E6E6E6;" d="
			M2349.912,2178.799h570.347c9.031,0,16.414-7.381,16.414-16.414v-0.003c0-9.028-7.383-16.414-16.414-16.414h-570.347
			c-9.031,0-16.415,7.386-16.415,16.414v0.003C2333.497,2171.418,2340.88,2178.799,2349.912,2178.799"/>
		
			<path style="clip-path:url(#SVGID_00000036939977232569775460000013639933020678675110_);fill-rule:evenodd;clip-rule:evenodd;fill:#E6E6E6;" d="
			M2859.472,1651.17h732.097c16.435,0,26.625,13.448,22.648,29.881l-115.78,478.446c-3.979,16.437-20.679,29.883-37.113,29.883
			h-732.095c-16.433,0-26.625-13.446-22.649-29.883l115.783-478.446C2826.34,1664.618,2843.039,1651.17,2859.472,1651.17"/>
		
			<path style="clip-path:url(#SVGID_00000036939977232569775460000013639933020678675110_);fill-rule:evenodd;clip-rule:evenodd;fill:#CCCCCC;" d="
			M2876.905,1651.17H3609c16.435,0,26.625,13.448,22.65,29.881l-115.784,478.446c-3.976,16.437-20.677,29.883-37.111,29.883H2746.66
			c-16.433,0-26.627-13.446-22.647-29.883l115.779-478.446C2843.77,1664.618,2860.473,1651.17,2876.905,1651.17"/>
		
			<path style="clip-path:url(#SVGID_00000036939977232569775460000013639933020678675110_);fill-rule:evenodd;clip-rule:evenodd;fill:#CCCCCC;" d="
			M2349.912,2189.38h570.347c9.031,0,16.414-7.381,16.414-16.414v-0.002c0-9.027-7.383-16.415-16.414-16.415h-570.347
			c-9.031,0-16.415,7.388-16.415,16.415v0.002C2333.497,2181.999,2340.88,2189.38,2349.912,2189.38"/>
		
			<polygon style="clip-path:url(#SVGID_00000036939977232569775460000013639933020678675110_);fill-rule:evenodd;clip-rule:evenodd;fill:#FFFFFF;" points="
			3139.42,1925.604 3226.885,1852.529 3285.564,1925.604 3198.099,1998.676 		"/>
		
			<path style="clip-path:url(#SVGID_00000036939977232569775460000013639933020678675110_);fill-rule:evenodd;clip-rule:evenodd;fill:#E83654;" d="
			M1409.321,2218.254h332.529v14.316h-332.529c-3.937,0-7.157-3.221-7.157-7.159
			C1402.164,2221.475,1405.384,2218.254,1409.321,2218.254"/>
		
			<path style="clip-path:url(#SVGID_00000036939977232569775460000013639933020678675110_);fill-rule:evenodd;clip-rule:evenodd;fill:#E83654;" d="
			M1720.46,2218.254c3.465,5.356,9.489,8.919,16.307,8.919h5.084v14.19h-19.403c-10.671,0-19.401-8.729-19.401-19.4v-3.709H1720.46z
			"/>
		
			<path style="clip-path:url(#SVGID_00000036939977232569775460000013639933020678675110_);fill-rule:evenodd;clip-rule:evenodd;fill:#D9E3ED;" d="
			M1419.176,2187.164l32.318-38.86c95.15,13.362,178.027-60.405,290.356,20.452v28.225L1419.176,2187.164z"/>
		
			<path style="clip-path:url(#SVGID_00000036939977232569775460000013639933020678675110_);fill-rule:evenodd;clip-rule:evenodd;fill:#C7D9E0;" d="
			M1741.851,2196.98c-173.826-116.172-214.911-3.886-322.674-9.816l-9.855,31.09h332.529V2196.98z"/>
		
			<path style="clip-path:url(#SVGID_00000036939977232569775460000013639933020678675110_);fill-rule:evenodd;clip-rule:evenodd;fill:#FFFFFF;" d="
			M1452.726,2131.939l46.224-34.77c29.834,37.087,163.981,16.498,242.901,59.723v33.952
			C1634.022,2094.306,1530.565,2169.48,1452.726,2131.939"/>
		
			<path style="clip-path:url(#SVGID_00000036939977232569775460000013639933020678675110_);fill-rule:evenodd;clip-rule:evenodd;fill:#D9E3ED;" d="
			M1502.636,2092.469l70.355-62.586c45.652,53.453,123.209,54.95,168.859,122.309v38.653
			C1662.931,2095.876,1573.534,2146.604,1502.636,2092.469"/>
		
			<path style="clip-path:url(#SVGID_00000036939977232569775460000013639933020678675110_);fill-rule:evenodd;clip-rule:evenodd;fill:#FFFFFF;" d="
			M1540.679,2081.014l75.267-83.038c25.197,45.748,87.209,25.226,125.905,132.333v60.536
			C1688.427,2102.73,1605.844,2124.538,1540.679,2081.014"/>
		
			<path style="clip-path:url(#SVGID_00000036939977232569775460000013639933020678675110_);fill-rule:evenodd;clip-rule:evenodd;fill:#E83654;" d="
			M2074.381,2218.254h-332.53v14.316h332.53c3.938,0,7.155-3.221,7.155-7.159
			C2081.536,2221.475,2078.319,2218.254,2074.381,2218.254"/>
		
			<path style="clip-path:url(#SVGID_00000036939977232569775460000013639933020678675110_);fill-rule:evenodd;clip-rule:evenodd;fill:#E83654;" d="
			M1763.24,2218.254c-3.461,5.356-9.485,8.919-16.303,8.919h-5.086v14.19h19.401c10.673,0,19.403-8.729,19.403-19.4v-3.709H1763.24z
			"/>
		
			<path style="clip-path:url(#SVGID_00000036939977232569775460000013639933020678675110_);fill-rule:evenodd;clip-rule:evenodd;fill:#D9E3ED;" d="
			M2064.523,2187.164l-32.316-38.86c-95.15,13.362-178.028-60.405-290.357,20.452v28.225L2064.523,2187.164z"/>
		
			<path style="clip-path:url(#SVGID_00000036939977232569775460000013639933020678675110_);fill-rule:evenodd;clip-rule:evenodd;fill:#C7D9E0;" d="
			M1741.851,2196.98c173.826-116.172,214.911-3.886,322.673-9.816l9.857,31.09h-332.53V2196.98z"/>
		
			<path style="clip-path:url(#SVGID_00000036939977232569775460000013639933020678675110_);fill-rule:evenodd;clip-rule:evenodd;fill:#FFFFFF;" d="
			M2030.977,2131.939l-46.224-34.77c-29.834,37.087-163.979,16.498-242.902,59.723v33.952
			C1849.68,2094.306,1953.136,2169.48,2030.977,2131.939"/>
		
			<path style="clip-path:url(#SVGID_00000036939977232569775460000013639933020678675110_);fill-rule:evenodd;clip-rule:evenodd;fill:#D9E3ED;" d="
			M1981.068,2092.469l-70.359-62.586c-45.65,53.453-123.208,54.95-168.858,122.309v38.653
			C1820.771,2095.876,1910.167,2146.604,1981.068,2092.469"/>
		
			<path style="clip-path:url(#SVGID_00000036939977232569775460000013639933020678675110_);fill-rule:evenodd;clip-rule:evenodd;fill:#FFFFFF;" d="
			M1943.025,2081.014l-75.267-83.038c-25.2,45.748-87.211,25.226-125.908,132.333v60.536
			C1795.275,2102.73,1877.857,2124.538,1943.025,2081.014"/>
		
			<rect x="2181.818" y="904.997" transform="matrix(0.9862 -0.1658 0.1658 0.9862 -121.5767 412.0595)" style="clip-path:url(#SVGID_00000036939977232569775460000013639933020678675110_);fill-rule:evenodd;clip-rule:evenodd;fill:#FCED91;" width="449.647" height="58.08"/>
		
			<path style="clip-path:url(#SVGID_00000036939977232569775460000013639933020678675110_);fill-rule:evenodd;clip-rule:evenodd;fill:#FCED91;" d="
			M2369.671,714.877c-105.481,17.739-176.737,117.334-159.638,222.778l55.166-9.279c-11.978-74.974,38.732-145.72,113.749-158.336
			c75.018-12.616,146.077,37.65,159.285,112.42l55.164-9.279C2575.068,767.946,2475.156,697.136,2369.671,714.877"/>
		
			<rect x="2370.572" y="714.744" transform="matrix(0.9862 -0.1658 0.1658 0.9862 -87.2681 403.1642)" style="clip-path:url(#SVGID_00000036939977232569775460000013639933020678675110_);fill:#F0870D;" width="1.371" height="19.121"/>
		<polygon style="clip-path:url(#SVGID_00000036939977232569775460000013639933020678675110_);fill:#F0870D;" points="
			2403.928,712.191 2403.777,731.313 2402.41,731.305 2402.561,712.183 		"/>
		
			<rect x="2425.478" y="724.088" transform="matrix(0.1815 -0.9834 0.9834 0.1815 1280.3994 2987.8479)" style="clip-path:url(#SVGID_00000036939977232569775460000013639933020678675110_);fill:#F0870D;" width="19.123" height="1.366"/>
		<polygon style="clip-path:url(#SVGID_00000036939977232569775460000013639933020678675110_);fill:#F0870D;" points="
			2469.88,724.56 2463.199,742.479 2461.919,742.004 2468.603,724.089 		"/>
		
			<rect x="2485.253" y="746.34" transform="matrix(0.5067 -0.8621 0.8621 0.5067 586.5983 2519.27)" style="clip-path:url(#SVGID_00000036939977232569775460000013639933020678675110_);fill:#F0870D;" width="19.122" height="1.367"/>
		<polygon style="clip-path:url(#SVGID_00000036939977232569775460000013639933020678675110_);fill:#F0870D;" points="
			2527.626,758.747 2515.219,773.297 2514.182,772.408 2526.588,757.857 		"/>
		
			<rect x="2533.813" y="787.697" transform="matrix(0.7711 -0.6367 0.6367 0.7711 80.2106 1799.8749)" style="clip-path:url(#SVGID_00000036939977232569775460000013639933020678675110_);fill:#F0870D;" width="19.122" height="1.367"/>
		<polygon style="clip-path:url(#SVGID_00000036939977232569775460000013639933020678675110_);fill:#F0870D;" points="
			2570.197,810.616 2553.562,820.046 2552.891,818.858 2569.526,809.428 		"/>
		<polygon style="clip-path:url(#SVGID_00000036939977232569775460000013639933020678675110_);fill:#F0870D;" points="
			2584.098,841.294 2566.078,847.693 2565.622,846.403 2583.642,840.004 		"/>
		
			<rect x="2573.359" y="874.149" transform="matrix(0.9861 -0.1659 0.1659 0.9861 -109.3269 440.5366)" style="clip-path:url(#SVGID_00000036939977232569775460000013639933020678675110_);fill:#F0870D;" width="19.121" height="1.364"/>
		<polygon style="clip-path:url(#SVGID_00000036939977232569775460000013639933020678675110_);fill:#F0870D;" points="
			2337.721,723.127 2344.119,741.146 2342.83,741.602 2336.431,723.582 		"/>
		
			<rect x="2310.481" y="736.119" transform="matrix(0.87 -0.493 0.493 0.87 -67.2158 1236.4219)" style="clip-path:url(#SVGID_00000036939977232569775460000013639933020678675110_);fill:#F0870D;" width="1.366" height="19.122"/>
		
			<rect x="2284.123" y="754.289" transform="matrix(0.7711 -0.6367 0.6367 0.7711 36.5895 1629.4889)" style="clip-path:url(#SVGID_00000036939977232569775460000013639933020678675110_);fill:#F0870D;" width="1.366" height="19.123"/>
		
			<rect x="2261.321" y="776.761" transform="matrix(0.6488 -0.761 0.761 0.6488 196.0458 1997.4277)" style="clip-path:url(#SVGID_00000036939977232569775460000013639933020678675110_);fill:#F0870D;" width="1.367" height="19.121"/>
		
			<rect x="2242.766" y="802.849" transform="matrix(0.5068 -0.8621 0.8621 0.5068 406.0833 2334.6338)" style="clip-path:url(#SVGID_00000036939977232569775460000013639933020678675110_);fill:#F0870D;" width="1.368" height="19.123"/>
		
			<rect x="2229.027" y="831.764" transform="matrix(0.3495 -0.9369 0.9369 0.3495 662.1145 2636.3389)" style="clip-path:url(#SVGID_00000036939977232569775460000013639933020678675110_);fill:#F0870D;" width="1.365" height="19.122"/>
		<polygon style="clip-path:url(#SVGID_00000036939977232569775460000013639933020678675110_);fill:#F0870D;" points="
			2211.917,869.779 2230.722,873.248 2230.476,874.593 2211.671,871.125 		"/>
		<polygon style="clip-path:url(#SVGID_00000036939977232569775460000013639933020678675110_);fill:#F0870D;" points="
			2208.617,903.296 2227.739,903.446 2227.731,904.816 2208.609,904.663 		"/>
		
			<rect x="2211.169" y="935.282" transform="matrix(0.9861 -0.1659 0.1659 0.9861 -124.4933 381.3467)" style="clip-path:url(#SVGID_00000036939977232569775460000013639933020678675110_);fill:#F0870D;" width="19.122" height="1.37"/>
		
			<rect x="2594.311" y="912.551" transform="matrix(0.9861 -0.1659 0.1659 0.9861 -117.0015 443.1916)" style="clip-path:url(#SVGID_00000036939977232569775460000013639933020678675110_);fill:#F0870D;" width="1.37" height="19.123"/>
		
			<rect x="2558.286" y="918.61" transform="matrix(0.9862 -0.1658 0.1658 0.9862 -118.4573 437.038)" style="clip-path:url(#SVGID_00000036939977232569775460000013639933020678675110_);fill:#F0870D;" width="1.37" height="19.122"/>
		
			<rect x="2522.26" y="924.668" transform="matrix(0.9861 -0.1659 0.1659 0.9861 -120.0093 431.4088)" style="clip-path:url(#SVGID_00000036939977232569775460000013639933020678675110_);fill:#F0870D;" width="1.371" height="19.123"/>
		
			<rect x="2486.236" y="930.726" transform="matrix(0.9861 -0.1659 0.1659 0.9861 -121.5132 425.5175)" style="clip-path:url(#SVGID_00000036939977232569775460000013639933020678675110_);fill:#F0870D;" width="1.369" height="19.124"/>
		
			<rect x="2450.209" y="936.786" transform="matrix(0.9862 -0.1657 0.1657 0.9862 -122.9519 419.3074)" style="clip-path:url(#SVGID_00000036939977232569775460000013639933020678675110_);fill:#F0870D;" width="1.37" height="19.121"/>
		
			<rect x="2414.184" y="942.844" transform="matrix(0.9861 -0.1659 0.1659 0.9861 -124.5321 413.7875)" style="clip-path:url(#SVGID_00000036939977232569775460000013639933020678675110_);fill:#F0870D;" width="1.371" height="19.121"/>
		
			<rect x="2378.159" y="948.901" transform="matrix(0.9862 -0.1659 0.1659 0.9862 -126.0182 407.8126)" style="clip-path:url(#SVGID_00000036939977232569775460000013639933020678675110_);fill:#F0870D;" width="1.368" height="19.124"/>
		
			<rect x="2342.133" y="954.96" transform="matrix(0.9862 -0.1658 0.1658 0.9862 -127.5171 401.9007)" style="clip-path:url(#SVGID_00000036939977232569775460000013639933020678675110_);fill:#F0870D;" width="1.37" height="19.123"/>
		
			<rect x="2306.109" y="961.018" transform="matrix(0.9861 -0.1659 0.1659 0.9861 -129.0355 396.0729)" style="clip-path:url(#SVGID_00000036939977232569775460000013639933020678675110_);fill:#F0870D;" width="1.37" height="19.124"/>
		
			<rect x="2270.082" y="967.078" transform="matrix(0.9861 -0.1659 0.1659 0.9861 -130.5396 390.1812)" style="clip-path:url(#SVGID_00000036939977232569775460000013639933020678675110_);fill:#F0870D;" width="1.371" height="19.123"/>
		
			<rect x="2234.058" y="973.134" transform="matrix(0.9862 -0.1659 0.1659 0.9862 -132.033 384.2487)" style="clip-path:url(#SVGID_00000036939977232569775460000013639933020678675110_);fill:#F0870D;" width="1.37" height="19.124"/>
		
			<rect x="2198.031" y="979.194" transform="matrix(0.9862 -0.1658 0.1658 0.9862 -133.4846 378.1574)" style="clip-path:url(#SVGID_00000036939977232569775460000013639933020678675110_);fill:#F0870D;" width="1.37" height="19.124"/>
		
			<rect x="3385.346" y="1082.511" transform="matrix(0.9808 -0.195 0.195 0.9808 -144.5061 702.807)" style="clip-path:url(#SVGID_00000036939977232569775460000013639933020678675110_);fill-rule:evenodd;clip-rule:evenodd;fill:#F5787D;" width="224.926" height="5.886"/>
		
			<rect x="3386.208" y="1088.312" transform="matrix(0.9808 -0.1949 0.1949 0.9808 -145.3153 702.8859)" style="clip-path:url(#SVGID_00000036939977232569775460000013639933020678675110_);fill-rule:evenodd;clip-rule:evenodd;fill:#F24A4F;" width="224.925" height="2.942"/>
		
			<rect x="3384.424" y="1079.025" transform="matrix(0.9807 -0.1958 0.1958 0.9807 -143.9181 705.4271)" style="clip-path:url(#SVGID_00000036939977232569775460000013639933020678675110_);fill-rule:evenodd;clip-rule:evenodd;fill:#F7A3A6;" width="224.924" height="3.577"/>
		
			<polygon style="clip-path:url(#SVGID_00000036939977232569775460000013639933020678675110_);fill-rule:evenodd;clip-rule:evenodd;fill:#D4D6DE;" points="
			3630.222,1057.967 3607.535,1060.616 3608.683,1066.388 3630.689,1059.589 		"/>
		
			<polygon style="clip-path:url(#SVGID_00000036939977232569775460000013639933020678675110_);fill-rule:evenodd;clip-rule:evenodd;fill:#C7C7D4;" points="
			3609.258,1069.273 3630.771,1060.716 3630.689,1059.589 3608.683,1066.388 		"/>
		
			<polygon style="clip-path:url(#SVGID_00000036939977232569775460000013639933020678675110_);fill-rule:evenodd;clip-rule:evenodd;fill:#DBD9E8;" points="
			3606.837,1057.108 3630.045,1057.074 3630.222,1057.967 3607.535,1060.616 		"/>
		
			<polygon style="clip-path:url(#SVGID_00000036939977232569775460000013639933020678675110_);fill-rule:evenodd;clip-rule:evenodd;fill:#F24A4F;" points="
			3636.928,1057.561 3632.242,1056.993 3630.045,1057.074 3630.771,1060.716 3632.775,1060.03 		"/>
		
			<rect x="3369.228" y="1106.265" transform="matrix(0.9807 -0.1955 0.1955 0.9807 -151.6492 681.816)" style="clip-path:url(#SVGID_00000036939977232569775460000013639933020678675110_);fill-rule:evenodd;clip-rule:evenodd;fill:#E8E8E8;" width="18.459" height="5.886"/>
		
			<rect x="3370.09" y="1112.066" transform="matrix(0.9808 -0.1949 0.1949 0.9808 -152.2033 679.8188)" style="clip-path:url(#SVGID_00000036939977232569775460000013639933020678675110_);fill-rule:evenodd;clip-rule:evenodd;fill:#D9DBD6;" width="18.459" height="2.942"/>
		
			<rect x="3368.304" y="1102.779" transform="matrix(0.9808 -0.195 0.195 0.9808 -150.5403 679.7178)" style="clip-path:url(#SVGID_00000036939977232569775460000013639933020678675110_);fill-rule:evenodd;clip-rule:evenodd;fill:#FFFAFA;" width="18.461" height="3.576"/>
		
			<path style="clip-path:url(#SVGID_00000036939977232569775460000013639933020678675110_);fill-rule:evenodd;clip-rule:evenodd;fill:#F24A4F;" d="
			M3356.869,1108.144l1.93,9.69c0.134,0.682,0.801,1.127,1.482,0.991l10.272-2.044l-2.421-12.165l-10.272,2.045
			C3357.179,1106.795,3356.733,1107.463,3356.869,1108.144"/>
		
			<rect x="3498.094" y="954.951" transform="matrix(0.0724 -0.9974 0.9974 0.0724 2183.0288 4482.0122)" style="clip-path:url(#SVGID_00000036939977232569775460000013639933020678675110_);fill-rule:evenodd;clip-rule:evenodd;fill:#66E078;" width="5.884" height="224.926"/>
		
			<rect x="3499.244" y="959.354" transform="matrix(0.0727 -0.9974 0.9974 0.0727 2177.3652 4485.3984)" style="clip-path:url(#SVGID_00000036939977232569775460000013639933020678675110_);fill-rule:evenodd;clip-rule:evenodd;fill:#33D64A;" width="2.944" height="224.925"/>
		
			<rect x="3499.589" y="950.233" transform="matrix(0.0721 -0.9974 0.9974 0.0721 2189.137 4478.3936)" style="clip-path:url(#SVGID_00000036939977232569775460000013639933020678675110_);fill-rule:evenodd;clip-rule:evenodd;fill:#99EBA6;" width="3.577" height="224.926"/>
		
			<polygon style="clip-path:url(#SVGID_00000036939977232569775460000013639933020678675110_);fill-rule:evenodd;clip-rule:evenodd;fill:#D4D6DE;" points="
			3635.994,1076.083 3613.417,1072.611 3612.991,1078.479 3636.012,1077.771 		"/>
		
			<polygon style="clip-path:url(#SVGID_00000036939977232569775460000013639933020678675110_);fill-rule:evenodd;clip-rule:evenodd;fill:#C7C7D4;" points="
			3612.777,1081.415 3635.79,1078.878 3636.012,1077.771 3612.991,1078.479 		"/>
		
			<polygon style="clip-path:url(#SVGID_00000036939977232569775460000013639933020678675110_);fill-rule:evenodd;clip-rule:evenodd;fill:#DBD9E8;" points="
			3613.675,1069.043 3636.061,1075.175 3635.994,1076.083 3613.417,1072.611 		"/>
		
			<polygon style="clip-path:url(#SVGID_00000036939977232569775460000013639933020678675110_);fill-rule:evenodd;clip-rule:evenodd;fill:#33D64A;" points="
			3642.565,1077.472 3638.201,1075.682 3636.061,1075.175 3635.79,1078.878 3637.908,1078.75 		"/>
		
			<rect x="3376.719" y="1049.385" transform="matrix(0.0727 -0.9974 0.9974 0.0727 2078.2312 4352.4063)" style="clip-path:url(#SVGID_00000036939977232569775460000013639933020678675110_);fill-rule:evenodd;clip-rule:evenodd;fill:#E8E8E8;" width="5.885" height="18.459"/>
		
			<rect x="3377.87" y="1053.788" transform="matrix(0.0723 -0.9974 0.9974 0.0723 2074.6687 4356.6157)" style="clip-path:url(#SVGID_00000036939977232569775460000013639933020678675110_);fill-rule:evenodd;clip-rule:evenodd;fill:#D9DBD6;" width="2.944" height="18.46"/>
		
			<rect x="3378.216" y="1044.667" transform="matrix(0.0716 -0.9974 0.9974 0.0716 2086.9053 4349.8066)" style="clip-path:url(#SVGID_00000036939977232569775460000013639933020678675110_);fill-rule:evenodd;clip-rule:evenodd;fill:#FFFAFA;" width="3.576" height="18.459"/>
		
			<path style="clip-path:url(#SVGID_00000036939977232569775460000013639933020678675110_);fill-rule:evenodd;clip-rule:evenodd;fill:#33D64A;" d="
			M3359.132,1051.855l-0.714,9.855c-0.051,0.693,0.475,1.3,1.166,1.351l10.445,0.757l0.896-12.372l-10.445-0.757
			C3359.789,1050.639,3359.183,1051.164,3359.132,1051.855"/>
		
			<rect x="3483.504" y="913.173" transform="matrix(0.8747 -0.4847 0.4847 0.8747 -60.1898 1818.4855)" style="clip-path:url(#SVGID_00000036939977232569775460000013639933020678675110_);fill-rule:evenodd;clip-rule:evenodd;fill:#00B8F5;" width="5.885" height="224.926"/>
		
			<rect x="3481.115" y="915.311" transform="matrix(0.8746 -0.4848 0.4848 0.8746 -61.6624 1817.0979)" style="clip-path:url(#SVGID_00000036939977232569775460000013639933020678675110_);fill-rule:evenodd;clip-rule:evenodd;fill:#00A6E8;" width="2.942" height="224.928"/>
		
			<rect x="3488.797" y="910.881" transform="matrix(0.8747 -0.4846 0.4846 0.8747 -58.6668 1819.728)" style="clip-path:url(#SVGID_00000036939977232569775460000013639933020678675110_);fill-rule:evenodd;clip-rule:evenodd;fill:#5CCCF0;" width="3.577" height="224.925"/>
		
			<polygon style="clip-path:url(#SVGID_00000036939977232569775460000013639933020678675110_);fill-rule:evenodd;clip-rule:evenodd;fill:#D4D6DE;" points="
			3552.949,1143.392 3543.518,1122.587 3538.37,1125.438 3551.547,1144.328 		"/>
		
			<polygon style="clip-path:url(#SVGID_00000036939977232569775460000013639933020678675110_);fill-rule:evenodd;clip-rule:evenodd;fill:#C7C7D4;" points="
			3535.797,1126.866 3550.498,1144.749 3551.547,1144.328 3538.37,1125.438 		"/>
		
			<polygon style="clip-path:url(#SVGID_00000036939977232569775460000013639933020678675110_);fill-rule:evenodd;clip-rule:evenodd;fill:#DBD9E8;" points="
			3546.646,1120.854 3553.744,1142.951 3552.949,1143.392 3543.518,1122.587 		"/>
		
			<polygon style="clip-path:url(#SVGID_00000036939977232569775460000013639933020678675110_);fill-rule:evenodd;clip-rule:evenodd;fill:#00A6E8;" points="
			3555.379,1149.654 3554.491,1145.02 3553.744,1142.951 3550.498,1144.749 3551.761,1146.452 		"/>
		
			<rect x="3424.535" y="909.956" transform="matrix(0.8749 -0.4844 0.4844 0.8749 -16.3002 1775.2808)" style="clip-path:url(#SVGID_00000036939977232569775460000013639933020678675110_);fill-rule:evenodd;clip-rule:evenodd;fill:#E8E8E8;" width="5.885" height="18.459"/>
		
			<rect x="3422.146" y="912.094" transform="matrix(0.8746 -0.4848 0.4848 0.8746 -17.4247 1775.269)" style="clip-path:url(#SVGID_00000036939977232569775460000013639933020678675110_);fill-rule:evenodd;clip-rule:evenodd;fill:#D9DBD6;" width="2.942" height="18.459"/>
		
			<rect x="3429.828" y="907.664" transform="matrix(0.8747 -0.4846 0.4846 0.8747 -14.4677 1777.8171)" style="clip-path:url(#SVGID_00000036939977232569775460000013639933020678675110_);fill-rule:evenodd;clip-rule:evenodd;fill:#FFFAFA;" width="3.577" height="18.459"/>
		
			<path style="clip-path:url(#SVGID_00000036939977232569775460000013639933020678675110_);fill-rule:evenodd;clip-rule:evenodd;fill:#00A6E8;" d="
			M3421.919,898.299l-8.645,4.789c-0.608,0.336-0.828,1.107-0.492,1.713l5.076,9.161l10.85-6.01l-5.076-9.162
			C3423.297,898.185,3422.525,897.961,3421.919,898.299"/>
		
			<rect x="3568.419" y="755.064" transform="matrix(0.9781 -0.208 0.208 0.9781 -106.7652 762.4714)" style="clip-path:url(#SVGID_00000036939977232569775460000013639933020678675110_);fill-rule:evenodd;clip-rule:evenodd;fill:#6E7891;" width="7.003" height="267.611"/>
		
			<rect x="3565.032" y="756.156" transform="matrix(0.9781 -0.208 0.208 0.9781 -107.1023 761.3559)" style="clip-path:url(#SVGID_00000036939977232569775460000013639933020678675110_);fill-rule:evenodd;clip-rule:evenodd;fill:#52596B;" width="3.501" height="267.611"/>
		
			<rect x="3575.299" y="753.892" transform="matrix(0.978 -0.2084 0.2084 0.978 -106.4528 765.139)" style="clip-path:url(#SVGID_00000036939977232569775460000013639933020678675110_);fill-rule:evenodd;clip-rule:evenodd;fill:#8F8FA8;" width="4.256" height="267.611"/>
		
			<polygon style="clip-path:url(#SVGID_00000036939977232569775460000013639933020678675110_);fill-rule:evenodd;clip-rule:evenodd;fill:#D4D6DE;" points="
			3539.741,731.218 3547.507,757.263 3540.658,758.72 3537.75,731.47 		"/>
		
			<polygon style="clip-path:url(#SVGID_00000036939977232569775460000013639933020678675110_);fill-rule:evenodd;clip-rule:evenodd;fill:#C7C7D4;" points="
			3537.232,759.446 3536.48,731.911 3537.75,731.47 3540.658,758.72 		"/>
		
			<polygon style="clip-path:url(#SVGID_00000036939977232569775460000013639933020678675110_);fill-rule:evenodd;clip-rule:evenodd;fill:#DBD9E8;" points="
			3551.668,756.378 3540.801,730.992 3539.741,731.218 3547.507,757.263 		"/>
		
			<polygon style="clip-path:url(#SVGID_00000036939977232569775460000013639933020678675110_);fill-rule:evenodd;clip-rule:evenodd;fill:#61635E;" points="
			3537.033,723.698 3539.855,728.552 3540.801,730.992 3536.48,731.911 3536.285,729.396 		"/>
		
			<rect x="3598.542" y="1019.507" transform="matrix(0.9781 -0.2084 0.2084 0.9781 -135.6559 773.1408)" style="clip-path:url(#SVGID_00000036939977232569775460000013639933020678675110_);fill-rule:evenodd;clip-rule:evenodd;fill:#E8E8E8;" width="7.003" height="21.964"/>
		
			<rect x="3595.156" y="1020.599" transform="matrix(0.9783 -0.2073 0.2073 0.9783 -135.7173 768.1124)" style="clip-path:url(#SVGID_00000036939977232569775460000013639933020678675110_);fill-rule:evenodd;clip-rule:evenodd;fill:#D9DBD6;" width="3.501" height="21.964"/>
		
			<rect x="3605.422" y="1018.335" transform="matrix(0.9782 -0.2075 0.2075 0.9782 -135.0621 770.9257)" style="clip-path:url(#SVGID_00000036939977232569775460000013639933020678675110_);fill-rule:evenodd;clip-rule:evenodd;fill:#FFFAFA;" width="4.255" height="21.965"/>
		
			<path style="clip-path:url(#SVGID_00000036939977232569775460000013639933020678675110_);fill-rule:evenodd;clip-rule:evenodd;fill:#544D4D;" d="
			M3613.352,1053.585l-11.499,2.445c-0.808,0.171-1.609-0.346-1.78-1.155l-2.594-12.189l14.437-3.068l2.593,12.187
			C3614.68,1052.614,3614.159,1053.414,3613.352,1053.585"/>
		
			<path style="clip-path:url(#SVGID_00000036939977232569775460000013639933020678675110_);fill-rule:evenodd;clip-rule:evenodd;fill:#4DAD5E;" d="
			M2208.042,1979.421c-50.79,3.491-108.37,10.958-102.159-76.127C2137.324,1920.521,2206.662,1899.807,2208.042,1979.421"/>
		
			<path style="clip-path:url(#SVGID_00000036939977232569775460000013639933020678675110_);fill-rule:evenodd;clip-rule:evenodd;fill:#B3CF66;" d="
			M2105.883,1903.294c29.753,16.301,93.438-1.371,101.365,64.142c0.212,1.748,0.383,3.555,0.515,5.424
			c0.146,2.108,0.24,4.293,0.279,6.562c-0.704-0.748-1.416-1.48-2.136-2.199c-5.457-5.446-11.356-10.072-17.47-14.151
			c-0.94-0.629-1.886-1.243-2.836-1.848c-2.162-1.371-4.348-2.682-6.545-3.943c-6.278-3.601-12.936-7.344-19.578-10.17
			c-0.006-0.004-0.014-0.009-0.02-0.011c-23.245-11.33-44.682-20.916-52.72-42.802l-0.891-0.492
			C2105.856,1903.634,2105.869,1903.463,2105.883,1903.294"/>
		
			<path style="clip-path:url(#SVGID_00000036939977232569775460000013639933020678675110_);fill-rule:evenodd;clip-rule:evenodd;fill:#D92E2B;" d="
			M2206.015,2210.447c6.769-0.795,11.9,0.661,17.076,2.059c29.285,12.567,56.179,3.429,80.361-30.318
			c73.826-103.961,44.849-218.11-97.437-198.994c-142.285-19.116-171.261,95.033-97.437,198.994
			c24.184,33.747,51.079,42.886,80.363,30.318C2194.115,2211.108,2199.248,2209.652,2206.015,2210.447"/>
		
			<path style="clip-path:url(#SVGID_00000036939977232569775460000013639933020678675110_);fill-rule:evenodd;clip-rule:evenodd;fill:#DB4F42;" d="
			M2204.719,1983.036c-141.152-18.243-169.739,95.511-96.141,199.151c4.6,6.418,9.297,11.945,14.091,16.602
			c7.562,1.179,15.348,1.795,23.299,1.795c72.67,0,131.584-51.399,131.584-114.805
			C2277.553,2040.8,2247.897,2001.868,2204.719,1983.036"/>
		
			<path style="clip-path:url(#SVGID_00000036939977232569775460000013639933020678675110_);fill-rule:evenodd;clip-rule:evenodd;fill:#E88C8A;" d="
			M2111.968,2024.846c-9.346,0-16.925,12.521-16.925,27.964c0,15.444,7.579,27.967,16.925,27.967
			c9.351,0,16.928-12.522,16.928-27.967C2128.896,2037.366,2121.318,2024.846,2111.968,2024.846"/>
		<path style="clip-path:url(#SVGID_00000036939977232569775460000013639933020678675110_);" d="M2240.858,1999.805
			c0.964-0.868,1.041-2.355,0.175-3.32c-0.871-0.966-2.356-1.044-3.322-0.175c-9.027,8.109-18.315,12.49-27.899,12.648
			c-9.623,0.161-19.692-3.912-30.257-12.703c-0.995-0.828-2.475-0.692-3.302,0.303c-0.828,0.997-0.692,2.474,0.303,3.302
			c11.475,9.551,22.57,13.97,33.329,13.79C2220.676,2013.471,2230.982,2008.678,2240.858,1999.805"/>
		<path style="clip-path:url(#SVGID_00000036939977232569775460000013639933020678675110_);" d="M2229.599,1942.493
			c0.783-1.032,0.582-2.503-0.45-3.284c-1.031-0.783-2.5-0.582-3.284,0.45c-7.241,9.529-12.713,20.149-16.068,32.069
			c-3.351,11.904-4.596,25.088-3.392,39.761c0.102,1.296,1.235,2.265,2.531,2.162c1.296-0.102,2.263-1.234,2.161-2.53
			c-1.158-14.115,0.026-26.756,3.227-38.123C2217.521,1961.647,2222.721,1951.547,2229.599,1942.493"/>
		
			<path style="clip-path:url(#SVGID_00000036939977232569775460000013639933020678675110_);fill-rule:evenodd;clip-rule:evenodd;fill:#4291C7;" d="
			M1554.453,1127.23c-11.556-17.743,10.378-38.698,27.132-25.332l59.908,65.179c7.251,12.643-7.31,25.358-19.633,18.364
			l-47.595-50.749c-5.634-9.71,5.265-18.921,13.597-12.417l39.823,42.942l2.956-2.741l-40.029-43.166l-0.116-0.094
			c-11.892-9.511-27.79,4.073-19.582,17.731l0.111,0.183l48.293,51.493l0.25,0.148c16,9.442,34.947-7.558,25.293-23.923
			l-0.108-0.183l-60.402-65.719l-0.118-0.094c-20.379-16.471-47.361,9.111-33.054,30.733l0.091,0.138l53.16,57.327l2.958-2.743
			L1554.453,1127.23z"/>
		
			<path style="clip-path:url(#SVGID_00000036939977232569775460000013639933020678675110_);fill-rule:evenodd;clip-rule:evenodd;fill:#4291C7;" d="
			M2609.763,982.225c14.9-15.043,40.015,1.974,30.487,21.173l-51.061,72.317c-10.827,9.757-26.332-1.789-22.097-15.312
			l39.558-57.236c8.301-7.559,19.604,1.151,15.006,10.669l-33.567,47.992l3.304,2.311l33.743-48.242l0.067-0.134
			c6.784-13.629-9.85-26.3-21.467-15.393l-0.156,0.146l-40.137,58.077l-0.092,0.274c-5.852,17.633,14.767,32.564,28.728,19.672
			l0.154-0.145l51.483-72.916l0.066-0.132c11.799-23.399-18.904-44.371-37.02-25.822l-0.113,0.118l-44.811,64.067l3.305,2.309
			L2609.763,982.225z"/>
	</g>
</g>
</svg>
