<?xml version="1.0" encoding="utf-8"?>
<!-- Generator: Adobe Illustrator 27.5.0, SVG Export Plug-In . SVG Version: 6.00 Build 0)  -->
<svg version="1.1" id="Layer_1" xmlns="http://www.w3.org/2000/svg" xmlns:xlink="http://www.w3.org/1999/xlink" x="0px" y="0px"
	 viewBox="0 0 2122 2122" style="enable-background:new 0 0 2122 2122;" xml:space="preserve">
<g>
	<path style="fill:#FEFEFE;" d="M0,0h2122.885v2122.885H0V0z"/>
	<path style="fill:#192E35;" d="M637.858,277.47c-0.211,9.004-0.79,18.173,0.017,27.15c-8.17-4.061-16.268-8.164-24.227-12.634
		C620.158,285.341,629.599,281.535,637.858,277.47z"/>
	<path style="fill:#DDDFDF;" d="M1538.42,1911.334c0.35,0.048,0.699,0.1,1.049,0.143c21.455,2.66,45.302,0.253,67.002,0.402
		c34.573,0.241,290.953,2.015,291.743,2.351c0.417,0.176,0.622,0.657,0.933,0.987l-1.433,0.311l-0.744-0.935l-0.653,1.453
		c-0.336-0.042-0.672-0.095-1.01-0.126c-10.146-0.943-21.16-0.006-31.418-0.091c-26.173-0.251-52.345-0.335-78.518-0.251
		l-122.501-0.881c-41.979-0.12-84.028,0.475-125.982-1.103L1538.42,1911.334z"/>
	<path style="fill:#DDDFDF;" d="M1498.16,1828.588c32.992-1.843,66.27-0.33,99.315-0.27l202.163,0.97
		c17.433,0.083,104.94-1.889,113.761,0.839c-70.799,2.911-142.36,1.151-213.238,0.825c-67.729-0.311-135.616,0.833-203.324-0.33
		L1498.16,1828.588z"/>
	<path style="fill:#DDDFDF;" d="M1525.546,1955.996c81.611-0.668,163.222-0.654,244.832,0.039
		c27.823,0.022,55.644,0.192,83.464,0.51c12.248,0.11,24.6-0.396,36.829,0.239l-0.429,1.234l1.46-1.171l1.005,0.976l0.064-0.894
		l2.614,0.473c-10.129,2.338-23.103,1.213-33.518,1.298c-27.626,0.127-55.252,0.021-82.878-0.317
		c-69.558-0.509-139.113-0.314-208.667,0.583c-8.925,0.126-37.242-1.63-43.532,0.866l-0.624,1.107L1525.546,1955.996z"/>
	<path style="fill:#DDDFDF;" d="M1525.751,1944.32l0.282-2.757l268.105,1.149c14.558,0.085,93.681-1.176,101.337,1.82l-0.048,0.628
		l-2.086,0.829l-0.972-1.045c-2.423-0.12,0.666-0.116-2.923,0.725c-5.807,1.36-15.198,0.046-21.299,0.023l-58.721-0.141
		C1714.906,1945.22,1620.267,1942.892,1525.751,1944.32z"/>
	<path style="fill:#DDDFDF;" d="M1561.481,1994.77l224.377-0.18l77.332,0.272c12.051,0.041,24.78-1.095,36.715,0.346l-0.168,0.663
		c-3.647,1.659-6.191,1.754-10.192,1.681l-1.443-0.037l-255.084-0.048c-15.801-0.029-73.698,1.932-84.971-1.165
		C1552.026,1994.705,1557.213,1994.998,1561.481,1994.77z"/>
	<path style="fill:#DDDFDF;" d="M1527.976,1969.658l249.81-1.428l87.791,0.166c8.618,0.013,20.619,1.609,28.781,0.635l-0.284,2.061
		c2.115-0.44,1.348,0.037,2.513-1.016l-1.92-0.164l1.955,0.317c-0.224-0.031-0.446-0.079-0.67-0.095
		c-1.258-0.095-2.519-0.13-3.779-0.193l-0.974,1.219c-35.365,1.934-71.469,0.369-106.907,0.241
		c-60.458-0.492-120.915-0.393-181.372,0.296c-15.803,0.11-61.622-2.071-73.642,0.85L1527.976,1969.658z"/>
	<path style="fill:#DDDFDF;" d="M1501.288,1818.326l0.995-4.138c0.406,0.16,0.81,0.33,1.223,0.479
		c6.671,2.411,50.611,1.175,61.599,1.242l243.943-0.831c33.214-0.025,67.105-1.393,100.257,0.191l0.549-0.614l0.493,2.121
		l1.735-0.151l0.811-1.093l0.819,0.91l0.058-0.802l1.24,0.585c-6.86,3.684-285.093,2.287-314.195,2.164
		C1569.631,1818.255,1531.678,1816.188,1501.288,1818.326z"/>
	<path style="fill:#DDDFDF;" d="M1642.887,1926.852c13.65-1.352,27.815-0.661,41.529-0.74c28.482-0.137,56.963-0.109,85.444,0.083
		c27.249-0.073,54.498,0.048,81.746,0.363c14.159,0.124,28.292-0.338,42.416,0.902l0.817,0.721
		c-14.9,2.409-31.167,1.439-46.258,1.431l-77.537-0.22l-98.432,0.168c-17.259,0.089-34.982,1.012-52.189,0.17
		c-30.452,0.879-61.047,0.367-91.516,0.435l1.236-3.354l74.973-0.015C1617.495,1926.761,1630.599,1925.867,1642.887,1926.852z"/>
	<path style="fill:#DDDFDF;" d="M1506.369,1798.762c21.31-1.831,43.036-0.995,64.425-1.107c38.629-0.408,77.259-0.516,115.89-0.325
		l147.812-0.137c22.004-0.012,44.477-1.03,66.431-0.214c4.911,0.18,10.353,0.332,15.047,1.857
		c-18.204,1.54-36.81,0.854-55.081,0.879l-89.816,0.309c-59.596,0.883-119.194,1.093-178.795,0.63
		c-28.584-0.031-57.388,0.748-85.946-0.197L1506.369,1798.762z"/>
	<path style="fill:#DDDFDF;" d="M1692.128,1785.008c42.588-1.667,85.904-0.386,128.542-0.257l62.186,0.112
		c9.762-0.058,19.601-0.829,29.345-0.597c3.018,0.073,5.902,0.06,8.597,1.509l-0.406,1.455
		c-6.721,3.047-211.422,1.403-233.725,0.334c-58.946,0.477-117.893,0.57-176.84,0.28l0.543-1.88
		c38.267-0.668,76.537-1.039,114.81-1.115C1647.353,1784.758,1669.987,1783.887,1692.128,1785.008z"/>
	<path style="fill:#DDDFDF;" d="M1786.76,1847.967c19.18-1.375,123.032-3.074,133.087,0.591c-9.615,1.791-20.541,0.79-30.359,1.144
		c-33.349,1.203-67.603,2.699-100.949,1.329c-61.24,0.479-122.713,1.659-183.934,1.093c-18.362-0.17-36.697-1.209-55.052-1.557
		c-25.682-0.489-51.443,0.568-77.094-0.927c19.861-4.082,41.701-2.614,61.929-2.461l61.072,0.294L1786.76,1847.967z"/>
	<path style="fill:#FE9D76;" d="M1553.031,1888.675c44.693-2.668,90.148-1.474,134.903-1.331l218.653,0.131
		c1.034,3.224,2.309,6.107,1.604,9.534c-2.131,2.54-3.686,3.358-7.044,3.597c-9.696,0.688-19.782,0.099-29.555,0.4
		c-47.57,1.128-95.133,0.906-142.689-0.665c-58.818-2.048-117.652-2.824-176.504-2.328c2.195-2.142,4.88-4.157,5.776-7.182
		c-1.897-1.692-2.741-1.19-5.199-1.287L1553.031,1888.675z"/>
	<path style="fill:#A4C5C5;" d="M1775.675,646.607c17.985-14.169,36.055-28.23,54.208-42.182
		c11.305-8.732,22.214-17.875,34.271-25.576c-5.179,17.352-8.749,35.27-12.681,52.939c-5.737,25.263-11.117,50.602-16.139,76.016
		c-3.792,19.732-6.684,39.999-12.008,59.372c-2.973,1.246-6.109,2.834-9.205,3.676c0.186,8.174-1.29,21.616,1.706,29.057
		c7.521-2.2,39.649-13.073,44.804-11.328c-2.95,3.079-39.064,11.84-46.519,15.117c-25.754,8.062-51.832,15.053-77.653,22.889
		c-35.815,10.869-71.502,22.502-107.438,32.921c-8.143,2.361-47.74,11.133-50.122,12.561c-1.563,0.937-3.149,3.307-4.206,4.803
		l-1.638-2.2c14.36-19.21,26.219-41.131,38.786-61.593l1.206,2.641c-10.21,18.206-21.888,35.923-33.052,53.566
		c23.028-4.113,49.27-12.194,70.862-21.366c15.951-6.777,161.86-79.843,165.046-80.017c0.688-0.195,1.561-0.413,2.187-0.736
		c0.12-0.06,2.152-1.37,2.334-1.596c3.174-3.918,13.057-62.407,15.121-72.558c7.166-36.193,15.142-72.206,23.928-108.039
		c-16.554,14.18-34.916,26.777-52.257,40.003c-10.094,7.7-19.552,16.203-29.581,23.999c-20.032,15.812-39.598,32.182-58.699,49.108
		l-1.957-0.444C1729.685,682.431,1759.53,660.153,1775.675,646.607z"/>
	<path style="fill:#ECECEC;" d="M1815.828,799.909c-11.61,2.488-23.256,7.262-34.642,10.743l-73.252,21.942
		c-11.719,3.531-24.397,8.995-36.599,9.874c0.667-2.119,42.733-22.189,48.049-24.697c32.003-14.783,63.583-30.422,94.738-46.919
		C1814.308,779.026,1812.832,792.468,1815.828,799.909z"/>
	<path style="fill:#FEFEFE;" d="M1777.636,648.979c10.03-7.795,19.487-16.299,29.581-23.999
		c17.342-13.227,35.703-25.823,52.257-40.003c-8.786,35.833-16.762,71.846-23.928,108.039c-2.065,10.15-11.947,68.639-15.121,72.558
		c-0.182,0.226-2.214,1.536-2.334,1.596c-0.626,0.323-1.499,0.541-2.187,0.736c-5.971-16.521-7.304-35.359-11.753-52.425
		C1798.096,692.241,1787.614,670.701,1777.636,648.979z"/>
	<path style="fill:#FE4F5A;" d="M1552.975,1889.544c2.459,0.097,3.303-0.404,5.199,1.287c-0.896,3.025-3.58,5.04-5.776,7.182
		c-5.504,3.97-10.107,7.629-13.979,13.322l-1.532,2.26c-2.411,4.351-4.747,8.651-6.746,13.216l-1.236,3.354
		c-1.028,3.767-2.206,7.55-2.873,11.398l-0.282,2.757c-0.093,3.889-0.239,7.785-0.205,11.676l0.622,4.942l1.808,8.72l1.302,2.888
		c5.622,14.108,14.645,27.94,29.186,34.153c12.712,5.434,49.034,2.639,64.926,2.77l197.406,0.226l54.123,0.168
		c7.281-0.05,14.958-1.497,22.147-0.614c3.597,0.442,6.58,1.146,8.782,4.246c0.307,2.264,0.597,4.447,0.657,6.734
		c-2.571,2.127-4.161,2.973-7.519,3.228c-13.434,1.022-27.264,0.576-40.758,0.684l-78.949,0.216
		c-64.638,0.048-129.432,0.939-194.051-0.145c-14.844-0.813-25.35-5.305-38.458-11.939c-5.747-4.478-11.207-8.859-16.231-14.149
		l-3.916-5.054c-2.39-4.542-4.582-9.228-6.858-13.83l-0.514-1.797c-2.235-6.595-3.748-12.88-4.878-19.749l-0.093-6.192
		c-0.176-4.111,0.226-8.309,0.431-12.418l1.609-7.888c1.277-4.526,2.969-8.919,4.573-13.336l1.895-2.817
		C1530.6,1902.982,1541.071,1896.783,1552.975,1889.544z"/>
	<path style="fill:#375963;" d="M1453.057,1875.561c13.515-2.759,28.8-1.75,42.613-1.866c28.121-0.164,56.242-0.074,84.362,0.272
		l244.316,0.292c18.14-0.114,106.308-3.669,115.401,0.023c1.818,1.994,2.544,2.593,2.544,5.475c0,2.71-1.238,4.31-3.02,6.11
		c-10.542,2.427-21.919,0.636-32.685,1.609l-218.653-0.131c-44.755-0.143-90.21-1.337-134.903,1.331l-0.056,0.869
		c-11.904,7.239-22.375,13.438-30.189,25.495l-1.895,2.817c-1.605,4.418-3.296,8.811-4.573,13.336l-1.609,7.888
		c-0.205,4.109-0.607,8.307-0.431,12.418c-28.062,1.416-56.806-2.231-84.828,1.148l-1.405-13.562l-0.663-7.577
		c-0.398-9.802-1.681-19.728-2.581-29.507l-0.647-2.631l-1.076-9.341l-1.368-11.765
		C1431.701,1878.229,1443.626,1879.108,1453.057,1875.561z"/>
	<path style="fill:#BEABA0;" d="M1423.077,1890.029c43.313-0.912,86.631-1.364,129.954-1.354l-0.056,0.869
		c-11.904,7.239-22.375,13.438-30.189,25.495l-1.895,2.817c-1.605,4.418-3.296,8.811-4.573,13.336l-1.609,7.888
		c-0.205,4.109-0.607,8.307-0.431,12.418c-28.062,1.416-56.806-2.231-84.828,1.148l-1.405-13.562l-0.663-7.577
		c-0.398-9.802-1.681-19.728-2.581-29.507l-0.647-2.631L1423.077,1890.029z"/>
	<path style="fill:#AD9B8F;" d="M1512.57,1915.226c4.018-1.103,6.155-1.609,10.216-0.187l-1.895,2.817
		c-7.175-0.798-14.456-0.495-21.668-0.98c-16.488-0.064-54.366,2.131-68.326-2.37c15.967-0.734,31.781,0.085,47.742,0.139
		C1489.703,1914.683,1501.68,1913.466,1512.57,1915.226z"/>
	<path style="fill:#AD9B8F;" d="M1424.153,1899.37c13.66-0.156,27.378-0.118,41.025-0.725c13.801-0.614,35.175-3.73,48.254-1.287
		c0.485,0.091,0.98,0.11,1.47,0.166c-1.412,0.539-2.455,0.972-3.972,1.103l1.184,0.765c-15.192,5.606-66.518-1.062-87.314,2.61
		L1424.153,1899.37z"/>
	<path style="fill:#AD9B8F;" d="M1427.381,1931.508c11.17,1.35,23.339,0.297,34.6,0.114c18.111-0.317,36.223-0.46,54.337-0.429
		l-1.609,7.888c-16.525-1.646-33.852-0.495-50.472-0.4c-11.933,0.068-24.355-0.811-36.193,0.404L1427.381,1931.508z"/>
	<path style="fill:#BEABA0;" d="M1428.045,1939.085c11.837-1.215,24.26-0.336,36.193-0.404c16.62-0.095,33.948-1.246,50.472,0.4
		c-0.205,4.109-0.607,8.307-0.431,12.418c-28.062,1.416-56.806-2.231-84.828,1.148L1428.045,1939.085z"/>
	<path style="fill:#ECECEC;" d="M1777.636,648.979c9.978,21.722,20.46,43.262,26.515,66.502
		c4.449,17.066,5.782,35.904,11.753,52.425c-3.186,0.174-149.095,73.24-165.046,80.017c-21.592,9.172-47.833,17.253-70.862,21.366
		c11.164-17.642,22.842-35.359,33.052-53.566c9.953-13.44,15.625-29.926,25.651-43.078c8.214-10.772,20.153-19.857,30.149-29.001
		c16.645-15.225,33.12-30.699,50.089-45.557C1738.038,681.161,1757.604,664.791,1777.636,648.979z"/>
	<path style="fill:#ECECEC;" d="M265.151,1898.338c82.251,33.591,152.004,50.866,240.583,59.551
		c-3.63,22.28-9.184,44.187-12.955,66.433l173.204,0.143l697.268,0.191c21.436,0.207,44.711,2.198,65.952-0.213l1.217-10.217
		l0.286-7.863l0.093-16.776l-0.686-23.945c-0.622-4.264-0.541-8.688-0.663-12.994c28.023-3.379,56.767,0.267,84.828-1.148
		l0.093,6.192c1.13,6.868,2.643,13.154,4.878,19.749l0.514,1.797c2.276,4.602,4.468,9.288,6.858,13.83l3.916,5.054
		c5.023,5.291,10.484,9.671,16.231,14.149c13.108,6.634,23.615,11.126,38.458,11.939c64.62,1.084,129.413,0.193,194.051,0.145
		l78.949-0.216c13.494-0.108,27.324,0.338,40.758-0.684c3.358-0.255,4.948-1.101,7.519-3.228c13.11-0.297,63.738,3.499,73.2,8.958
		l-0.191,1.213c-0.386,0.187-0.763,0.39-1.159,0.558c-15.963,6.75-59.741,6.997-78.584,8.151
		c-91.11,5.591-181.998,8.266-273.216,10.499c-263.293,7.107-526.631,11.464-790.014,13.073
		c-161.859-0.178-323.672-3.002-485.438-8.473c-35.929-1.196-168.037-2.554-193.902-13.853l-0.326-1.354
		c14.772-9.377,187.735-13.521,216.562-13.894c-10.415-11.948-22.234-22.761-33.01-34.414
		c-16.971-18.665-33.453-37.752-49.448-57.26C282.037,1922.668,271.286,1910.928,265.151,1898.338z"/>
	<path style="fill:#AD9B8F;" d="M1546.769,2012.271c13.108,6.634,23.615,11.126,38.458,11.939
		c-51.859,2.427-104.092-3.104-156.024,0.232l1.217-10.217C1469.142,2013.801,1508.069,2013.507,1546.769,2012.271z"/>
	<path style="fill:#BEABA0;" d="M1430.8,1989.587l1.665,6.256c9.317,1.601,86.837-0.365,94.157-2.776l3.916,5.054
		c5.023,5.291,10.484,9.671,16.231,14.149c-38.699,1.236-77.626,1.53-116.348,1.955l0.286-7.863L1430.8,1989.587z"/>
	<path style="fill:#AD9B8F;" d="M1430.8,1989.587l1.665,6.256c9.317,1.601,86.837-0.365,94.157-2.776l3.916,5.054
		c-13.873-0.122-91-0.945-98.03,1.173c-0.614,2.352-1.214,4.708-1.801,7.067L1430.8,1989.587z"/>
	<path style="fill:#BEABA0;" d="M1429.45,1952.648c28.023-3.379,56.767,0.267,84.828-1.148l0.093,6.192
		c1.13,6.868,2.643,13.154,4.878,19.749l0.514,1.797c2.276,4.602,4.468,9.288,6.858,13.83c-7.32,2.411-84.841,4.376-94.157,2.776
		l-1.665-6.256l-0.686-23.945C1429.491,1961.378,1429.572,1956.954,1429.45,1952.648z"/>
	<path style="fill:#AD9B8F;" d="M1429.564,1965.823c28.108-1.441,57.061-0.435,85.255-0.321l-0.794,1.016
		C1506.434,1969.855,1437.208,1968.317,1429.564,1965.823z"/>
	<path style="fill:#AD9B8F;" d="M1519.764,1979.238c-15.505,0.184-73.403,3.182-84.49-0.788c9.412-4.716,69.058-0.979,83.976-1.01
		L1519.764,1979.238z"/>
	<path style="fill:#AD9B8F;" d="M1429.45,1952.648c28.023-3.379,56.767,0.267,84.828-1.148l0.093,6.192
		c-27.564-1.476-55.338,2.063-82.979,0.386l-1.279,7.565C1429.491,1961.378,1429.572,1956.954,1429.45,1952.648z"/>
	<path style="fill:#FEFEFE;" d="M653.173,269.53l1.016,43.494c29.994,13.54,59.495,28.097,89.339,41.95
		c21.038,9.767,43.349,18.627,63.496,30.065l-3.159,93.741c-0.046,2.803-0.514,6.416,1.401,8.713
		c0.759,0.912,1.462,1.443,2.349,2.185c2.687,3.734,2.119,32.111,2.585,38.888c1.263,18.389,2.602,39.904,8.32,57.393
		c-0.268,0.305-0.508,0.638-0.804,0.916c-2.712,2.548-7.146,3.81-10.432,5.624c-15.942,8.794-23.887,22.435-25.435,40.339
		c-1.52,17.545,4.845,34.188,16.075,47.5c13.403,15.884,32.092,25.081,52.716,26.582c3.817,0.278,7.789,0.68,11.609,0.411
		l-2.473,34.845c-2.272,24.412-5.446,48.706-9.522,72.881c-11.589,2.05-24.038,8.222-35.322,11.954
		c-30.15,9.97-64.435,11.435-95.146,3.269c-17.825-4.739-100.346-40.884-109.279-56.109l0.713-1.134l6.234-1.088l-4.15-1.449
		c-0.626,0.141-1.244,0.321-1.876,0.419c-5.871,0.914-14.74,0.637-19.815-2.792c-3.404-2.301-3.557-2.417-4.341-6.481
		c6.192-39.333,11.755-78.638,24.394-116.593c5.114-15.356,12.089-30.278,18.235-45.256c-3.566-3.918-6.205-7.455-8.859-12.039
		c-0.585-8.807,0.367-17.582,6.221-24.683c3.41-4.138,6.835-6.261,12.146-6.835c1.317-58.021-0.135-116.315-0.431-174.359
		c-0.085-16.488,1.621-63.257-1.103-77.259c-0.806-8.977-0.228-18.146-0.017-27.15C642.409,274.346,648.203,272.015,653.173,269.53z
		"/>
	<path style="fill:#FE4F5A;" d="M653.173,269.53l1.016,43.494c-0.935,80.587,0.153,161.236,0.05,241.828
		c7.016,2.811,13.075,6.309,16.392,13.473c2.907,6.275,2.455,13.963-0.073,20.288c-1.735,4.343-4.675,8.149-7.463,11.858
		c21.764,46.577,28.207,90.961,32.697,141.599c0.794,8.977,3.578,21.849,1.099,30.351c-4.561,2.51-11.726,1.397-16.761,1.124
		l-4.918-1.455c-6.512-2.411-14.22,1.704-21.48,1.611l-4.959,0.73c-6.006-2.2-13.88-1.729-20.24-2.005l-11.081-0.479l-4.15-1.449
		c-0.626,0.141-1.244,0.321-1.876,0.419c-5.871,0.914-14.74,0.637-19.815-2.792c-3.404-2.301-3.557-2.417-4.341-6.481
		c6.192-39.333,11.755-78.638,24.394-116.593c5.114-15.356,12.089-30.278,18.235-45.256c-3.566-3.918-6.205-7.455-8.859-12.039
		c-0.585-8.807,0.367-17.582,6.221-24.683c3.41-4.138,6.835-6.261,12.146-6.835c1.317-58.021-0.135-116.315-0.431-174.359
		c-0.085-16.488,1.621-63.257-1.103-77.259c-0.806-8.977-0.228-18.146-0.017-27.15C642.409,274.346,648.203,272.015,653.173,269.53z
		"/>
	<path style="fill:#BC333D;" d="M675.212,772.09c0.068-0.693,0.145-1.385,0.205-2.077c0.863-10.092-0.976-21.722-1.772-31.827
		c-2.173-27.535-5.568-55.031-7.596-82.542l0.211-0.164l-0.481-4.536c7.644,13.295,14.624,104.123,14.35,122.601L675.212,772.09z"/>
	<path style="fill:#BC333D;" d="M613.302,770.497c0.137-0.553,0.282-1.105,0.412-1.661c1.352-5.757,1.337-12.192,1.849-18.105
		c1.306-15.057,2.224-30.415,4.376-45.364c2.618-18.2,9.822-35.133,12.932-53.087c1.994-11.508,2.14-28.46,6.837-38.809
		c3.045,20.605-5.065,44.827-3.788,66.612c22.929,37.289,21.04,51.486,17.81,93.616l-4.959,0.73
		c2.699-21.702,5.069-54.538-7.291-73.397c-3.435-5.243-10.283-10.322-11.348-16.637c-0.102-0.593-0.162-1.192-0.243-1.787
		l-1.034-0.738c-10.708,16.268-2.527,70.679-0.323,90.554l-11.081-0.479L613.302,770.497z"/>
	<path style="fill:#FE4F5A;" d="M628.534,772.425c-2.204-19.875-10.384-74.286,0.323-90.554l1.034,0.738
		c0.081,0.595,0.141,1.194,0.243,1.787c1.066,6.315,7.913,11.394,11.348,16.637c12.36,18.859,9.99,51.696,7.291,73.397
		C642.768,772.231,634.894,772.701,628.534,772.425z"/>
	<path style="fill:#ECECEC;" d="M302.565,1149.837c-10.227-10.285-22.05-19.096-32.662-29.024
		c-23.113-21.625-45.619-49.585-61.037-77.193c-36.344-65.073-48.37-133.539-27.606-206.094
		c14.955-52.255,49.461-93.088,96.695-119.132c73.961-40.783,164.285-29.034,237.382,7.03c20.97,10.345,49.627,30.131,70.905,35.956
		c0.342,0.093,0.686,0.174,1.028,0.263c0.784,4.063,0.937,4.18,4.341,6.481c5.075,3.429,13.944,3.707,19.815,2.792
		c0.632-0.097,1.25-0.278,1.876-0.419l4.15,1.449l-6.234,1.088l-0.713,1.134c8.933,15.225,91.454,51.37,109.279,56.109
		c30.711,8.166,64.997,6.7,95.146-3.269c11.284-3.732,23.733-9.903,35.322-11.954c-1.513,10.677-6.86,33.207-5.065,42.364
		c-44.927,34.764-91.742,67.149-137.249,101.142c-19.065,6.955-38.637,12.598-57.583,19.834c-3.931-3.669-7.633-8.017-13.519-7.727
		c-17.429,0.86-69.178,22.865-89.806,29.279l-3.205,0.647c-14.427,4.762-32.849,9.449-45.673,17.425
		c-15.283,10.78-23.965,44.108-28.725,61.922c-0.238,0.404-0.469,0.811-0.715,1.209c-5.291,8.577-28.145,27.96-36.746,37.615
		c-19.757,22.176-35.243,47.707-50.226,73.217c-62.376,106.202-100.968,236.138-134.83,354.078
		c-5.162,17.98-10.874,35.782-15.733,53.852c-5.289,19.666-9.69,39.559-14.895,59.246c-10.553,39.912-21.317,80.162-29.353,120.664
		c-13.872-17.802-22.852-40.861-31.815-61.474c-35.243-81.049-62.516-170.37-56.249-259.84
		c4.578-65.355,34.286-142.544,90.953-179.902c25.737-16.966,55.689-29.215,79.002-49.61
		C293.634,1207.287,300.488,1181.67,302.565,1149.837z"/>
	<path style="fill:#DDDFDF;" d="M501.132,826.07c7.623,12.059,13.251,25.669,18.695,38.832
		c21.594,52.222,21.876,74.56,25.39,128.876c0.149,2.314-0.093,4.48,1.814,6.17l-3.205,0.647
		c-7.722-9.453-17.103-18.198-25.831-26.739l1.885-0.939l9.207,8.288C511.802,937.588,503.192,873.078,501.132,826.07z"/>
	<path style="fill:#ECECEC;" d="M504.987,841.448c0.29,0.253,0.605,0.479,0.869,0.757c4.318,4.575,7.44,14.014,9.899,19.888
		c16.262,38.834,29.266,88.046,26.252,130.404c-0.313-0.218-0.647-0.41-0.941-0.653C517.943,972.729,508,871.428,504.987,841.448z"
		/>
	<path style="fill:#A4C5C5;" d="M321.779,743.659c11.879,8.57,23.464,17.713,35.017,26.725
		c42.489,35.728,78.257,74.612,108.352,121.348c17.893,27.79,30.506,57.919,54.731,81.184l-1.885,0.939
		c-6.988-7.181-13.834-15.005-21.927-20.945c-19.622-2.328-36.763-8.015-54.986-15.385c-26.561-12.183-52.702-25.209-78.424-39.076
		c-25.722-13.868-50.971-28.55-75.746-44.046c14.682,2.187,29.44,7.677,43.486,12.36c46.581,15.526,91.278,33.842,133.555,59.01
		c6.12,3.644,13.573,7.459,18.822,12.173c1.922,1.289,3.815,2.571,5.819,3.732l0.41-2.488
		c-5.133-11.815-12.688-23.223-19.318-34.258c-9.062-15.086-18.227-30.427-28.663-44.618c-23.256-31.624-53.68-62.656-84.517-86.928
		c-8.641-6.939-17.445-13.444-26.511-19.813c28.002,35.923,54.648,71.965,84.872,106.148c14.458,16.115,29.096,32.065,43.913,47.85
		c7.76,8.355,17.089,16.853,23.445,26.298C460.685,922.261,334.027,771.275,321.779,743.659z"/>
	<path style="fill:#ECECEC;" d="M304.599,861.381c49.216,12.149,135.912,49.098,177.081,78.18l13.094,10.645
		c-19.048-3.448-35.884-8.508-53.736-15.87c-36.097-15.852-71.081-33.867-104.952-54.042
		C325.655,874.214,314.367,868.453,304.599,861.381z"/>
	<path style="fill:#ECECEC;" d="M1376.608,302.36c4.022,5.042,43.681,17.51,52.931,21.691
		c47.176,21.324,94.615,45.965,137.059,75.756c47.307,33.205,87.165,75.478,123.303,120.36
		c9.313,11.566,19.036,28.667,28.116,38.598c1.777-10.588,4.136-46.726,6.528-52.799c3.458,8.825-0.861,45.793-3.875,55.86
		c12.822,14.713,23.339,31.858,33.17,48.648c5.454,9.319,14.564,29.312,21.834,36.133c-16.146,13.546-45.99,35.824-58.694,51.036
		l1.957,0.444c-16.969,14.858-33.444,30.332-50.089,45.557c-9.996,9.145-21.936,18.229-30.149,29.001
		c-10.026,13.152-15.698,29.637-25.651,43.078l-1.206-2.641c-12.567,20.462-24.426,42.383-38.786,61.593l1.638,2.2
		c-9.725,17.421-21.308,33.448-32.938,49.616c-21.303,29.621-43.262,57.438-67.18,85.019c0.309,0.153,0.599,0.346,0.927,0.458
		c6.848,2.349,28.945-3.002,37.08-4.534c10.642-1.962,21.236-4.158,31.783-6.586c10.545-2.428,21.033-5.087,31.462-7.975
		c10.429-2.89,20.789-6.008,31.08-9.354c10.292-3.345,20.506-6.914,30.641-10.708c10.135-3.795,20.182-7.811,30.141-12.047
		c9.958-4.236,19.818-8.689,29.579-13.359c9.763-4.67,19.418-9.552,28.966-14.647c9.547-5.094,18.979-10.396,28.294-15.905
		c6.483-3.844,13.094-9.624,20.097-12.211l1.3,0.991c-6.906,7.594-24.175,15.324-33.722,20.762
		c-79.936,45.536-179.46,81.144-271.462,90.011c-9.669,9.924-31.174,34.785-40.787,41.216l-2.641-1.439l-0.037-1.134
		c-2.067-6.912-3.282-14.164-6.01-20.866c-2.019-4.957-4.768-8.556-9.132-11.638c-13.115-9.263-30.908-14.871-45.706-21.088
		c-23.926-10.05-47.771-20.188-71.906-29.735c-17.24-9.617-36.875-16.867-55.218-24.167l-0.908-0.344
		c-8.118-5.709-19.06-9.773-28.054-14.093c-18.285-8.786-36.533-18.065-55.222-25.941l-9.109-3.84
		c-7.741-13.915-10.755-31.823-15.182-47.178c10.2-3.126,20.953-10.386,29.324-16.873c1.921-1.461,3.81-2.962,5.666-4.505
		c1.856-1.542,3.678-3.124,5.467-4.745c1.787-1.623,3.539-3.282,5.255-4.978c1.717-1.697,3.395-3.43,5.036-5.199
		c1.642-1.771,3.245-3.575,4.808-5.413c1.565-1.838,3.088-3.709,4.571-5.614c1.482-1.904,2.922-3.84,4.322-5.807
		c1.399-1.967,2.755-3.962,4.068-5.987c1.313-2.025,2.582-4.077,3.806-6.157c1.225-2.08,2.403-4.185,3.537-6.315
		c1.133-2.131,2.22-4.286,3.261-6.464c1.041-2.177,2.034-4.376,2.979-6.597c0.947-2.221,1.844-4.461,2.693-6.719
		c0.849-2.26,1.648-4.537,2.399-6.831c0.75-2.294,1.451-4.603,2.102-6.926c0.651-2.325,1.251-4.662,1.802-7.011
		c2.125-8.939,1.994-40.751,6.545-45.69c11.01-6.385,18.443-15.986,23.986-27.268c9-18.31,12.19-42.541,5.384-62.072
		c-4.7-13.482-12.101-23.028-24.967-29.324c-4.186-1.789-8.079-3.143-12.54-4.07l1.221-3.419
		c11.182-23.847,18.36-99.537,10.867-125.366c-1.47-5.075-3.539-7.459-8.089-10.08l-1.028-0.96
		c0.205-16.575,1.752-35.067-0.869-51.457C1274.919,359.276,1324.442,328.181,1376.608,302.36z"/>
	<path style="fill:#DDDFDF;" d="M1718.017,558.765c1.777-10.588,4.136-46.726,6.528-52.799c3.458,8.825-0.861,45.793-3.875,55.86
		c-5.939,52.048-27.697,104.911-51.391,151.299c-8.676,16.989-20.238,34.047-26.961,51.855
		c15.426-13.098,60.952-61.522,74.662-67.337l1.957,0.444c-16.969,14.858-33.444,30.332-50.089,45.557
		c-9.996,9.145-21.936,18.229-30.149,29.001c-10.026,13.152-15.698,29.637-25.651,43.078l-1.206-2.641
		c4.799-9.371,10.395-18.47,15.696-27.566c-6.149-31.731-16.286-61.392-26.696-91.904c-6.532-19.145-12.802-38.467-20.037-57.357
		c-4.451-11.62-8.554-23.542-13.212-35.057c-3.058-7.559-8.319-14.732-9.69-22.836l0.939-0.923
		c8.614,5.154,39.628,96.467,44.315,110.506c3.728,11.168,6.114,23.269,11.22,33.885c7.447,15.482,12.882,40.783,15.706,57.985
		c8.562-13.662,15.779-28.329,23.329-42.572C1683.481,680.524,1708.757,622.766,1718.017,558.765z"/>
	<path style="fill:#DDDFDF;" d="M1555.357,899.689c-3.033-38.521-55.263-162.415-74.595-203.451
		c-4.673-9.922-24.739-46.166-25.572-53.715l1.157-0.918c0.247,0.131,0.508,0.236,0.736,0.394
		c6.352,4.393,15.372,27.635,18.913,35.171c32.592,69.398,64.271,141.864,83.141,216.362c4.488-6.427,9.049-12.714,13.919-18.857
		l1.638,2.2c-9.725,17.421-21.308,33.448-32.938,49.616c-21.303,29.621-43.262,57.438-67.18,85.019
		c0.309,0.153,0.599,0.346,0.927,0.458c6.848,2.349,28.945-3.002,37.08-4.534c10.642-1.962,21.236-4.158,31.783-6.586
		c10.545-2.428,21.033-5.087,31.462-7.975c10.429-2.89,20.789-6.008,31.08-9.354c10.292-3.345,20.506-6.914,30.641-10.708
		c10.135-3.795,20.182-7.811,30.141-12.047c9.958-4.236,19.818-8.689,29.579-13.359c9.763-4.67,19.418-9.552,28.966-14.647
		c9.547-5.094,18.979-10.396,28.294-15.905c6.483-3.844,13.094-9.624,20.097-12.211l1.3,0.991
		c-6.906,7.594-24.175,15.324-33.722,20.762c-79.936,45.536-179.46,81.144-271.462,90.011c-9.669,9.924-31.174,34.785-40.787,41.216
		l-2.641-1.439l-0.037-1.134c9.203-6.076,31.632-30.27,41.031-39.537c-10.905-20.018-20.895-40.505-31.752-60.54
		c-21.653-40.329-44.354-80.061-68.102-119.195c-15.285-25.51-30.282-51.942-48.333-75.626l-0.603-0.78l0.437-2.482l1.522-0.991
		c8.069,6.317,13.813,19.048,19.392,27.637c36.841,57.768,71.256,116.948,103.244,177.539c5.26,9.837,21.656,45.093,26.007,49.985
		l1.874-0.794c18.391-21.146,35.426-42.64,52.336-64.966C1535.348,930.755,1547.03,915.979,1555.357,899.689z"/>
	<path style="fill:#ECECEC;" d="M1720.671,561.826c12.822,14.713,23.339,31.858,33.17,48.648
		c5.454,9.319,14.564,29.312,21.834,36.133c-16.146,13.546-45.99,35.824-58.694,51.036c-13.709,5.815-59.235,54.239-74.662,67.337
		c6.723-17.808,18.285-34.866,26.961-51.855C1692.974,666.737,1714.731,613.875,1720.671,561.826z"/>
	<path style="fill:#ECECEC;" d="M1574.693,876.874c1.057-1.497,2.643-3.866,4.206-4.803c2.382-1.428,41.979-10.2,50.122-12.561
		c35.936-10.42,71.623-22.052,107.438-32.921c25.821-7.836,51.899-14.827,77.653-22.889c1.285,58.348-10.399,107.494-29.826,162.173
		c-7.144,20.103-20.163,44.336-21.104,65.59c-0.039,1.093-0.048,2.187-0.029,3.28s0.068,2.185,0.145,3.276
		c0.077,1.09,0.183,2.178,0.317,3.263c0.135,1.085,0.299,2.166,0.491,3.242c0.192,1.075,0.413,2.146,0.661,3.211
		c0.249,1.064,0.526,2.121,0.831,3.172c0.304,1.05,0.636,2.091,0.997,3.122c0.359,1.033,0.746,2.055,1.161,3.068
		c0.414,1.012,0.855,2.012,1.323,3s0.961,1.963,1.48,2.925c0.518,0.963,1.062,1.911,1.632,2.844
		c0.569,0.934,1.163,1.852,1.781,2.753c0.618,0.902,1.259,1.788,1.924,2.656c0.665,0.868,1.352,1.718,2.063,2.55
		c0.709,0.832,1.44,1.644,2.193,2.436c0.753,0.793,1.526,1.566,2.32,2.318c30.284,28.783,64.69,19.039,102.297,26.65
		c94.514,19.129,132.371,100.256,135.336,189.3c4.903,147.387-65.797,302.735-165.695,408.84
		c-18.633,19.792-42.387,36.802-58.12,58.883l-16.577,0.097c-6.787-22.151-10.558-45.628-16.975-68.042
		c-12.279-42.891-26.712-84.731-41.821-126.679c-7.666-21.287-14.985-42.796-23.574-63.73c-4.256-12.325-8.006-25.466-13.405-37.32
		l0.282-1.715c-8.301-16.904-15.524-37.776-22.966-55.51c-1.292-2.716-2.318-5.668-3.443-8.462l-0.794-1.71
		c-4.248-6.333-7.445-13.813-10.697-20.698c3.632-8.821,8.241-18.42,9.698-27.91c1.121-7.316-0.133-14.562-4.611-20.572
		c-7.293-9.793-20.993-13.73-32.569-15.385c-41.058-1.52-82.685-0.122-123.807-0.087l-12.308-0.033
		c-22.133-0.133-44.512-0.883-66.62,0.189c11.147-76.913,24.036-182.189,11.211-258.499l2.641,1.439
		c9.613-6.431,31.118-31.292,40.787-41.216c92.001-8.867,191.526-44.475,271.462-90.011c9.547-5.438,26.816-13.169,33.722-20.762
		l-1.3-0.991c-7.003,2.587-13.614,8.367-20.097,12.211c-9.315,5.509-18.746,10.811-28.294,15.905
		c-9.547,5.095-19.203,9.977-28.966,14.647c-9.762,4.67-19.621,9.123-29.579,13.359c-9.959,4.236-20.006,8.252-30.141,12.047
		c-10.135,3.794-20.349,7.363-30.641,10.708c-10.291,3.346-20.651,6.463-31.08,9.352c-10.429,2.89-20.917,5.549-31.462,7.977
		c-10.547,2.428-21.141,4.624-31.783,6.586c-8.135,1.532-30.232,6.883-37.08,4.534c-0.328-0.112-0.618-0.305-0.927-0.458
		c23.918-27.581,45.876-55.398,67.18-85.019C1553.386,910.322,1564.969,894.294,1574.693,876.874z"/>
	<path style="fill:#A4C5C5;" d="M1838.682,1156.239c-30.33,27.807-59.034,58.199-83.62,91.257
		c-8.96,12.049-16.125,25.209-24.878,37.279c-7.308,10.082-12.008,24.55-16.17,36.267c-2.098-4.978,1.055-11.929,2.967-16.709
		c19.668-49.139,96.525-131.134,137.046-166.489c-6.866,14.273-16.666,25.574-24.932,38.865
		c-17.206,27.452-35.007,54.513-53.406,81.182c-22.89,33.153-45.277,64.605-63.085,100.918
		c72.842-46.386,147.661-86.406,229.46-114.897c13.131-4.573,26.308-10.774,39.891-13.793c-13.11,11.01-29.615,19.33-43.988,28.777
		c-49.376,32.796-100.13,63.299-152.261,91.51c-14.041,7.554-28.574,14.153-42.756,21.43c12.704,5.67,24.963,12.242,37.864,17.479
		c34.256,13.907,72.528,23.36,109.018,29.103c6.767,1.063,44.657,4.54,46.202,7.262c-6.373,4.588-29.092,7.457-37.955,9.344
		c-51.308,10.921-102.12,21.146-154.249,27.469c-19.581,2.374-40.156,5.458-59.891,4.084l0.282-1.715
		c63.083-5.11,122.742-13.253,184.716-26.455c18.177-3.872,36.968-7.119,54.78-12.406c-49.102-4.984-100.344-16.251-146.083-34.999
		c-12.532-5.135-24.15-11.705-36.4-17.35c-13.975,6.503-69.52,35.168-79.979,35.699c3.062-3.839,67.472-32.49,77.96-37.752
		c29.557-14.73,58.687-30.264,87.389-46.6c28.7-16.335,56.93-33.448,84.689-51.339c16.633-10.724,34.646-21.028,49.815-33.693
		c-81.721,27.197-157.591,64.889-230.569,110.429c-16.622,10.372-32.625,21.882-48.486,33.367
		c-7.6,5.504-15.839,13.125-24.241,17.124l-0.794-1.71c0.292-0.307,0.58-0.616,0.877-0.918
		c14.709-14.978,35.606-22.777,50.615-37.179c0.288-0.278,0.589-0.541,0.871-0.825c5.32-5.371,8.801-18.084,12.493-25.093
		c4.984-9.46,10.279-18.888,16.11-27.846c9.965-15.308,21.283-29.698,31.671-44.717c15.666-22.897,30.908-46.072,45.727-69.524
		C1823.069,1181.102,1832.469,1169.015,1838.682,1156.239z"/>
	<path style="fill:#ECECEC;" d="M1657.812,1400.889c8.402-3.999,16.641-11.62,24.241-17.124
		c15.861-11.485,31.864-22.995,48.486-33.367c72.978-45.54,148.849-83.232,230.569-110.429
		c-15.169,12.665-33.183,22.968-49.815,33.693c-27.759,17.891-55.989,35.004-84.689,51.339c-28.702,16.336-57.832,31.87-87.389,46.6
		c-10.488,5.262-74.898,33.912-77.96,37.752C1659.963,1406.635,1658.937,1403.683,1657.812,1400.889z"/>
	<path style="fill:#ECECEC;" d="M1741.234,1373.652c12.25,5.645,23.868,12.215,36.4,17.35
		c45.74,18.747,96.981,30.015,146.083,34.999c-17.812,5.286-36.603,8.533-54.78,12.406
		c-61.974,13.202-121.633,21.345-184.716,26.455c-8.301-16.904-15.524-37.776-22.966-55.51
		C1671.714,1408.82,1727.259,1380.155,1741.234,1373.652z"/>
	<path style="fill:#FE4F5A;" d="M1427.315,1056.183l2.641,1.439c66.881,40.399,112.482,105.897,149.423,173.198
		c15.061,27.438,28.7,54.349,39.46,83.794c-41.058-1.52-82.685-0.122-123.807-0.087l-12.308-0.033
		c-22.133-0.133-44.512-0.883-66.62,0.189C1427.25,1237.768,1440.139,1132.493,1427.315,1056.183z"/>
	<path style="fill:#BC333D;" d="M1482.723,1314.493c1.578-28.76-0.576-59.121-2.82-87.793c-0.817-10.409-2.444-20.957-2.774-31.371
		c8.348,27.799,10.658,59.671,13.964,88.442c1.165,10.138,1.661,20.848,3.937,30.755L1482.723,1314.493z"/>
	<path style="fill:#192E35;" d="M653.173,269.53c63.247-31.387,127.779-60.533,191.48-91.02L958.8,124.134
		c24.028-11.584,47.746-24.027,72.006-35.096c3.806-1.736,8.545-4.412,12.744-2.831c13.121,8.472,27.295,15.543,41.089,22.854
		c23.167,12.277,46.413,24.4,69.74,36.371l161.586,85.703c20.878,10.861,41.589,22.031,62.134,33.51
		c10.558,5.794,22.471,11.18,31.945,18.606c-3.427,6.284-25.941,15.43-33.435,19.108c-52.166,25.821-101.689,56.916-154.172,81.953
		c2.62,16.39,1.074,34.882,0.869,51.457l1.028,0.96c4.551,2.62,6.62,5.004,8.089,10.08c7.492,25.829,0.315,101.519-10.867,125.366
		l-1.221,3.419c4.461,0.927,8.355,2.28,12.54,4.07c12.866,6.296,20.267,15.843,24.967,29.324
		c6.806,19.531,3.616,43.762-5.384,62.072c-5.544,11.282-12.976,20.883-23.986,27.268c-4.551,4.938-4.42,36.75-6.545,45.69
		c-0.55,2.35-1.151,4.687-1.802,7.011c-0.651,2.323-1.352,4.632-2.102,6.926c-0.75,2.294-1.55,4.571-2.399,6.831
		c-0.849,2.258-1.746,4.498-2.693,6.719c-0.945,2.221-1.938,4.42-2.979,6.597c-1.041,2.178-2.128,4.332-3.261,6.462
		c-1.133,2.131-2.312,4.237-3.537,6.317c-1.225,2.08-2.493,4.133-3.806,6.157c-1.313,2.025-2.669,4.02-4.068,5.987
		c-1.4,1.967-2.842,3.902-4.325,5.807c-1.481,1.905-3.005,3.776-4.569,5.614c-1.563,1.838-3.166,3.642-4.808,5.413
		c-1.641,1.769-3.319,3.502-5.036,5.199c-1.717,1.696-3.468,3.355-5.255,4.978c-1.789,1.621-3.611,3.203-5.467,4.745
		c-1.856,1.542-3.745,3.044-5.666,4.505c-8.371,6.487-19.125,13.747-29.324,16.873c-10.679,3.904-21.312,7.662-32.538,9.677
		c-49.927,8.954-96.081-5.61-136.922-34.48c-39.775-28.116-74.726-77.396-82.938-125.972c-5.403,0.464-10.803,1.273-16.185,1.945
		c-3.821,0.269-7.793-0.133-11.609-0.411c-20.623-1.501-39.313-10.697-52.716-26.582c-11.23-13.312-17.595-29.955-16.075-47.5
		c1.549-17.904,9.493-31.545,25.435-40.339c3.286-1.814,7.72-3.077,10.432-5.624c0.296-0.278,0.537-0.612,0.804-0.916
		c-5.718-17.489-7.057-39.004-8.32-57.393c-0.466-6.777,0.102-35.154-2.585-38.888c-0.887-0.742-1.59-1.273-2.349-2.185
		c-1.916-2.297-1.447-5.911-1.401-8.713l3.159-93.741c-20.147-11.438-42.458-20.298-63.496-30.065
		c-29.845-13.853-59.345-28.41-89.339-41.95L653.173,269.53z"/>
	<path style="fill:#375963;" d="M1043.549,86.207c13.121,8.472,27.295,15.543,41.089,22.854c23.167,12.277,46.413,24.4,69.74,36.371
		l161.586,85.703c20.878,10.861,41.589,22.031,62.134,33.51c10.558,5.794,22.471,11.18,31.945,18.606
		c-3.427,6.284-25.941,15.43-33.435,19.108c-52.166,25.821-101.689,56.916-154.172,81.953c2.62,16.39,1.074,34.882,0.869,51.457
		c-8.361-3.07-16.276-7.173-24.84-9.711c-50.116-14.85-103.982-14.012-155.734-13.471c-0.748-59.949,0.151-120.074,0.286-180.043
		c42.829-3.139,129.737,5.743,161.557,33.753c8.498,7.482,13.324,15.774,14.771,26.957c2.43-4.522,3.286-9.823,4.478-14.786
		c-3.269-7.044-6.539-13.115-11.997-18.774c-29.277-30.344-109.132-37.163-150.345-38.023c-6.338-0.912-12.814-0.728-19.206-0.771
		c1.03-29.595,0.651-59.312,0.612-88.921C1042.865,116.802,1042.113,101.318,1043.549,86.207z"/>
	<path style="fill:#FE9D76;" d="M912.658,439.078c3.083,3.665,6.557,6.487,10.247,9.497c19.695,10.409,39.58,20.516,60.79,27.521
		c47.817,15.787,104.142,15.018,152.091,0.195c17.348-5.361,35.38-13.181,50.394-23.493c8.562,19.921,18.204,40.043,23.768,61.05
		c4.397,16.597,4.569,44.417,11.605,58.328l-1.221,3.419c4.461,0.927,8.355,2.28,12.54,4.07
		c12.866,6.296,20.267,15.843,24.967,29.324c6.806,19.531,3.616,43.762-5.384,62.072c-5.544,11.282-12.976,20.883-23.986,27.268
		c-4.551,4.938-4.42,36.75-6.545,45.69c-0.55,2.35-1.151,4.687-1.802,7.011c-0.651,2.323-1.352,4.632-2.102,6.926
		c-0.75,2.294-1.55,4.571-2.399,6.831c-0.849,2.258-1.746,4.498-2.693,6.719c-0.945,2.221-1.938,4.42-2.979,6.597
		c-1.041,2.178-2.128,4.332-3.261,6.462c-1.133,2.131-2.312,4.237-3.537,6.317c-1.225,2.08-2.493,4.133-3.806,6.157
		c-1.313,2.025-2.669,4.02-4.068,5.987c-1.4,1.967-2.842,3.902-4.325,5.807c-1.481,1.905-3.005,3.776-4.569,5.614
		c-1.563,1.838-3.166,3.642-4.808,5.413c-1.641,1.769-3.319,3.502-5.036,5.199c-1.717,1.696-3.468,3.355-5.255,4.978
		c-1.789,1.621-3.611,3.203-5.467,4.745c-1.856,1.542-3.745,3.044-5.666,4.505c-8.371,6.487-19.125,13.747-29.324,16.873
		c-10.679,3.904-21.312,7.662-32.538,9.677c-49.927,8.954-96.081-5.61-136.922-34.48c-39.775-28.116-74.726-77.396-82.938-125.972
		c-5.403,0.464-10.803,1.273-16.185,1.945c-3.821,0.269-7.793-0.133-11.609-0.411c-20.623-1.501-39.313-10.697-52.716-26.582
		c-11.23-13.312-17.595-29.955-16.075-47.5c1.549-17.904,9.493-31.545,25.435-40.339c3.286-1.814,7.72-3.077,10.432-5.624
		c0.296-0.278,0.537-0.612,0.804-0.916c-5.718-17.489-7.057-39.004-8.32-57.393c-0.466-6.777,0.102-35.154-2.585-38.888
		C827.417,468.49,884.036,445.723,912.658,439.078z"/>
	<path style="fill:#FE4F5A;" d="M1088.959,656.737c1.565,0.294,2.529,0.707,3.949,1.381c4.949,8.098,11.759,17.543,12.352,27.297
		c0.243,3.984-0.781,7.689-3.69,10.54c-4.582,4.49-11.11,3.85-16.985,3.694c-2.88-0.8-4.408-1.134-6.549-3.361
		c2.239-3.188,14.864-0.402,20.294-5.504c5.444-11.531-9.155-21.455-9.396-32.364
		C1088.924,657.858,1088.951,657.296,1088.959,656.737z"/>
	<path style="fill:#FE4F5A;" d="M798.225,644.352l0.145-1.588c0.889-9.512,3.28-20.756,11.301-26.901
		c4.177-3.199,9.408-4.341,14.566-3.433c7.275,1.281,13.62,6.62,17.723,12.565c2.455,3.555,7.625,12.206,6.819,16.51
		c-3.014-0.641-5.326-4.09-7.372-6.298c-3.769-7.082-7.963-13.842-16.085-16.33c-3.953-1.211-8.019-0.67-11.52,1.528
		c-4.998,3.135-6.881,7.297-8.968,12.59c-0.145,0.369-0.299,0.732-0.448,1.099l-4.204,9.586L798.225,644.352z"/>
	<path style="fill:#FE4F5A;" d="M1239.52,617.065c-1.009-0.739-2.025-1.469-3.047-2.189c-4.436-3.105-5.915-3.661-11.28-2.672
		c-0.385,0.071-0.771,0.151-1.157,0.226l-1.177-1.416c0.325-3.087,0.048-3.327,2.285-5.403c1.337-0.156,1.565-0.249,3.068-0.06
		c4.733,0.599,9.866,4.712,12.76,8.272c2.571,3.359,5.152,6.783,4.984,11.245c-0.323,8.659-11.69,12.768-14.052,20.988
		c-3.18,11.062-3.725,24.554-3.495,35.992c0.108,5.44,0.979,10.888,0.062,16.28c-3.906-9.99-2.689-47.466-0.999-59.681
		c4.3-3.317,12.428-8.328,13.714-13.834C1241.964,621.466,1241.067,619.874,1239.52,617.065z"/>
	
		<linearGradient id="SVGID_1_" gradientUnits="userSpaceOnUse" x1="446.7748" y1="1773.4984" x2="426.5088" y2="1774.662" gradientTransform="matrix(2.0731 0 0 -2.0731 -66.7472 4337.0068)">
		<stop  offset="0" style="stop-color:#CC5941"/>
		<stop  offset="1" style="stop-color:#E07352"/>
	</linearGradient>
	<path style="fill:url(#SVGID_1_);" d="M841.407,635.207c2.046,2.208,4.358,5.658,7.372,6.298l-3.122,1.296
		c-6.184,14.995,14.951,30.156,15.265,41.44c-2.836,0.35-3.342,0.435-5.78-1.404c-10.312-7.779-16.415-28.18-17.555-40.271
		c-5.637,3.278-12.727,11.634-18.909,12.321l-1.52-1.586c-0.581-4.094,0.701-7.482,1.868-11.359
		C827.206,636.457,831.557,635.188,841.407,635.207z"/>
	<path style="fill:#FEFEFE;" d="M999.727,596.073c6.497,0.164,11.74,1.938,16.289,6.806c4.362,4.667,6.273,11.429,5.981,17.721
		c-0.317,6.837-3.346,13.411-8.699,17.763c-4.267,3.468-9.408,4.59-14.738,5.22c15.354-28.723-2.807-20.563-6.57-33.11
		C992.368,604.382,995.917,600.476,999.727,596.073z"/>
	<path style="fill:#FEFEFE;" d="M1169.56,593.156c6.539,0.353,12.339,2.523,16.832,7.463c4.596,5.052,6.497,12.02,5.811,18.743
		c-0.079,0.817-0.198,1.628-0.359,2.434c-0.159,0.806-0.357,1.602-0.593,2.388c-0.238,0.786-0.513,1.559-0.827,2.318
		c-0.312,0.76-0.661,1.502-1.047,2.227c-0.387,0.726-0.808,1.43-1.263,2.112c-0.456,0.684-0.944,1.344-1.464,1.98
		c-0.52,0.636-1.07,1.245-1.65,1.826c-0.579,0.58-1.186,1.132-1.82,1.654c-4.318,3.514-8.68,4.613-14.13,4.777
		c2.214-4.851,5.367-11.929,4.302-17.338c-0.829-4.202-2.985-6.157-6.483-8.307c-3.348-2.057-6.006-3.182-7.186-7.088
		C1160.878,602.404,1165.476,597.393,1169.56,593.156z"/>
	<path style="fill:#192E35;" d="M1161.127,536.155c10.007-0.707,17.682,2.77,25.417,8.809c3.222,2.515,6.422,5.208,6.906,9.474
		c-0.531,1.766-1.292,3.029-2.983,3.955c-3.234,1.77-16.521-2.262-20.881-2.973c-0.214,0.008-0.427,0.023-0.641,0.027
		c-9.101,0.166-17.058,3.744-26.011,4.507c-1.959-0.954-4.708-2.739-5.631-4.87c-1.105-2.554-0.939-4.153,0.268-6.609
		C1141.111,541.263,1153.894,537.751,1161.127,536.155z"/>
	<path style="fill:#192E35;" d="M988.647,539.275c5.438-0.309,10.664-0.07,15.891,1.623c6.151,1.994,10.876,5.55,13.747,11.396
		c1.412,2.873,1.495,4.774,0.381,7.718c-5.158,3.674-17.294-0.495-23.654-0.974l-1.441-0.102
		c-5.736,0.466-23.611,6.615-26.897,5.419c-2.743-0.999-2.79-1.982-3.62-4.505c0.45-2.594,1.198-4.509,2.643-6.686
		C971.276,544.754,979.05,541.081,988.647,539.275z"/>
	<path style="fill:#192E35;" d="M1169.05,641.078c-2.059,1.005-4.772,2.382-7.117,2.401c-4.043,0.033-7.76-1.965-10.592-4.754
		c-5.618-5.529-8.172-14.412-7.988-22.133c0.17-7.028,2.637-14.174,8.077-18.851c5.546-4.766,11.149-5,18.13-4.586
		c-4.084,4.238-8.682,9.248-9.876,15.19c1.18,3.906,3.837,5.031,7.186,7.088c3.497,2.15,5.653,4.105,6.483,8.307
		C1174.418,629.149,1171.265,636.227,1169.05,641.078z"/>
	<path style="fill:#192E35;" d="M998.56,643.582c-1.86,0.73-3.69,1.54-5.709,1.681c-4.144,0.29-7.617-1.248-10.635-3.993
		c-5.415-4.919-8.013-12.889-8.311-20.033c-0.299-7.196,1.638-14.729,6.883-19.902c5.865-5.784,11.294-5.535,18.94-5.264
		c-3.81,4.403-7.36,8.309-7.737,14.4C995.753,623.019,1013.914,614.859,998.56,643.582z"/>
	<path style="fill:#FEFEFE;" d="M1022.059,735.084c41.324,5.886,80.035,6.615,121.568,3.307c-3.29,12.246-8.203,22.67-15.536,32.99
		c-6.827,7.882-14.004,14.267-24.177,17.375c-14.545,4.443-30.917,0.697-44.139-6.128
		C1039.923,772.38,1028.851,755.886,1022.059,735.084z"/>
	<path style="fill:#375963;" d="M912.658,439.078c3.083,3.665,6.557,6.487,10.247,9.497c-2.459,11.346-4.223,24.602-9.692,34.918
		c-13.316,25.128-26.971,18.725-30.904,56.768c-1.163,11.241,0.491,78.265-4.08,81.097c-2.04,1.262-4.296,1.607-6.584,0.723
		c-16.28-6.29-12.497-41.55-53.126-36.124c-5.718-17.489-7.057-39.004-8.32-57.393c-0.466-6.777,0.102-35.154-2.585-38.888
		C827.417,468.49,884.036,445.723,912.658,439.078z"/>
	<path style="fill:#FE4F5A;" d="M862.248,707.329c5.382-0.672,10.782-1.48,16.185-1.945c8.212,48.576,43.163,97.856,82.938,125.972
		c40.841,28.87,86.995,43.434,136.922,34.48c11.226-2.015,21.859-5.774,32.538-9.677c4.426,15.356,7.441,33.263,15.182,47.178
		l9.109,3.84c18.689,7.876,36.937,17.155,55.222,25.941c8.993,4.32,19.935,8.384,28.054,14.093l0.908,0.344
		c18.343,7.299,37.978,14.549,55.218,24.167c24.135,9.547,47.98,19.684,71.906,29.735c14.798,6.217,32.592,11.825,45.706,21.088
		c4.364,3.083,7.113,6.682,9.132,11.638c2.728,6.703,3.943,13.954,6.01,20.866l0.037,1.134
		c12.825,76.31-0.064,181.585-11.211,258.499c22.108-1.072,44.487-0.321,66.62-0.189l12.308,0.033
		c41.123-0.035,82.749-1.432,123.807,0.087c11.576,1.654,25.276,5.591,32.569,15.385c4.478,6.01,5.732,13.255,4.611,20.572
		c-1.457,9.491-6.066,19.089-9.698,27.91c3.253,6.885,6.45,14.365,10.697,20.698l0.794,1.71c1.126,2.794,2.152,5.747,3.443,8.462
		c7.443,17.734,14.665,38.606,22.966,55.51l-0.282,1.715c5.398,11.854,9.149,24.996,13.405,37.32
		c8.589,20.934,15.907,42.443,23.574,63.73c15.109,41.948,29.542,83.788,41.821,126.679c6.416,22.415,10.187,45.891,16.975,68.042
		l16.577-0.097l93.618,0.033c12.729,0.002,26.459-1.379,39.037-0.338c3.512,0.29,7.606,0.811,10.102,3.557
		c1.146,1.262,0.91,2.49,1.08,4.101c-1.658,2.853-2.809,4.011-6.083,4.828c-9.922,2.471-22.991,0.288-33.253,0.271l-86.953-0.083
		c-100.18,0.019-200.356,0.719-300.527,2.098l-2.942,9.246l-0.543,1.88c-1.068,3.651-1.98,7.411-3.458,10.917l-0.033,1.696
		c-1.493,4.555-2.952,9.06-4.053,13.73l-0.995,4.138c-0.918,3.442-1.706,6.991-3.128,10.262l-1.323,2.036
		c-6.524,10.02-15.345,16.902-27.224,19.282c-5.274,1.057-10.898,0.701-16.241,0.46c0.033,3.781-0.842,9.601,1.144,12.737
		l1.685,0.375l0.968,1.003l-2.088-0.006c-2.168,2.05-1.887,4.575-1.971,7.453c-0.029,1.211-0.047,2.421-0.054,3.632
		c-9.431,3.547-21.355,2.668-31.348,2.703l1.368,11.765l1.076,9.341l0.647,2.631c0.9,9.779,2.183,19.705,2.581,29.507l0.663,7.577
		l1.405,13.562c0.122,4.306,0.042,8.73,0.663,12.994l0.686,23.945l-0.093,16.776l-0.286,7.863l-1.217,10.217
		c-21.241,2.411-44.516,0.421-65.952,0.213l-697.268-0.191l-173.204-0.143c3.771-22.247,9.325-44.153,12.955-66.433
		c-88.579-8.684-158.331-25.96-240.583-59.551c-22.906-12.265-49.877-21.872-65.787-43.474
		c-16.236-22.046-16.357-49.038-12.436-75.043c8.036-40.503,18.8-80.752,29.353-120.664c5.206-19.687,9.607-39.58,14.895-59.246
		c4.859-18.069,10.571-35.871,15.733-53.852c33.862-117.94,72.454-247.876,134.83-354.078c14.982-25.51,30.469-51.04,50.226-73.217
		c8.602-9.655,31.456-29.038,36.746-37.615c0.247-0.398,0.477-0.804,0.715-1.209c4.76-17.814,13.442-51.142,28.725-61.922
		c12.824-7.975,31.246-12.663,45.673-17.425l3.205-0.647c20.628-6.414,72.377-28.419,89.806-29.279
		c5.886-0.29,9.588,4.057,13.519,7.727c18.946-7.235,38.519-12.878,57.583-19.834c45.507-33.993,92.323-66.377,137.249-101.142
		c-1.795-9.157,3.551-31.688,5.065-42.364c4.076-24.175,7.25-48.469,9.522-72.881L862.248,707.329z"/>
	<path style="fill:#BC333D;" d="M1123.622,1853.107l3.155,0.384c0.46,20.101,0.603,40.264,1.418,60.353
		c1.596,7.27,3.083,102.883,1.901,108.501c-3.508-7.828-5.102-97.891-5.318-112.54
		C1124.482,1890.885,1123.566,1872.042,1123.622,1853.107z"/>
	<path style="fill:#BC333D;" d="M1146.012,903.337l9.109,3.84l-4.269,2.328c-0.599,2.204-0.875,2.353-0.265,4.673
		c0.819,3.116,1.928,6.8,1.988,10.011c0.431,3.898,1.053,8.046,0.346,11.937c-2.542,13.998-16.286,30.036-24.965,40.783
		c-10.194,12.625-22.249,24.291-33.676,35.815c-6.483,5.633-34.064,27.494-36.833,31.586c-1.503,2.22-1.714,4.915-2.063,7.509
		c1.422,4.007,3.218,6.261,6.074,9.379c6.918,5.43,11.744,13.077,18.2,19.023c8.268,10.202,41.888,48.98,51.895,53.897
		c2.84,0.064,3.052,0.012,5.168-2.108c6.226-6.24,9.86-15.891,14.984-23.09c11.214-18.418,21.818-37.321,33.444-55.477
		c15.499-24.206,41.869-59.804,51.229-85.939c2.428-6.779-0.027-12.565,1.605-18.861c0.124-0.481,0.276-0.954,0.413-1.431
		l0.908,0.344c1.151,5.834,2.22,11.601,2.938,17.508c-9.466,24.254-29.407,51.223-43.463,73.779
		c-14.902,23.914-28.727,48.522-44.319,71.998c-2.965,6.81-11.174,21.272-17.19,25.873c-1.92,1.466-3.058,1.762-5.425,1.513
		c-12.341-1.294-44.943-42.675-54.368-53.568c-5.583-6.704-13.094-17.833-21.082-21.519c-2.921,6.141,4.065,44.015,3.955,54.797
		l13.038,132.106c2.11,21.276,6.093,43.465,5.699,64.796l-3.844-0.593c-2.218-27.235-5.487-54.355-7.88-81.572
		c-2.915-33.133-5.127-66.467-9.443-99.446c-2.504-22.821-5.471-46.252-5.888-69.207c-30.574,31.167-59.667,64.398-88.452,97.232
		c-14.485-10.548-28.381-21.925-42.565-32.869c-48.014-37.045-95.055-75.201-142.281-113.249
		c-22.929-18.474-44.954-37.718-68.84-54.998c2.842-0.96,3.881-1.034,6.622,0.354c9.331,4.727,17.765,14.222,25.788,20.995
		c8.789,7.304,17.688,14.472,26.698,21.505l192.894,153.665c13.99-14.605,86.86-90.492,91.734-103.128
		c-0.411-6.161-1.839-12.204-3.05-18.25c1.051,0.201,1.161,0.247,2.361,0.338c11.062,0.838,32.814-19.73,41.438-27.257
		c20.319-21.471,45.775-47.713,56.184-75.64c-1.478-9.833-4.291-18.401-8.404-27.44L1146.012,903.337z"/>
	<path style="fill:#192E35;" d="M505.734,1957.889c31.336,2.721,62.731,4.134,94.186,4.238c26.857-0.178,53.597-2.094,80.383-3.804
		c-4.506,22.105-9.279,44.153-14.321,66.143l-173.204-0.143C496.55,2002.076,502.104,1980.169,505.734,1957.889z"/>
	<path style="fill:#BC333D;" d="M559.83,1663.527c-0.155-24.973,1.837-50.045,2.84-74.995c2.091-49.549,3.507-99.118,4.248-148.706
		c0.361-42.9,0.074-85.795-0.86-128.685c-0.317-18.671-2.577-38.214-1.484-56.758c3.205,8.313,4.2,33.176,5.767,43.882
		c5.394,36.842,8.214,73.776,11.062,110.869c3.169,37.937,5.791,75.912,7.865,113.925c1.53,27.32,3.898,54.424,6.058,81.685
		c1.169,14.773,1.159,31.159,4.517,45.576c0.085,0.363,0.18,0.724,0.269,1.084c-2.011,12.959-4.934,25.831-7.563,38.682
		c-21.434-6.866-42.889-14.404-64.839-19.421c-52.662-12.037-105.808-5.55-155.354,15.482c-14.927,6.336-27.946,15.262-42.48,21.876
		l-0.496-0.357c42.775-32.586,91.266-51.281,145.727-50.433c17.141,0.265,34.254,2.66,51.271,4.613
		c-34.422-14.869-110.902-36.255-146.57-30.975c-3.508,0.518-7.051,0.446-10.59,0.466c9.885-2.801,21.214-2.388,31.427-2.312
		C456.101,1629.437,508.128,1644.732,559.83,1663.527z"/>
	<path style="fill:#192E35;" d="M1347.052,1855.764c-0.025-2.083-0.048-3.081,1.151-4.826c8.34-1.31,61.802-2.579,68.826-0.721
		c2.069,8.929,1.538,18.26,4.333,26.934l0.348,1.113l1.368,11.765l1.076,9.341l0.647,2.631c0.9,9.779,2.183,19.705,2.581,29.507
		l0.663,7.577l1.405,13.562c0.122,4.306,0.042,8.73,0.663,12.994l0.686,23.945l-0.093,16.776l-0.286,7.863l-1.217,10.217
		c-21.241,2.411-44.516,0.421-65.952,0.213C1361.308,1968.462,1351.996,1911.828,1347.052,1855.764z"/>
	<path style="fill:#FE4F5A;" d="M1155.121,907.177c18.689,7.876,36.937,17.155,55.222,25.941c8.993,4.32,19.935,8.384,28.054,14.093
		c-0.137,0.477-0.288,0.95-0.413,1.431c-1.631,6.296,0.823,12.082-1.605,18.861c-9.36,26.136-35.73,61.734-51.229,85.939
		c-11.626,18.156-22.23,37.059-33.444,55.477c-5.125,7.2-8.759,16.85-14.984,23.09c-2.117,2.121-2.328,2.173-5.168,2.108
		c-10.007-4.917-43.627-43.695-51.895-53.897c-6.456-5.946-11.282-13.594-18.2-19.023c-2.857-3.118-4.652-5.371-6.074-9.379
		c0.348-2.594,0.56-5.288,2.063-7.509c2.77-4.092,30.351-25.953,36.833-31.586c11.427-11.525,23.482-23.19,33.676-35.815
		c8.678-10.747,22.423-26.785,24.965-40.783c0.707-3.891,0.085-8.04-0.346-11.937c-0.06-3.211-1.169-6.895-1.988-10.011
		c-0.61-2.32-0.334-2.469,0.265-4.673L1155.121,907.177z"/>
	<path style="fill:#FE9D76;" d="M902.353,1708.064c27.718-8.639,55.259-17.968,82.94-26.76c13.484-4.283,27.836-10.14,41.807-12.024
		c4.03-0.545,7.393-0.529,11.033,1.503c5.218,2.913,9.408,8.633,10.853,14.404c0.979,3.912,0.348,7.76-1.926,11.12
		c-5.629,8.318-19.637,12.335-28.522,15.976l2.849,6.773c11.537-6.147,29.349-15.034,42.702-11.294
		c5.11,1.432,10.641,4.652,13.071,9.572c1.766,3.578,1.526,7.71,0.118,11.367c-4.196,10.907-17.501,15.619-27.467,19.637
		c-2.339,0.944-4.685,1.866-7.04,2.766c4.19,6.916,7.343,13.311,5.301,21.639c-1.234,5.031-3.601,8-7.351,11.545
		c-9.771,9.238-22.079,16.079-33.178,23.617c-13.341,9.062-26.192,18.979-39.141,28.593c-7.938,5.894-16.797,11.591-24.1,18.225
		c-53.593,37.735-68.598,73.356-142.872,71.714c-11.726-0.259-25.848,0.829-37.264-1.439c-1.377-0.274-2.081-0.643-3.089-1.598
		l-0.57-2.316c5.017-34.043,8.253-68.405,11.84-102.622c2.073-19.78,3.352-40.125,7.582-59.571
		c10.31-10.48,69.647-32.507,86.646-38.546C878.402,1716.139,890.834,1713.036,902.353,1708.064z"/>
	<path style="fill:#FE4F5A;" d="M1021.385,1719.056c-0.367,0.311-0.711,0.651-1.099,0.933c-17.97,13.071-57.598,25.51-79.737,35.135
		c-10.956,4.764-21.395,11.052-32.581,15.215c-3.367,1.252-6.052,2.09-9.659,1.379c-0.701-0.744-1.028-1.003-1.528-2.015
		c-1.078-2.179-1.051-4.242-0.386-6.472c11.301-7.988,108.678-50.238,122.141-50.947L1021.385,1719.056z"/>
	<path style="fill:#FE4F5A;" d="M1032.651,1752.591c1.053-0.104,2.133,0.187,3.174,0.353c0.92,1.864,1.242,2.083,1.153,4.295
		c-0.164,4.126-2.778,7.907-5.917,10.451c-5.962,4.828-15.01,6.808-21.979,10.005c-18.938,8.689-38.202,17.375-56.769,26.808
		c-4.986,2.535-21.5,13.009-26.011,13.063c-0.292,0.002-0.581-0.079-0.869-0.116c-2.917-2.687-5.494-5.616-8.123-8.581
		C953.349,1788.823,995.179,1770.619,1032.651,1752.591z"/>
	<path style="fill:#FE9D76;" d="M862.248,707.329c5.382-0.672,10.782-1.48,16.185-1.945c8.212,48.576,43.163,97.856,82.938,125.972
		c40.841,28.87,86.995,43.434,136.922,34.48c11.226-2.015,21.859-5.774,32.538-9.677c4.426,15.356,7.441,33.263,15.182,47.178
		l-3.854,1.938c4.113,9.039,6.926,17.607,8.404,27.44c-10.409,27.927-35.865,54.169-56.184,75.64
		c-8.624,7.528-30.376,28.095-41.438,27.257c-1.2-0.091-1.31-0.137-2.361-0.338c-9.524-4.277-22.406-5.616-32.654-8.176
		c-21.585-5.394-41.591-13.079-61.29-23.493c-42.101-22.257-79.171-57.438-97.572-101.946c-5.989-14.485-9.269-29.358-13.876-44.241
		c-1.795-9.157,3.551-31.688,5.065-42.364c4.076-24.175,7.25-48.469,9.522-72.881L862.248,707.329z"/>
	<path style="fill:#FE4F5A;" d="M862.248,707.329c5.382-0.672,10.782-1.48,16.185-1.945c8.212,48.576,43.163,97.856,82.938,125.972
		c40.841,28.87,86.995,43.434,136.922,34.48c11.226-2.015,21.859-5.774,32.538-9.677c4.426,15.356,7.441,33.263,15.182,47.178
		l-3.854,1.938c-13.077,0.809-26.242,5.562-39.53,6.605c-53.564,4.206-114.92-21.718-154.73-56.113
		c-28.122-24.295-66.475-71.67-69.402-110.106c-5.616,0.128-12.302,1.136-17.655-0.5l-1.066-2.987L862.248,707.329z"/>
	<path style="fill:#192E35;" d="M547.031,999.947c20.628-6.414,72.377-28.419,89.806-29.279c5.886-0.29,9.588,4.057,13.519,7.727
		c12.559,12.542,20.727,29.922,27.446,46.121c11.354,27.372,19.104,56.557,28.161,84.779
		c18.058,55.094,34.954,110.542,50.688,166.344c5.745,19.966,17.792,52.72,17.706,72.661c-0.166,39.489-6.802,79.946-10.88,119.273
		c-6.467,64.138-14.697,128.05-24.691,191.735c-3.794,24.911-6.601,50.551-11.746,75.193c-11.842-1.854-24.513-7.888-35.944-11.775
		l-61.276-20.501c-12.321-4.132-24.71-8.865-37.271-12.138c2.629-12.851,5.552-25.723,7.563-38.682
		c7.057-25.417,11.452-51.926,17.13-77.697l35.542-167.675c5.68-27.334,10.747-54.913,17.126-82.083
		c-9.201-11.209-15.706-26.911-22.796-39.632c-17.031-30.564-33.84-61.46-51.312-91.759l-61.984-105.075
		c-6.709-11.485-17.246-24.444-21.351-36.862c-8.446,4.893-38.164,27.989-43.04,29.32c4.76-17.814,13.442-51.142,28.725-61.922
		c12.824-7.975,31.246-12.663,45.673-17.425L547.031,999.947z"/>
	<path style="fill:#BC333D;" d="M515.766,1048.546c20.404,26.37,35.714,56.004,52.942,84.393
		c13.625,22.448,104.718,168.904,101.869,187.811c-0.108,0.705-0.282,1.397-0.435,2.094l-0.23,1.105
		c-9.201-11.209-15.706-26.911-22.796-39.632c-17.031-30.564-33.84-61.46-51.312-91.759l-61.984-105.075
		c-6.709-11.485-17.246-24.444-21.351-36.862L515.766,1048.546z"/>
	<path style="fill:#FE4F5A;" d="M1239.305,947.555c18.343,7.299,37.978,14.549,55.218,24.167
		c24.135,9.547,47.98,19.684,71.906,29.735c14.798,6.217,32.592,11.825,45.706,21.088c4.364,3.083,7.113,6.682,9.132,11.638
		c2.728,6.703,3.943,13.954,6.01,20.866l0.037,1.134c12.825,76.31-0.064,181.585-11.211,258.499
		c-6.24,1.971-86.557,1.526-94.346,0.398c-47.477-2.376-95.793-0.634-143.386-0.746l-61.522-0.133
		c-12.478-0.019-25.352-0.634-37.762,0.637c0.394-21.331-3.589-43.519-5.699-64.796l-13.038-132.106
		c0.11-10.782-6.876-48.656-3.955-54.797c7.988,3.686,15.499,14.815,21.082,21.519c9.425,10.892,42.026,52.274,54.368,53.568
		c2.368,0.249,3.506-0.048,5.425-1.513c6.016-4.6,14.226-19.063,17.19-25.873c15.592-23.476,29.418-48.084,44.319-71.998
		c14.056-22.556,33.997-49.525,43.463-73.779C1241.525,959.156,1240.455,953.389,1239.305,947.555z"/>
	<path style="fill:#192E35;" d="M1294.522,971.722c24.135,9.547,47.98,19.684,71.906,29.735
		c14.798,6.217,32.592,11.825,45.706,21.088c4.364,3.083,7.113,6.682,9.132,11.638c2.728,6.703,3.943,13.954,6.01,20.866
		l0.037,1.134c12.825,76.31-0.064,181.585-11.211,258.499c-6.24,1.971-86.557,1.526-94.346,0.398
		c-0.806-25.321-3.661-50.881-5.577-76.173c-3.13-46.652-6.576-93.281-10.337-139.886
		C1302.054,1056.643,1296.71,1014.208,1294.522,971.722z"/>
	<path style="fill:#375963;" d="M1416.103,1314.682c22.108-1.072,44.487-0.321,66.62-0.189l12.308,0.033
		c41.123-0.035,82.749-1.432,123.807,0.087c11.576,1.654,25.276,5.591,32.569,15.385c4.478,6.01,5.732,13.255,4.611,20.572
		c-1.457,9.491-6.066,19.089-9.698,27.91c3.253,6.885,6.45,14.365,10.697,20.698l0.794,1.71c1.126,2.794,2.152,5.747,3.443,8.462
		c7.443,17.734,14.665,38.606,22.966,55.51l-0.282,1.715c5.398,11.854,9.149,24.996,13.405,37.32
		c8.589,20.934,15.907,42.443,23.574,63.73c15.109,41.948,29.542,83.788,41.821,126.679c6.416,22.415,10.187,45.891,16.975,68.042
		l16.577-0.097l93.618,0.033c12.729,0.002,26.459-1.379,39.037-0.338c3.512,0.29,7.606,0.811,10.102,3.557
		c1.146,1.262,0.91,2.49,1.08,4.101c-1.658,2.853-2.809,4.011-6.083,4.828c-9.922,2.471-22.991,0.288-33.253,0.271l-86.953-0.083
		c-100.18,0.019-200.356,0.719-300.527,2.098l-2.942,9.246l-0.543,1.88c-1.068,3.651-1.98,7.411-3.458,10.917l-0.033,1.696
		c-1.493,4.555-2.952,9.06-4.053,13.73l-0.995,4.138c-0.918,3.442-1.706,6.991-3.128,10.262l-1.323,2.036
		c-6.524,10.02-15.345,16.902-27.224,19.282c-5.274,1.057-10.898,0.701-16.241,0.46c0.033,3.781-0.842,9.601,1.144,12.737
		l1.685,0.375l0.968,1.003l-2.088-0.006c-2.168,2.05-1.887,4.575-1.971,7.453c-0.029,1.211-0.047,2.421-0.054,3.632
		c-9.431,3.547-21.355,2.668-31.348,2.703l-0.348-1.113c-2.795-8.674-2.264-18.005-4.333-26.934
		c-7.024-1.858-60.486-0.589-68.826,0.721c-1.198,1.746-1.176,2.743-1.151,4.826c-0.297-1.401-0.738-2.722-1.173-4.086
		c-1.476-0.981-2.191-1.229-4.005-1.29c-5.189-0.17-10.658,0.595-15.897,0.695l-47.232,0.738l-151.967,1.669l-3.155-0.384
		c-39.827,1.804-79.834,1.327-119.692,1.468c-18.857,0.068-41.071,1.807-59.629,0.147c7.304-6.634,16.162-12.331,24.1-18.225
		c12.949-9.613,25.8-19.531,39.141-28.593c11.1-7.538,23.408-14.379,33.178-23.617c3.75-3.545,6.118-6.514,7.351-11.545
		c2.042-8.328-1.111-14.723-5.301-21.639c2.355-0.9,4.702-1.822,7.04-2.766c9.966-4.018,23.271-8.73,27.467-19.637
		c1.408-3.657,1.648-7.789-0.118-11.367c-2.43-4.92-7.961-8.139-13.071-9.572c-13.353-3.74-31.165,5.148-42.702,11.294l-2.849-6.773
		c8.885-3.64,22.894-7.658,28.522-15.976c2.274-3.36,2.904-7.208,1.926-11.12c-1.445-5.772-5.635-11.491-10.853-14.404
		c-3.641-2.031-7.003-2.048-11.033-1.503c-13.971,1.885-28.323,7.741-41.807,12.024c-27.681,8.792-55.222,18.121-82.94,26.76
		c1.974-19.987,9.493-41.286,14.375-60.853l24.227-99.861l35.083-145.299c4.731-18.781,8.836-38.104,14.595-56.584
		c1.735-5.568,4.364-11.232,8.382-15.532c19.666-21.053,50.483-14.9,76.229-15.692l3.844,0.593
		c12.41-1.271,25.284-0.655,37.762-0.637l61.522,0.133c47.593,0.112,95.909-1.63,143.386,0.746
		C1329.546,1316.207,1409.863,1316.653,1416.103,1314.682z"/>
	<path style="fill:#FE4F5A;" d="M1417.028,1850.217c12.144-0.276,24.208-0.587,36.344,0.149c0.033,3.781-0.842,9.601,1.144,12.737
		l1.685,0.375l0.968,1.003l-2.088-0.006c-2.168,2.05-1.887,4.575-1.971,7.453c-0.029,1.211-0.047,2.421-0.054,3.632
		c-9.431,3.547-21.355,2.668-31.348,2.703l-0.348-1.113C1418.566,1868.477,1419.097,1859.146,1417.028,1850.217z"/>
	<path style="fill:#608A94;" d="M1037.645,1331.424l307.053,2.455c28.968,0.085,294.88-1.829,301.568,1.086
		c1.267,1.974,2.11,3.414,2.589,5.722c-3.06,1.422-363.109,0.326-399.098,0.326c-22.201,0.023-221.195-0.52-225.639,2.312
		c-3.029,1.928-6.425,13.533-7.457,17.097c-8.637,29.772-15.461,60.382-23.14,90.438c-16.892,66.94-34.412,133.715-52.56,200.324
		l0.031-0.825l0.066-1.377c1.078-24.985,8.805-49.967,14.682-74.202c6.478-27.711,13.15-55.374,20.016-82.989
		c7.838-31.944,15.854-63.843,24.048-95.696c4.146-16.388,7.532-33.442,12.824-49.477c1.138-3.448,2.423-6.491,5.083-9.055
		C1023.258,1332.212,1030.377,1331.567,1037.645,1331.424z"/>
	<path style="fill:#192E35;" d="M1274.668,1517.977c16.092-1.996,36.833,3.375,49.55,13.326c9.439,7.387,15.99,17.931,17.021,29.986
		c1.31,15.341-4.408,30.689-14.589,42.081c-15.857,17.748-38.312,25.193-61.501,26.58c-18.567,0.309-36.898-2.224-51.291-15.101
		c-0.567-0.507-1.121-1.028-1.663-1.563c-0.542-0.535-1.07-1.083-1.584-1.644c-0.514-0.561-1.014-1.134-1.499-1.719
		c-0.486-0.586-0.958-1.184-1.414-1.793c-0.456-0.609-0.896-1.229-1.321-1.859c-0.426-0.632-0.835-1.273-1.229-1.924
		c-0.394-0.651-0.771-1.312-1.132-1.982c-0.361-0.67-0.704-1.349-1.03-2.036c-0.328-0.687-0.638-1.382-0.931-2.086
		c-0.292-0.702-0.566-1.411-0.823-2.127c-0.258-0.716-0.498-1.438-0.719-2.166c-0.221-0.728-0.424-1.462-0.609-2.2
		c-0.185-0.738-0.352-1.48-0.5-2.227c-0.149-0.746-0.279-1.495-0.39-2.247c-0.11-0.753-0.203-1.509-0.278-2.266
		c-0.073-0.757-0.128-1.516-0.164-2.276c-0.736-13.72,4.629-26.265,13.567-36.471
		C1228.454,1527.629,1250.56,1519.745,1274.668,1517.977z"/>
	<path style="fill:#375963;" d="M1267.97,1523.048c15.418-2.249,33.085,0.819,46.27,9.323c10.187,6.568,18.047,15.762,20.267,27.944
		c2.33,12.785-2.295,26.325-9.68,36.705c-12.07,16.964-30.467,23.144-50.095,26.325c-16.691,2.853-37.003,0.353-51.009-9.613
		c-9.136-6.501-15.598-16.189-17.423-27.316c-2.017-12.316,1.461-24.84,8.742-34.87
		C1227.374,1534.564,1248.01,1526.518,1267.97,1523.048z"/>
	<path style="fill:#FE4F5A;" d="M1646.32,1378.48c3.253,6.885,6.45,14.365,10.697,20.698l0.794,1.71
		c1.126,2.794,2.152,5.747,3.443,8.462c7.443,17.734,14.665,38.606,22.966,55.51l-0.282,1.715
		c5.398,11.854,9.149,24.996,13.405,37.32c8.589,20.934,15.907,42.443,23.574,63.73c15.109,41.948,29.542,83.788,41.821,126.679
		c6.416,22.415,10.187,45.891,16.975,68.042c-39.696-0.601-79.475-0.093-119.18-0.12l-10.096,0.008
		c-23.984-0.187-47.962,0.522-71.948,0.276c-7.94,0.725-55.05,1.105-59.526-1.559l1.258-2.795
		c5.583-18.567,10.793-37.358,17.228-55.647l4.155-11.603l78.524-237.63C1628.284,1428.299,1639.993,1403.953,1646.32,1378.48z"/>
	<path style="fill:#BC333D;" d="M1606.325,1635.753c-3.07,19.749-10.401,38.496-27.013,50.769
		c-12.178,8.997-27.019,13.811-41.863,15.988l4.155-11.603c16.058-1.476,40.795-25.021,50.705-36.987
		C1597.189,1648.026,1601.861,1641.97,1606.325,1635.753z"/>
	<path style="fill:#BC333D;" d="M1520.222,1758.157l1.217-0.319c11.429-2.927,23.173-4.581,34.713-7.038
		c22.817-4.857,39.358-14.593,58.553-27.187c-8.66,18.87-18.949,27.813-36.216,38.898c-7.94,0.725-55.05,1.105-59.526-1.559
		L1520.222,1758.157z"/>
	<path style="fill:#BC333D;" d="M1627.844,1641.892c17.456,33.566,27.123,66.396,32.024,103.795
		c0.394,5.535,0.724,10.988,0.665,16.539l-10.096,0.008C1644.888,1721.795,1632.691,1682.32,1627.844,1641.892z"/>
</g>
</svg>
